<svg width="120" height="120" viewBox="0 0 120 120" fill="none" xmlns="http://www.w3.org/2000/svg">
<rect x="1" y="1" width="118" height="118" rx="22.6618" stroke="#F79236" stroke-width="2"/>
<path d="M41.2536 50.0643C40.2422 50.0643 39.4222 50.8842 39.4222 51.8957C39.4222 52.9071 40.2422 53.727 41.2536 53.727H48.5791C49.5905 53.727 50.4104 52.9071 50.4104 51.8957C50.4104 50.8842 49.5905 50.0643 48.5791 50.0643H41.2536Z" fill="#F79236"/>
<path d="M39.4222 62.2734C39.4222 61.262 40.2422 60.442 41.2536 60.442H52.2418C53.2532 60.442 54.0731 61.262 54.0731 62.2734C54.0731 63.2848 53.2532 64.1048 52.2418 64.1048H41.2536C40.2422 64.1048 39.4222 63.2848 39.4222 62.2734Z" fill="#F79236"/>
<path fill-rule="evenodd" clip-rule="evenodd" d="M55.4958 84.3196C56.5807 84.9929 57.546 85.5919 58.3463 86.0196V86.0811H58.4627C59.1904 86.4622 59.7741 86.6916 60.1777 86.6916C60.5794 86.6916 61.1972 86.4621 61.9762 86.0811H62.0091V86.065C62.981 85.5871 64.1998 84.8779 65.5601 84.0862C68.141 82.5841 71.2316 80.7854 74.1135 79.708C78.1005 78.2173 83.8642 76.9478 86.8718 76.3368C88.0284 76.1019 88.8691 75.0897 88.8691 73.9095V35.8971C88.8691 34.3737 87.4935 33.228 86.0024 33.5401C82.8479 34.2005 77.7441 35.3745 74.1135 36.732C71.2316 37.8094 68.141 39.6081 65.5601 41.1102C63.0879 42.5489 61.0833 43.7156 60.1777 43.7156C59.3179 43.7156 57.6404 42.6745 55.4952 41.3432C53.0223 39.8085 49.9277 37.888 46.7477 36.732C43.2291 35.4529 37.7084 34.2244 34.3603 33.5367C32.8664 33.2299 31.4863 34.3772 31.4863 35.9022V73.9131C31.4863 75.0917 32.3266 76.1029 33.4822 76.3345C36.6594 76.9713 42.9003 78.3093 46.7477 79.708C49.9277 80.864 53.0229 82.7849 55.4958 84.3196ZM57.9614 46.9084C58.0735 46.9529 58.2027 47.0019 58.3463 47.0509V81.776C58.0631 81.6019 57.7609 81.4144 57.4375 81.2137L56.9237 80.8953C54.559 79.431 51.3687 77.4906 47.9991 76.2656C44.2329 74.8965 38.5203 73.6286 35.1491 72.9355V37.4447C38.4375 38.1496 42.7192 39.1647 45.4963 40.1743C48.0652 41.1082 50.6644 42.6595 53.0673 44.1474C53.2278 44.2468 53.3891 44.3469 53.5505 44.4472C54.5317 45.0563 55.518 45.6687 56.3655 46.1357C56.8663 46.4118 57.4136 46.6909 57.9614 46.9084Z" fill="#F79236"/>
</svg>
