<svg  viewBox="0 0 188 156" fill="none" xmlns="http://www.w3.org/2000/svg">
<path d="M82.2406 1.75831C83.3642 2.88332 83.9953 4.40831 83.9953 5.99832C83.9953 7.58832 83.3642 9.11332 82.2406 10.2383L20.4906 71.9983L182.001 71.9983C183.592 71.9983 185.118 72.6304 186.243 73.7557C187.368 74.8809 188.001 76.407 188.001 77.9983C188.001 79.5896 187.368 81.1157 186.243 82.2409C185.118 83.3662 183.592 83.9983 182.001 83.9983L20.4906 83.9983L82.2406 145.758C83.3004 146.896 83.8774 148.4 83.85 149.954C83.8225 151.509 83.1928 152.992 82.0935 154.091C80.9942 155.191 79.5112 155.82 77.9567 155.848C76.4023 155.875 74.898 155.298 73.7606 154.238L1.76058 82.2383C0.636974 81.1133 0.00585938 79.5883 0.00585938 77.9983C0.00585938 76.4083 0.636974 74.8833 1.76058 73.7583L73.7606 1.75831C74.8856 0.63471 76.4106 0.00359842 78.0006 0.00359842C79.5906 0.00359842 81.1156 0.63471 82.2406 1.75831Z" fill="#182330"/>
</svg>
