<svg  viewBox="0 0 31 27" fill="none" xmlns="http://www.w3.org/2000/svg">
<path d="M13.2879 0.930525C13.3504 0.992924 13.3999 1.06702 13.4337 1.14859C13.4675 1.23015 13.4849 1.31758 13.4849 1.40588C13.4849 1.49417 13.4675 1.5816 13.4337 1.66317C13.3999 1.74473 13.3504 1.81883 13.2879 1.88123L2.34137 12.8278L30.2813 12.8278C30.4595 12.8278 30.6304 12.8985 30.7564 13.0245C30.8824 13.1505 30.9532 13.3214 30.9532 13.4996C30.9532 13.6778 30.8824 13.8487 30.7564 13.9747C30.6304 14.1007 30.4595 14.1715 30.2813 14.1715L2.34137 14.1715L13.2879 25.118C13.3503 25.1804 13.3998 25.2546 13.4336 25.3361C13.4674 25.4177 13.4848 25.5051 13.4848 25.5934C13.4848 25.6817 13.4674 25.7691 13.4336 25.8506C13.3998 25.9322 13.3503 26.0063 13.2879 26.0687C13.2255 26.1312 13.1514 26.1807 13.0698 26.2145C12.9882 26.2482 12.9008 26.2656 12.8125 26.2656C12.7243 26.2656 12.6368 26.2482 12.5553 26.2145C12.4737 26.1807 12.3996 26.1312 12.3372 26.0687L0.243438 13.975C0.18097 13.9126 0.131413 13.8385 0.0976019 13.7569C0.0637902 13.6754 0.0463867 13.5879 0.0463867 13.4996C0.0463867 13.4113 0.0637902 13.3239 0.0976019 13.2423C0.131413 13.1608 0.18097 13.0867 0.243438 13.0243L12.3372 0.930525C12.3996 0.868055 12.4737 0.818499 12.5553 0.784687C12.6368 0.750875 12.7242 0.733473 12.8125 0.733473C12.9008 0.733473 12.9883 0.750875 13.0698 0.784687C13.1514 0.818499 13.2255 0.868055 13.2879 0.930525Z" fill="white"/>
</svg>
