<svg viewBox="0 0 31 27" fill="none" xmlns="http://www.w3.org/2000/svg">
<path d="M17.7116 26.0695C17.6492 26.0071 17.5996 25.933 17.5658 25.8514C17.532 25.7698 17.5146 25.6824 17.5146 25.5941C17.5146 25.5058 17.532 25.4184 17.5658 25.3368C17.5996 25.2553 17.6492 25.1812 17.7116 25.1188L28.6581 14.1722L0.718222 14.1722C0.54003 14.1722 0.369135 14.1015 0.243134 13.9755C0.117132 13.8495 0.0463467 13.6786 0.0463467 13.5004C0.0463467 13.3222 0.117132 13.1513 0.243134 13.0253C0.369135 12.8993 0.54003 12.8285 0.718222 12.8285L28.6581 12.8285L17.7116 1.88198C17.6492 1.81955 17.5997 1.74544 17.5659 1.66388C17.5321 1.58232 17.5147 1.4949 17.5147 1.40662C17.5147 1.31834 17.5321 1.23093 17.5659 1.14937C17.5997 1.0678 17.6492 0.993696 17.7116 0.931272C17.774 0.868848 17.8482 0.81933 17.9297 0.785547C18.0113 0.751763 18.0987 0.734375 18.187 0.734375C18.2753 0.734375 18.3627 0.751763 18.4442 0.785547C18.5258 0.81933 18.5999 0.868848 18.6623 0.931272L30.7561 13.025C30.8185 13.0874 30.8681 13.1615 30.9019 13.2431C30.9357 13.3246 30.9531 13.4121 30.9531 13.5004C30.9531 13.5887 30.9357 13.6761 30.9019 13.7577C30.8681 13.8392 30.8185 13.9133 30.7561 13.9757L18.6623 26.0695C18.5999 26.1319 18.5258 26.1815 18.4443 26.2153C18.3627 26.2491 18.2753 26.2665 18.187 26.2665C18.0987 26.2665 18.0112 26.2491 17.9297 26.2153C17.8481 26.1815 17.774 26.1319 17.7116 26.0695Z" fill="white"/>
</svg>
