<svg width="17" height="21" viewBox="0 0 17 21" fill="none" xmlns="http://www.w3.org/2000/svg">
<path d="M0.71876 12.4256L8.50043 20.167L16.2821 12.4256C16.3739 12.3557 16.4496 12.2669 16.5041 12.1651C16.5586 12.0634 16.5906 11.9512 16.598 11.836C16.6053 11.7208 16.5878 11.6054 16.5467 11.4976C16.5056 11.3898 16.4418 11.2921 16.3596 11.211C16.2774 11.13 16.1788 11.0676 16.0704 11.028C15.962 10.9884 15.8463 10.9726 15.7313 10.9816C15.6162 10.9906 15.5045 11.0242 15.4035 11.0802C15.3026 11.1361 15.2149 11.2131 15.1463 11.3059L9.30598 17.0978L9.30598 1.68755C9.30598 1.4739 9.22111 1.26901 9.07004 1.11794C8.91897 0.966864 8.71407 0.881992 8.50043 0.881992C8.28678 0.881992 8.08188 0.966864 7.93081 1.11794C7.77974 1.26901 7.69487 1.4739 7.69487 1.68755L7.69487 17.0978L1.85459 11.3059C1.7029 11.1553 1.49759 11.0711 1.28383 11.0718C1.07006 11.0726 0.865352 11.1582 0.714731 11.3099C0.56411 11.4616 0.479918 11.6669 0.480673 11.8807C0.481428 12.0944 0.56707 12.2991 0.71876 12.4498V12.4256Z" fill="white"/>
</svg>
