<svg  viewBox="0 0 22 25" fill="none" xmlns="http://www.w3.org/2000/svg">
<path d="M1 8.5942H0V9.5942H1V8.5942ZM21 8.5942V9.5942H22V8.5942H21ZM7.33333 1C7.33333 0.447715 6.88562 0 6.33333 0C5.78105 0 5.33333 0.447715 5.33333 1H7.33333ZM17 1C17 0.447715 16.5523 0 16 0C15.4477 0 15 0.447715 15 1H17ZM4.33333 5H17.6667V3H4.33333V5ZM20 7.33333V20.6667H22V7.33333H20ZM17.6667 23H4.33333V25H17.6667V23ZM2 20.6667V7.33333H0V20.6667H2ZM4.33333 23C3.04467 23 2 21.9553 2 20.6667H0C0 23.0599 1.9401 25 4.33333 25V23ZM20 20.6667C20 21.9553 18.9553 23 17.6667 23V25C20.0599 25 22 23.0599 22 20.6667H20ZM17.6667 5C18.9553 5 20 6.04467 20 7.33333H22C22 4.9401 20.0599 3 17.6667 3V5ZM4.33333 3C1.9401 3 0 4.9401 0 7.33333H2C2 6.04467 3.04467 5 4.33333 5V3ZM20 7.33333V8.05797H22V7.33333H20ZM21 7.05797H1V9.05797H21V7.05797ZM2 8.05797V7.33333H0V8.05797H2ZM1 9.5942H21V7.5942H1V9.5942ZM0 8.05797V8.5942H2V8.05797H0ZM22 8.5942V8.05797H20V8.5942H22ZM5.33333 1V4H7.33333V1H5.33333ZM15 1V4H17V1H15Z" fill="#F79236"/>
</svg>
