<svg viewBox="0 0 16 15" fill="none" xmlns="http://www.w3.org/2000/svg">
<path d="M2.7072 15C2.03003 15 1.37988 14.7281 0.86171 14.225C-0.287193 13.1069 -0.287192 11.2884 0.861445 10.171L9.82004 0.942882C11.2178 -0.415163 13.3588 -0.293135 14.9213 1.22447C15.6215 1.90482 16.0143 2.88564 15.9996 3.91659C15.9849 4.93665 15.574 5.91286 14.8719 6.59515L8.10129 13.5871C7.91284 13.7829 7.59685 13.7919 7.39569 13.6081C7.19501 13.4241 7.18528 13.1171 7.37447 12.922L14.1553 5.91939C14.6857 5.40392 14.99 4.67271 15.0012 3.90301C15.0124 3.13285 14.7256 2.40672 14.2155 1.91062C13.257 0.978943 11.6965 0.491073 10.5364 1.6191L1.57801 10.8472C0.80775 11.5963 0.808 12.7994 1.56803 13.5386C1.92444 13.8846 2.34751 14.0531 2.79803 14.0267C3.24382 14.0003 3.70208 13.7785 4.08846 13.4028L11.2165 6.04331C11.4748 5.79224 11.994 5.17677 11.4656 4.66299C11.1663 4.37221 10.9562 4.39013 10.887 4.39569C10.6896 4.41264 10.459 4.54508 10.2196 4.778L4.85448 10.3131C4.66503 10.5085 4.34879 10.5179 4.14885 10.3337C3.94792 10.1501 3.93868 9.84264 4.12763 9.64798L9.50252 4.10249C9.92509 3.69064 10.3571 3.46741 10.7969 3.42916C11.1401 3.3996 11.6506 3.47056 12.1712 3.97707C12.944 4.72811 12.8479 5.82976 11.9329 6.71931L4.80482 14.0783C4.23574 14.6322 3.54858 14.954 2.85919 14.9951C2.80852 14.9985 2.75786 15 2.7072 15Z" fill="#979DA0"/>
</svg>
