<svg viewBox="0 0 29 29" fill="none" xmlns="http://www.w3.org/2000/svg">
  <path
    fill-rule="evenodd"
    clip-rule="evenodd"
    d="M25.4646 0.43934C26.0504 -0.146447 27.0001 -0.146447 27.5859 0.43934C28.1717 1.02513 28.1717 1.97487 27.5859 2.56066L16.1348 14.0117L27.5877 25.4646C28.1735 26.0504 28.1735 27.0001 27.5877 27.5859C27.0019 28.1717 26.0522 28.1717 25.4664 27.5859L14.0135 16.133L2.56066 27.5859C1.97487 28.1717 1.02513 28.1717 0.439341 27.5859C-0.146446 27.0001 -0.146446 26.0504 0.439341 25.4646L11.8922 14.0117L0.441143 2.56066C-0.144643 1.97487 -0.144643 1.02513 0.441143 0.43934C1.02693 -0.146447 1.97668 -0.146447 2.56246 0.43934L14.0135 11.8904L25.4646 0.43934Z"
    fill="#979DA0"
  />
</svg>
