<svg width="14" height="13" viewBox="0 0 14 13" fill="none" xmlns="http://www.w3.org/2000/svg">
<path d="M13.6933 0.449267C13.4722 0.283856 13.1589 0.329017 12.9935 0.550137L12.8138 0.79036C12.7476 0.878808 12.7657 1.00415 12.8541 1.07031L13.3346 1.42971C13.423 1.49588 13.5483 1.47781 13.6145 1.38937L13.7942 1.14914C13.9596 0.928022 13.9145 0.614677 13.6933 0.449267Z" fill="#979DA0"/>
<path d="M12.515 1.19077C12.5811 1.10232 12.7065 1.08426 12.7949 1.15042L13.2754 1.50983C13.3638 1.57599 13.3819 1.70133 13.3157 1.78978L7.35989 9.75148C7.30313 9.82735 7.23587 9.89478 7.16014 9.95172L6.66917 10.3209C6.42939 10.5012 6.10269 10.2568 6.20794 9.97588L6.42345 9.40064C6.4567 9.31191 6.50238 9.22835 6.55914 9.15247L12.515 1.19077Z" fill="#979DA0"/>
<path d="M2.04727 2.64976C1.99204 2.64976 1.94727 2.69454 1.94727 2.74976V11.5498C1.94727 11.605 1.99204 11.6498 2.04727 11.6498H10.8473C10.9025 11.6498 10.9473 11.605 10.9473 11.5498V6.44976C10.9473 6.17362 11.1711 5.94976 11.4473 5.94976C11.7234 5.94976 11.9473 6.17362 11.9473 6.44976V11.5498C11.9473 12.1573 11.4548 12.6498 10.8473 12.6498H2.04727C1.43975 12.6498 0.947266 12.1573 0.947266 11.5498V2.74976C0.947266 2.14225 1.43975 1.64976 2.04727 1.64976H10.4473C10.7234 1.64976 10.9473 1.87362 10.9473 2.14976C10.9473 2.42591 10.7234 2.64976 10.4473 2.64976H2.04727Z" fill="#979DA0"/>
</svg>
