<svg viewBox="0 0 51 50" fill="none" xmlns="http://www.w3.org/2000/svg">
<path fill-rule="evenodd" clip-rule="evenodd" d="M47.6894 50.0085C49.9192 50.0085 51.3697 47.6623 50.3731 45.6677L28.3862 1.6592C27.2809 -0.553067 24.1241 -0.553068 23.0188 1.6592L1.03183 45.6677C0.0352935 47.6623 1.4858 50.0085 3.71554 50.0085H47.6894ZM25.7023 10.2559C23.8063 10.2559 22.2938 11.8384 22.3796 13.7325L23.2336 32.5929C23.2934 33.9129 24.381 34.9523 25.7023 34.9523C27.0237 34.9523 28.1113 33.9129 28.171 32.5929L29.0251 13.7325C29.1108 11.8384 27.5984 10.2559 25.7023 10.2559ZM23.0184 45.7571C23.7699 46.4431 24.6645 46.7861 25.7023 46.7861C26.7401 46.7861 27.6169 46.4431 28.3326 45.7571C29.0841 45.0367 29.4598 44.1792 29.4598 43.1845C29.4598 42.1555 29.0841 41.298 28.3326 40.6119C27.6169 39.9259 26.7401 39.5829 25.7023 39.5829C24.6645 39.5829 23.7699 39.9259 23.0184 40.6119C22.3027 41.298 21.9448 42.1555 21.9448 43.1845C21.9448 44.1792 22.3027 45.0367 23.0184 45.7571Z" fill="#EB4242"/>
</svg>
