<svg viewBox="0 0 39 39" fill="none" xmlns="http://www.w3.org/2000/svg">
<circle cx="19.5" cy="19.5" r="19.5" fill="#F79236"/>
<path d="M26.5004 30H12.5004C11.3384 30 10.4004 29.0788 10.4004 27.9375V10.0625C10.4004 8.92125 11.3384 8 12.5004 8H22.4264C22.9864 8 23.5184 8.22 23.9104 8.605L27.9844 12.6062C28.3764 12.9913 28.6004 13.5137 28.6004 14.0637V27.9375C28.6004 29.0788 27.6624 30 26.5004 30ZM12.5004 9.375C12.1084 9.375 11.8004 9.6775 11.8004 10.0625V27.9375C11.8004 28.3225 12.1084 28.625 12.5004 28.625H26.5004C26.8924 28.625 27.2004 28.3225 27.2004 27.9375V14.0637C27.2015 13.9736 27.1834 13.8842 27.1472 13.8013C27.1111 13.7184 27.0576 13.6439 26.9904 13.5825L22.9164 9.58125C22.7871 9.45172 22.611 9.37758 22.4264 9.375H12.5004Z" fill="white"/>
<path d="M27.7328 14.875H23.6588C22.5248 14.875 21.6008 13.9675 21.6008 12.8538V8.85254C21.6008 8.46754 21.9088 8.16504 22.3008 8.16504C22.6928 8.16504 23.0008 8.46754 23.0008 8.85254V12.8538C23.0008 13.2113 23.2948 13.5 23.6588 13.5H27.7328C28.1248 13.5 28.4328 13.8025 28.4328 14.1875C28.4328 14.5725 28.1248 14.875 27.7328 14.875ZM23.0008 25.875H16.0008C15.6088 25.875 15.3008 25.5725 15.3008 25.1875C15.3008 24.8025 15.6088 24.5 16.0008 24.5H23.0008C23.3928 24.5 23.7008 24.8025 23.7008 25.1875C23.7008 25.5725 23.3928 25.875 23.0008 25.875ZM23.0008 21.75H16.0008C15.6088 21.75 15.3008 21.4475 15.3008 21.0625C15.3008 20.6775 15.6088 20.375 16.0008 20.375H23.0008C23.3928 20.375 23.7008 20.6775 23.7008 21.0625C23.7008 21.4475 23.3928 21.75 23.0008 21.75ZM18.8008 17.625H16.0008C15.6088 17.625 15.3008 17.3225 15.3008 16.9375C15.3008 16.5525 15.6088 16.25 16.0008 16.25H18.8008C19.1928 16.25 19.5008 16.5525 19.5008 16.9375C19.5008 17.3225 19.1928 17.625 18.8008 17.625Z" fill="white"/>
</svg>
