<svg width="24" height="23" viewBox="0 0 24 23" fill="none" xmlns="http://www.w3.org/2000/svg">
<path d="M4.06079 23C3.04505 23 2.06982 22.5832 1.29256 21.8117C-0.430789 20.0973 -0.430789 17.3088 1.29217 15.5955L14.7301 1.44575C16.8267 -0.636582 20.0383 -0.449473 22.382 1.87752C23.4322 2.92072 24.0215 4.42465 23.9994 6.00543C23.9773 7.56953 23.3611 9.06638 22.3078 10.1126L12.1519 20.8335C11.8693 21.1338 11.3953 21.1476 11.0935 20.8658C10.7925 20.5837 10.7779 20.1129 11.0617 19.8137L21.233 9.0764C22.0286 8.28601 22.485 7.16482 22.5018 5.98462C22.5186 4.8037 22.0885 3.6903 21.3232 2.92961C19.8855 1.50105 17.5447 0.752979 15.8045 2.48263L2.36702 16.6324C1.21162 17.781 1.212 19.6258 2.35204 20.7592C2.88666 21.2897 3.52126 21.5481 4.19705 21.5076C4.86573 21.4671 5.55312 21.1271 6.13269 20.5509L16.8247 9.26641C17.2122 8.88143 17.991 7.93771 17.1984 7.14992C16.7495 6.70405 16.4342 6.73152 16.3305 6.74006C16.0344 6.76605 15.6884 6.96912 15.3294 7.32627L7.28172 15.8134C6.99755 16.113 6.52318 16.1275 6.22327 15.8449C5.92188 15.5635 5.90803 15.092 6.19144 14.7936L14.2538 6.29048C14.8876 5.65899 15.5357 5.3167 16.1954 5.25804C16.7102 5.21272 17.4758 5.32152 18.2568 6.09817C19.416 7.24977 19.2718 8.93897 17.8993 10.3029L7.20723 21.5867C6.35361 22.4361 5.32287 22.9295 4.28878 22.9925C4.21278 22.9977 4.1368 23 4.06079 23Z" fill="#979DA0"/>
</svg>
