<svg width="30" height="29" viewBox="0 0 30 29" fill="none" xmlns="http://www.w3.org/2000/svg">
<path d="M5.10638 9.10723C4.5776 9.10723 4.14894 9.53589 4.14894 10.0647C4.14894 10.5935 4.5776 11.0221 5.10638 11.0221H8.93617C9.46495 11.0221 9.89362 10.5935 9.89362 10.0647C9.89362 9.53589 9.46495 9.10723 8.93617 9.10723H5.10638Z" fill="white"/>
<path d="M4.14894 15.4902C4.14894 14.9614 4.5776 14.5328 5.10638 14.5328H10.8511C11.3798 14.5328 11.8085 14.9614 11.8085 15.4902C11.8085 16.019 11.3798 16.4477 10.8511 16.4477H5.10638C4.5776 16.4477 4.14894 16.019 4.14894 15.4902Z" fill="white"/>
<path fill-rule="evenodd" clip-rule="evenodd" d="M12.5523 27.0161C13.1195 27.3681 13.6241 27.6813 14.0426 27.9048V27.937H14.1034C14.4838 28.1362 14.789 28.2562 15 28.2562C15.21 28.2562 15.533 28.1362 15.9403 27.937H15.9574V27.9286C16.4656 27.6788 17.1028 27.3079 17.8139 26.894C19.1633 26.1088 20.7791 25.1684 22.2857 24.6051C24.3701 23.8258 27.3834 23.1621 28.9558 22.8426C29.5605 22.7198 30 22.1906 30 21.5736V1.70053C30 0.904108 29.2808 0.305109 28.5013 0.468298C26.8521 0.813548 24.1838 1.42734 22.2857 2.13701C20.7791 2.70033 19.1633 3.64068 17.8139 4.42596C16.5215 5.17816 15.4735 5.78808 15 5.78808C14.5505 5.78808 13.6735 5.24381 12.552 4.5478C11.2591 3.74543 9.64126 2.74139 7.97872 2.13701C6.13917 1.46828 3.25295 0.826028 1.50254 0.466518C0.721528 0.306108 0 0.90591 0 1.70323V21.5755C0 22.1917 0.439277 22.7204 1.04344 22.8414C2.70449 23.1743 5.96729 23.8739 7.97872 24.6051C9.64126 25.2095 11.2594 26.2137 12.5523 27.0161ZM13.8413 7.45729C13.8999 7.48056 13.9674 7.50618 14.0426 7.53182V25.6863C13.8945 25.5952 13.7365 25.4972 13.5674 25.3923L13.2988 25.2258C12.0625 24.4603 10.3946 23.4458 8.63295 22.8054C6.66395 22.0896 3.67741 21.4267 1.91489 21.0644V2.50964C3.6341 2.87817 5.87261 3.40888 7.3245 3.93668C8.66752 4.42491 10.0264 5.23598 11.2826 6.01384C11.3666 6.06581 11.4509 6.11816 11.5353 6.17056C12.0482 6.48902 12.5639 6.80916 13.0069 7.05335C13.2688 7.19767 13.5549 7.34361 13.8413 7.45729Z" fill="white"/>
</svg>
