<svg  viewBox="0 0 17 17" fill="none" xmlns="http://www.w3.org/2000/svg">
<path d="M16.4173 8.50016C16.4173 10.5998 15.5832 12.6134 14.0986 14.0981C12.6139 15.5828 10.6003 16.4168 8.50065 16.4168C6.40102 16.4168 4.38739 15.5828 2.90272 14.0981C1.41806 12.6134 0.583984 10.5998 0.583984 8.50016C0.583984 6.40053 1.41806 4.3869 2.90272 2.90223C4.38739 1.41757 6.40102 0.583496 8.50065 0.583496C10.6003 0.583496 12.6139 1.41757 14.0986 2.90223C15.5832 4.3869 16.4173 6.40053 16.4173 8.50016ZM7.70898 9.29183V11.6668C7.70898 11.8768 7.79239 12.0782 7.94086 12.2266C8.08932 12.3751 8.29069 12.4585 8.50065 12.4585C8.71061 12.4585 8.91198 12.3751 9.06044 12.2266C9.20891 12.0782 9.29232 11.8768 9.29232 11.6668V9.29183C9.29232 9.08187 9.20891 8.8805 9.06044 8.73204C8.91198 8.58357 8.71061 8.50016 8.50065 8.50016C8.29069 8.50016 8.08932 8.58357 7.94086 8.73204C7.79239 8.8805 7.70898 9.08187 7.70898 9.29183ZM8.50065 4.93766C8.18571 4.93766 7.88366 5.06277 7.66096 5.28547C7.43826 5.50817 7.31315 5.81022 7.31315 6.12516C7.31315 6.44011 7.43826 6.74215 7.66096 6.96485C7.88366 7.18755 8.18571 7.31266 8.50065 7.31266C8.8156 7.31266 9.11764 7.18755 9.34034 6.96485C9.56304 6.74215 9.68815 6.44011 9.68815 6.12516C9.68815 5.81022 9.56304 5.50817 9.34034 5.28547C9.11764 5.06277 8.8156 4.93766 8.50065 4.93766Z" fill="#F79236"/>
</svg>
