<svg viewBox="0 0 15 16" fill="none" xmlns="http://www.w3.org/2000/svg">
<path d="M15 8C15 12.1421 11.6421 15.5 7.5 15.5C3.35786 15.5 0 12.1421 0 8C0 3.85786 3.35786 0.5 7.5 0.5C11.6421 0.5 15 3.85786 15 8Z" fill="#979DA0"/>
<path d="M7.5 5.5C8.19036 5.5 8.75 4.94036 8.75 4.25C8.75 3.55964 8.19036 3 7.5 3C6.80964 3 6.25 3.55964 6.25 4.25C6.25 4.94036 6.80964 5.5 7.5 5.5Z" fill="white"/>
<path d="M8.75 7.375C8.75 6.68464 8.19036 6.125 7.5 6.125C6.80964 6.125 6.25 6.68464 6.25 7.375V11.75C6.25 12.4404 6.80964 13 7.5 13C8.19036 13 8.75 12.4404 8.75 11.75V7.375Z" fill="white"/>
</svg>
