<svg width="22" height="25" viewBox="0 0 22 25" fill="none" xmlns="http://www.w3.org/2000/svg">
<path fill-rule="evenodd" clip-rule="evenodd" d="M7.36724 8.69565H14.9154C14.9282 8.51938 14.9348 8.33822 14.9348 8.15217C14.9348 4.77133 12.7475 3 11.1413 3C9.53514 3 7.34783 4.77133 7.34783 8.15217C7.34783 8.33822 7.35445 8.51938 7.36724 8.69565ZM4.36268 8.69565H3C1.34315 8.69565 0 10.0388 0 11.6957V22C0 23.6569 1.34314 25 3 25H18.7391C20.396 25 21.7391 23.6569 21.7391 22V11.6957C21.7391 10.0388 20.396 8.69565 18.7391 8.69565H17.9199C17.9298 8.51602 17.9348 8.3348 17.9348 8.15217C17.9348 3.64985 14.8932 0 11.1413 0C7.38937 0 4.34783 3.64985 4.34783 8.15217C4.34783 8.3348 4.35283 8.51602 4.36268 8.69565Z" fill="white"/>
</svg>
