<svg width="161" height="152" viewBox="0 0 161 152" fill="none" xmlns="http://www.w3.org/2000/svg">
<path d="M19.187 126.694C-8.78184 95.6711 -5.82684 48.2729 25.7872 20.8271C41.0589 7.56885 60.7179 1.33282 79.6114 1.98587C79.7148 1.98944 79.7445 2.12802 79.652 2.17425L77.4356 3.28226C77.1471 3.42648 76.8837 3.61627 76.6557 3.84432L76.3442 4.15576C76.1162 4.38376 75.9265 4.64703 75.7823 4.93544L75.6473 5.20545C75.5494 5.40123 75.4732 5.60713 75.4201 5.81948L75.1883 6.74686C75.0775 7.19002 74.6798 7.50103 74.2231 7.50852C57.9774 7.77492 42.6816 13.5686 29.5338 24.9829C0.258774 50.3981 -2.4776 94.2896 23.422 123.017C49.3216 151.745 94.0494 154.43 123.325 129.015C129.435 123.71 134.389 117.601 138.168 110.992C136.336 108.699 136.622 105.373 138.875 103.417C141.214 101.387 144.787 101.601 146.856 103.897C148.926 106.192 148.707 109.698 146.368 111.729C145.52 112.465 144.509 112.907 143.467 113.06C139.341 120.445 133.869 127.269 127.071 133.171C95.4572 160.617 47.1558 157.717 19.187 126.694Z" fill="#F79236"/>
<path d="M54.5221 125.303C54.4804 125.64 54.4089 125.966 54.3104 126.279C59.1285 128.383 64.3431 129.827 69.8513 130.483C97.61 133.79 123.013 115.908 129.223 89.7835C129.331 89.3273 129.737 88.9989 130.206 88.9989H133.957C134.588 88.9989 135.061 89.5794 134.925 90.1954C128.424 119.506 100.123 139.678 69.1699 135.991C62.099 135.149 55.466 133.13 49.4499 130.159C49.0508 130.196 48.6417 130.192 48.2274 130.143C45.1273 129.774 42.9193 127.008 43.2956 123.966C43.6719 120.924 46.4901 118.757 49.5902 119.126C52.6903 119.496 54.8984 122.261 54.5221 125.303Z" fill="#F79236"/>
<path d="M22.5236 71.2075C21.8091 76.9838 22.0655 82.6563 23.1671 88.0672C23.379 88.069 23.5929 88.0824 23.8082 88.108C26.9083 88.4773 29.1164 91.2428 28.7401 94.285C28.3638 97.3271 25.5455 99.4939 22.4454 99.1246C19.3453 98.7553 17.1372 95.9898 17.5136 92.9477C17.5935 92.3018 17.7834 91.6955 18.0627 91.1444C16.4811 84.577 16.0333 77.6288 16.9104 70.5388C20.4812 41.6724 44.801 20.2441 73.4345 18.8902C73.998 18.8635 74.4669 19.3167 74.4669 19.8809V23.4356C74.4669 23.9748 74.0371 24.416 73.4986 24.4436C47.6606 25.7664 25.7485 45.1375 22.5236 71.2075Z" fill="#F79236"/>
<path d="M73.5407 40.6989C70.459 40.9986 67.3648 41.6715 64.3178 42.7453C44.3525 49.7816 33.9802 71.3681 41.1506 90.96C48.321 110.552 70.3188 120.73 90.2841 113.694C101.969 109.576 110.368 100.474 113.887 89.705C114.024 89.2869 114.411 88.9989 114.851 88.9989H118.683C119.338 88.9989 119.817 89.6196 119.631 90.2483C115.826 103.101 106.013 114.046 92.1953 118.916C69.291 126.988 44.0549 115.312 35.829 92.8355C27.603 70.3595 39.5022 45.5953 62.4066 37.5232C66.0395 36.2428 69.7311 35.4593 73.4042 35.137C73.9793 35.0865 74.4669 35.5449 74.4669 36.1222V39.6905C74.4669 40.2145 74.0622 40.6482 73.5407 40.6989Z" fill="#F79236"/>
<path fill-rule="evenodd" clip-rule="evenodd" d="M121 0C121.713 0 122.396 0.283147 122.9 0.787151C123.404 1.29116 123.688 1.97473 123.688 2.6875V10.75C123.688 11.4628 123.971 12.1463 124.475 12.6503C124.979 13.1544 125.662 13.4375 126.375 13.4375C127.088 13.4375 127.771 13.1544 128.275 12.6503C128.779 12.1463 129.062 11.4628 129.062 10.75V5.375H131.75C133.888 5.375 135.939 6.22444 137.451 7.73645C138.963 9.24846 139.812 11.2992 139.812 13.4375V77.9375C139.812 80.0758 138.963 82.1265 137.451 83.6385C135.939 85.1506 133.888 86 131.75 86H86.0625C83.9242 86 81.8735 85.1506 80.3615 83.6385C78.8494 82.1265 78 80.0758 78 77.9375V13.4375C78 11.2992 78.8494 9.24846 80.3615 7.73645C81.8735 6.22444 83.9242 5.375 86.0625 5.375H91.4375V2.6875C91.4375 1.97473 91.7206 1.29116 92.2247 0.787151C92.7287 0.283147 93.4122 0 94.125 0C94.8378 0 95.5213 0.283147 96.0254 0.787151C96.5294 1.29116 96.8125 1.97473 96.8125 2.6875V10.75C96.8125 11.4628 97.0956 12.1463 97.5996 12.6503C98.1037 13.1544 98.7872 13.4375 99.5 13.4375C100.213 13.4375 100.896 13.1544 101.4 12.6503C101.904 12.1463 102.188 11.4628 102.188 10.75V5.375H118.312V2.6875C118.312 1.97473 118.596 1.29116 119.1 0.787151C119.604 0.283147 120.287 0 121 0ZM91.4375 32.25C90.7247 32.25 90.0412 32.5331 89.5372 33.0371C89.0331 33.5412 88.75 34.2247 88.75 34.9375C88.75 35.6503 89.0331 36.3338 89.5372 36.8379C90.0412 37.3419 90.7247 37.625 91.4375 37.625H126.375C127.088 37.625 127.771 37.3419 128.275 36.8379C128.779 36.3338 129.062 35.6503 129.062 34.9375C129.062 34.2247 128.779 33.5412 128.275 33.0371C127.771 32.5331 127.088 32.25 126.375 32.25H91.4375ZM88.75 48.375C88.75 47.6622 89.0331 46.9787 89.5372 46.4746C90.0412 45.9706 90.7247 45.6875 91.4375 45.6875H110.25C110.963 45.6875 111.646 45.9706 112.15 46.4746C112.654 46.9787 112.938 47.6622 112.938 48.375C112.938 49.0878 112.654 49.7713 112.15 50.2754C111.646 50.7794 110.963 51.0625 110.25 51.0625H91.4375C90.7247 51.0625 90.0412 50.7794 89.5372 50.2754C89.0331 49.7713 88.75 49.0878 88.75 48.375ZM91.4375 59.125C90.7247 59.125 90.0412 59.4081 89.5372 59.9121C89.0331 60.4162 88.75 61.0997 88.75 61.8125C88.75 62.5253 89.0331 63.2088 89.5372 63.7129C90.0412 64.2169 90.7247 64.5 91.4375 64.5H121C121.713 64.5 122.396 64.2169 122.9 63.7129C123.404 63.2088 123.688 62.5253 123.688 61.8125C123.688 61.0997 123.404 60.4162 122.9 59.9121C122.396 59.4081 121.713 59.125 121 59.125H91.4375Z" fill="#F79236"/>
<path d="M147.343 13.3431C145.843 14.8434 145 16.8783 145 19V26C145 26.5523 145.448 27 146 27H160C160.552 27 161 26.5523 161 26V19C161 16.8783 160.157 14.8434 158.657 13.3431C157.157 11.8429 155.122 11 153 11C150.878 11 148.843 11.8429 147.343 13.3431Z" fill="#F79236"/>
<path d="M145 33.3333V72C145 72.2164 145.07 72.4269 145.2 72.6L152.2 81.9333C152.6 82.4667 153.4 82.4667 153.8 81.9333L160.8 72.6C160.93 72.4269 161 72.2164 161 72V33.3333C161 32.7811 160.552 32.3333 160 32.3333H146C145.448 32.3333 145 32.7811 145 33.3333Z" fill="#F79236"/>
</svg>
