<svg width="630" height="232" viewBox="0 0 630 232" fill="none" xmlns="http://www.w3.org/2000/svg">
<path d="M122.992 174.906H6.93565V151.434L119.732 1.79998H153.636V148.174H182.976V174.906H153.636V230H122.992V174.906ZM122.992 148.174V37.66L39.5357 148.174H122.992Z" fill="#F79236"/>
<path d="M414.561 74.2131C414.123 74.4732 413.703 74.7754 413.305 75.1201C409.747 78.2093 409.414 83.5443 412.562 87.0361C415.711 90.528 421.147 90.8543 424.706 87.7651C428.264 84.6759 428.597 79.341 425.448 75.8491C425.011 75.3644 424.53 74.9406 424.016 74.5785C419.173 62.4083 412.102 50.8535 402.766 40.4981C360.215 -6.699 286.731 -11.1106 238.635 30.6446C190.538 72.3998 186.043 144.51 228.593 191.707C271.144 238.904 344.628 243.316 392.725 201.561C403.067 192.582 411.393 182.201 417.668 170.965C419.254 170.731 420.792 170.06 422.083 168.94C425.641 165.851 425.973 160.516 422.825 157.024C419.677 153.532 414.241 153.206 410.682 156.295C407.255 159.271 406.82 164.33 409.607 167.819C403.858 177.873 396.321 187.168 387.025 195.238C342.487 233.904 274.439 229.819 235.036 186.113C195.634 142.408 199.797 75.6331 244.335 36.9671C288.873 -1.69886 356.92 2.38633 396.323 46.0916C404.085 54.7007 410.156 64.2049 414.561 74.2131Z" stroke="#F79236" stroke-width="2.44505"/>
<path d="M282.351 189.591C282.288 190.104 282.179 190.599 282.029 191.076C289.359 194.276 297.293 196.473 305.672 197.472C350.932 202.863 392.077 171.229 397.571 126.815C403.065 82.4016 370.828 42.0267 325.568 36.6354C280.308 31.2441 239.164 62.878 233.67 107.292C232.583 116.08 232.973 124.71 234.649 132.942C234.971 132.944 235.296 132.965 235.624 133.004C240.34 133.565 243.7 137.773 243.127 142.401C242.555 147.029 238.267 150.326 233.551 149.764C228.834 149.202 225.475 144.995 226.048 140.367C226.169 139.384 226.458 138.461 226.883 137.623C224.477 127.632 223.796 117.061 225.13 106.274C231.196 57.2325 276.628 22.3021 326.605 28.2552C376.581 34.2083 412.177 78.7906 406.111 127.832C400.044 176.874 354.612 211.805 304.636 205.852C293.878 204.57 283.787 201.499 274.634 196.979C274.027 197.036 273.405 197.029 272.775 196.954C268.058 196.392 264.699 192.185 265.271 187.557C265.844 182.929 270.131 179.632 274.848 180.194C279.564 180.756 282.924 184.963 282.351 189.591Z" stroke="#F79236" stroke-width="2.44505"/>
<path d="M313.046 62.0124C312.894 61.5969 312.778 61.1774 312.694 60.757C307.541 61.1339 302.354 62.1929 297.254 63.9903C266.879 74.6951 251.099 107.536 262.008 137.343C272.917 167.149 306.384 182.634 336.758 171.929C367.133 161.225 382.913 128.384 372.004 98.5771C369.983 93.056 367.189 88.0262 363.783 83.5633C363.556 83.666 363.323 83.7598 363.083 83.8443C358.611 85.4202 353.685 83.1406 352.079 78.7528C350.473 74.365 352.796 69.5305 357.267 67.9547C361.739 66.3789 366.665 68.6584 368.271 73.0462C368.645 74.0672 368.806 75.1125 368.777 76.1352C373.547 81.8206 377.418 88.3948 380.1 95.7237C392.615 129.918 374.512 167.593 339.666 179.874C304.82 192.155 266.427 174.39 253.912 140.196C241.397 106.002 259.5 68.3262 294.346 56.0455C301.609 53.4858 309.026 52.2314 316.331 52.159C316.911 51.776 317.547 51.4566 318.235 51.2143C322.706 49.6385 327.633 51.918 329.239 56.3058C330.845 60.6936 328.522 65.5281 324.05 67.1039C319.579 68.6798 314.652 66.4002 313.046 62.0124Z" stroke="#F79236" stroke-width="2.44505"/>
<path d="M550.197 174.906H434.141V151.434L546.937 1.79998H580.841V148.174H610.181V174.906H580.841V230H550.197V174.906ZM550.197 148.174V37.66L466.741 148.174H550.197Z" fill="#F79236"/>
</svg>
