<svg width="30" height="24" viewBox="0 0 30 24" fill="none" xmlns="http://www.w3.org/2000/svg">
<path d="M9.56896 13.1766C10.2831 13.1766 10.8621 12.5225 10.8621 11.7156C10.8621 10.9088 10.2831 10.2547 9.56896 10.2547C8.8548 10.2547 8.27586 10.9088 8.27586 11.7156C8.27586 12.5225 8.8548 13.1766 9.56896 13.1766Z" fill="white"/>
<path d="M16.0345 11.7156C16.0345 12.5225 15.4555 13.1766 14.7414 13.1766C14.0272 13.1766 13.4483 12.5225 13.4483 11.7156C13.4483 10.9088 14.0272 10.2547 14.7414 10.2547C15.4555 10.2547 16.0345 10.9088 16.0345 11.7156Z" fill="white"/>
<path d="M19.9138 13.1766C20.628 13.1766 21.2069 12.5225 21.2069 11.7156C21.2069 10.9088 20.628 10.2547 19.9138 10.2547C19.1996 10.2547 18.6207 10.9088 18.6207 11.7156C18.6207 12.5225 19.1996 13.1766 19.9138 13.1766Z" fill="white"/>
<path fill-rule="evenodd" clip-rule="evenodd" d="M15 22.5266C23.2844 22.5266 30 17.5557 30 11.4234C30 5.29121 23.2844 0.320312 15 0.320312C6.71555 0.320312 0 5.29121 0 11.4234C0 13.7715 0.984435 15.949 2.66453 17.7426C2.78469 17.8709 2.84781 18.0542 2.83065 18.24L2.42107 22.6744C2.37975 23.1218 2.7826 23.452 3.14623 23.2687L7.34176 21.1543C7.46612 21.0917 7.6072 21.0873 7.73518 21.1398C9.8876 22.0235 12.3642 22.5266 15 22.5266ZM28.4483 11.4234C28.4483 13.7067 27.1971 16.0015 24.7563 17.8082C22.3289 19.6049 18.884 20.7734 15 20.7734C12.536 20.7734 10.2395 20.3027 8.26517 19.4921C7.76804 19.288 7.20995 19.3011 6.70962 19.5533L4.15037 20.843L4.374 18.4219C4.44338 17.6707 4.18679 16.9558 3.73028 16.4684C2.28307 14.9234 1.55172 13.1811 1.55172 11.4234C1.55172 9.1402 2.80291 6.84541 5.24372 5.03871C7.67108 3.24195 11.116 2.07344 15 2.07344C18.884 2.07344 22.3289 3.24195 24.7563 5.03871C27.1971 6.84541 28.4483 9.1402 28.4483 11.4234Z" fill="white"/>
</svg>
