<svg  viewBox="0 0 86 66" fill="none" xmlns="http://www.w3.org/2000/svg">
<path d="M23.0968 31.0314C24.8206 31.0314 26.218 29.4526 26.218 27.5051C26.218 25.5576 24.8206 23.9788 23.0968 23.9788C21.373 23.9788 19.9756 25.5576 19.9756 27.5051C19.9756 29.4526 21.373 31.0314 23.0968 31.0314Z" fill="#182330"/>
<path d="M38.7028 27.5051C38.7028 29.4526 37.3054 31.0314 35.5816 31.0314C33.8578 31.0314 32.4604 29.4526 32.4604 27.5051C32.4604 25.5576 33.8578 23.9788 35.5816 23.9788C37.3054 23.9788 38.7028 25.5576 38.7028 27.5051Z" fill="#182330"/>
<path d="M48.0663 31.0314C49.7901 31.0314 51.1875 29.4526 51.1875 27.5051C51.1875 25.5576 49.7901 23.9788 48.0663 23.9788C46.3425 23.9788 44.9451 25.5576 44.9451 27.5051C44.9451 29.4526 46.3425 31.0314 48.0663 31.0314Z" fill="#182330"/>
<path fill-rule="evenodd" clip-rule="evenodd" d="M36.2058 53.5997C56.2022 53.5997 72.4116 41.6013 72.4116 26.7998C72.4116 11.9984 56.2022 0 36.2058 0C16.2095 0 0 11.9984 0 26.7998C0 32.4674 2.37615 37.7232 6.43142 42.0526C6.72146 42.3622 6.87382 42.8046 6.83241 43.253L5.84379 53.9565C5.74404 55.0364 6.71643 55.8334 7.59412 55.3911L17.721 50.2875C18.0211 50.1362 18.3617 50.1256 18.6706 50.2525C23.8659 52.3855 29.8437 53.5997 36.2058 53.5997ZM68.6662 26.7998C68.6662 32.3109 65.6462 37.8499 59.7548 42.2108C53.8958 46.5477 45.5807 49.3681 36.2058 49.3681C30.2583 49.3681 24.7152 48.2319 19.9498 46.2754C18.7499 45.7827 17.4028 45.8144 16.1951 46.423L10.0178 49.5361L10.5576 43.6922C10.7251 41.879 10.1057 40.1533 9.00385 38.9769C5.5107 35.2477 3.74543 31.0423 3.74543 26.7998C3.74543 21.2888 6.76545 15.7498 12.6569 11.3889C18.5159 7.05203 26.831 4.23155 36.2058 4.23155C45.5807 4.23155 53.8958 7.05203 59.7548 11.3889C65.6462 15.7498 68.6662 21.2888 68.6662 26.7998Z" fill="#182330"/>
<path d="M49.7388 59.1342C55.6863 59.1342 61.2294 57.998 65.9948 56.0414C67.1947 55.5488 68.5418 55.5804 69.7495 56.189L75.9268 59.3022L75.387 53.4583C75.2195 51.645 75.8389 49.9194 76.9408 48.743C80.4339 45.0137 82.1992 40.8083 82.1992 36.5659C82.1992 33.5517 81.2957 30.529 79.5132 27.6954C77.8258 25.0131 80.5325 22.7665 82.0325 24.7661C84.6077 28.4497 85.9446 32.132 85.9446 36.5659C85.9446 42.2335 83.5685 47.4892 79.5132 51.8186C79.2232 52.1283 79.0708 52.5707 79.1122 53.0191L80.1008 63.7226C80.2006 64.8025 79.2282 65.5995 78.3505 65.1572L68.2237 60.0536C67.9235 59.9023 67.583 59.8917 67.274 60.0185C62.0787 62.1516 56.1009 63.3658 49.7388 63.3658C45.2678 63.3658 40.9993 62.5 38.4993 61.403C37.1766 60.8225 36.8336 60.0436 36.9521 59.3647C37.0899 58.5749 37.5284 58.2355 37.9993 58C39.0812 57.459 41.4993 58 41.4993 58C46.4993 59.1342 46.3421 59.1342 49.7388 59.1342Z" fill="#182330"/>
<path d="M9.51996 49.4902L9.43696 50.3888L10.2429 49.9826L16.4202 46.8695C17.4961 46.3272 18.6917 46.2993 19.7599 46.7379C24.5875 48.72 30.1953 49.8681 36.2058 49.8681C45.6769 49.8681 54.0988 47.0195 60.0522 42.6127C66.039 38.1813 69.1662 32.5055 69.1662 26.7998C69.1662 21.0942 66.039 15.4184 60.0522 10.987C54.0988 6.58024 45.6769 3.73155 36.2058 3.73155C26.7347 3.73155 18.3128 6.58025 12.3594 10.987C6.37267 15.4184 3.24543 21.0942 3.24543 26.7998C3.24543 31.189 5.07355 35.5124 8.63893 39.3188C9.64067 40.3882 10.2144 41.9717 10.0597 43.6462L9.51996 49.4902ZM75.7018 59.7487L76.5077 60.1549L76.4247 59.2562L75.8849 53.4123C75.7302 51.7378 76.3039 50.1543 77.3057 49.0848C80.8711 45.2784 82.6992 40.9551 82.6992 36.5659C82.6992 33.4491 81.7645 30.3351 79.9364 27.4292L79.5132 27.6954L79.9364 27.4292C79.1975 26.2546 79.4679 25.2874 79.9294 24.8303C80.1672 24.5948 80.4577 24.4837 80.7361 24.5019C81.0056 24.5196 81.3277 24.6628 81.6278 25.0598C84.1499 28.6699 85.4446 32.2522 85.4446 36.5659C85.4446 42.0863 83.1316 47.2242 79.1483 51.4768C78.7578 51.8937 78.5601 52.4783 78.6143 53.0651L79.6029 63.7686C79.6378 64.1462 79.4849 64.4522 79.2752 64.624C79.0708 64.7916 78.8189 64.8333 78.5755 64.7106L68.4487 59.6071C68.0169 59.3895 67.5249 59.375 67.0841 59.556C61.951 61.6635 56.0379 62.8658 49.7388 62.8658C45.3179 62.8658 41.1215 62.0076 38.7002 60.9451C38.0956 60.6798 37.7679 60.3918 37.6004 60.1422C37.4392 59.9019 37.4065 59.669 37.4446 59.4507C37.4992 59.1377 37.607 58.9414 37.7276 58.803C37.853 58.6592 38.016 58.5507 38.2229 58.4472C38.4071 58.3551 38.6847 58.2942 39.036 58.2707C39.3795 58.2477 39.7549 58.2626 40.1095 58.2951C40.4625 58.3273 40.7847 58.3759 41.0191 58.4166C41.136 58.4368 41.2302 58.455 41.2946 58.468C41.3268 58.4745 41.3514 58.4796 41.3677 58.4831L41.3856 58.4869L41.3887 58.4876L41.3896 58.4878L41.39 58.4879C41.6148 58.5389 41.8295 58.5877 42.0347 58.6343C44.0979 59.1031 45.2078 59.3553 46.1508 59.4876C47.1957 59.6342 48.0382 59.6342 49.7081 59.6342H49.7388C55.7493 59.6342 61.3571 58.486 66.1847 56.504C67.2529 56.0654 68.4485 56.0933 69.5244 56.6355L75.7018 59.7487ZM71.9116 26.7998C71.9116 34.0051 67.9674 40.5685 61.5099 45.3484C55.0524 50.1283 46.1078 53.0997 36.2058 53.0997C29.9067 53.0997 23.9936 51.8974 18.8605 49.7899C18.4197 49.609 17.9277 49.6234 17.4959 49.841L7.3691 54.9446C7.12575 55.0672 6.87384 55.0255 6.66936 54.8579C6.45971 54.6861 6.30679 54.3801 6.34167 54.0025L7.33029 43.299C7.38448 42.7122 7.18678 42.1276 6.79634 41.7108C2.81298 37.4581 0.5 32.3203 0.5 26.7998C0.5 19.5946 4.44421 13.0312 10.9018 8.25125C17.3592 3.47139 26.3038 0.5 36.2058 0.5C46.1078 0.5 55.0524 3.47139 61.5099 8.25125C67.9674 13.0312 71.9116 19.5946 71.9116 26.7998ZM25.718 27.5051C25.718 29.2356 24.4888 30.5314 23.0968 30.5314C21.7048 30.5314 20.4756 29.2356 20.4756 27.5051C20.4756 25.7746 21.7048 24.4788 23.0968 24.4788C24.4888 24.4788 25.718 25.7746 25.718 27.5051ZM38.2028 27.5051C38.2028 29.2356 36.9736 30.5314 35.5816 30.5314C34.1895 30.5314 32.9604 29.2356 32.9604 27.5051C32.9604 25.7746 34.1895 24.4788 35.5816 24.4788C36.9736 24.4788 38.2028 25.7746 38.2028 27.5051ZM50.6875 27.5051C50.6875 29.2356 49.4584 30.5314 48.0663 30.5314C46.6743 30.5314 45.4451 29.2356 45.4451 27.5051C45.4451 25.7746 46.6743 24.4788 48.0663 24.4788C49.4584 24.4788 50.6875 25.7746 50.6875 27.5051Z" stroke="#182330" stroke-opacity="0.76"/>
</svg>
