<svg width="140" height="140" viewBox="0 0 140 140" fill="none" xmlns="http://www.w3.org/2000/svg">
<path fill-rule="evenodd" clip-rule="evenodd" d="M50.6 42C48.5844 42 46.6513 42.8007 45.226 44.226C43.8007 45.6513 43 47.5844 43 49.6V87.6C43 89.6156 43.8007 91.5487 45.226 92.974C46.6513 94.3993 48.5844 95.2 50.6 95.2H62.95C63.7059 95.2 64.4308 94.8997 64.9653 94.3653C65.4997 93.8308 65.8 93.1059 65.8 92.35C65.8 91.5941 65.4997 90.8692 64.9653 90.3348C64.4308 89.8003 63.7059 89.5 62.95 89.5H50.6C50.0961 89.5 49.6128 89.2998 49.2565 88.9435C48.9002 88.5872 48.7 88.1039 48.7 87.6V49.6C48.7 49.0961 48.9002 48.6128 49.2565 48.2565C49.6128 47.9002 50.0961 47.7 50.6 47.7H73.4C73.9039 47.7 74.3872 47.9002 74.7435 48.2565C75.0998 48.6128 75.3 49.0961 75.3 49.6V69.55C75.3 70.3059 75.6003 71.0308 76.1348 71.5653C76.6692 72.0997 77.3941 72.4 78.15 72.4C78.9059 72.4 79.6308 72.0997 80.1653 71.5653C80.6997 71.0308 81 70.3059 81 69.55V54.7832L89.322 59.1152C89.4333 59.1726 89.5321 59.2514 89.6128 59.3471C89.6936 59.4428 89.7546 59.5535 89.7924 59.6729C89.8301 59.7922 89.844 59.9179 89.833 60.0426C89.8221 60.1673 89.7866 60.2886 89.7286 60.3996L85.655 68.2352C85.3342 68.9024 85.2855 69.6682 85.5194 70.3706C85.7533 71.073 86.2513 71.6569 86.908 71.9986C87.5648 72.3403 88.3287 72.413 89.0381 72.2014C89.7475 71.9898 90.3468 71.5104 90.709 70.8648L94.7864 63.0292C95.6002 61.4645 95.7591 59.6407 95.2282 57.9589C94.6972 56.2771 93.52 54.8751 91.9554 54.0612L80.8898 48.3004C80.5836 46.5362 79.6643 44.9367 78.2941 43.7841C76.9238 42.6314 75.1906 41.9996 73.4 42H50.6Z" fill="#F79236"/>
<path fill-rule="evenodd" clip-rule="evenodd" d="M82.3631 78.5C82.3631 77.6716 83.0347 77 83.8631 77C84.6916 77 85.3631 77.6716 85.3631 78.5V85.9631H92.8267C93.6551 85.9631 94.3267 86.6347 94.3267 87.4631C94.3267 88.2916 93.6551 88.9631 92.8267 88.9631H85.3631L85.3631 96.4267C85.3631 97.2551 84.6916 97.9267 83.8631 97.9267C83.0347 97.9267 82.3631 97.2551 82.3631 96.4267V88.9631H74.9C74.0716 88.9631 73.4 88.2916 73.4 87.4631C73.4 86.6347 74.0716 85.9631 74.9 85.9631H82.3631V78.5Z" fill="#F79236"/>
<rect x="1" y="1" width="138" height="138" rx="22.3333" stroke="#F79236" stroke-width="2"/>
</svg>
