<svg width="25" height="25" viewBox="0 0 25 25" fill="none" xmlns="http://www.w3.org/2000/svg">
<path fill-rule="evenodd" clip-rule="evenodd" d="M3.64661 14.3615V14.1334C3.68008 13.4585 3.89638 12.8046 4.27321 12.2391C4.90044 11.5598 5.32982 10.7273 5.51629 9.82906C5.51629 9.13482 5.51629 8.43065 5.57693 7.7364C5.89022 4.3941 9.195 2.08325 12.4594 2.08325H12.5402C15.8046 2.08325 19.1093 4.3941 19.4327 7.7364C19.4934 8.43065 19.4327 9.13482 19.4833 9.82906C19.6722 10.7294 20.1012 11.5644 20.7264 12.249C21.106 12.8095 21.3226 13.461 21.3529 14.1334V14.3516C21.3755 15.2583 21.0632 16.1424 20.4737 16.841C19.6947 17.6577 18.6375 18.1658 17.5024 18.2691C14.1739 18.6262 10.8156 18.6262 7.48703 18.2691C6.35319 18.1614 5.29758 17.654 4.51576 16.841C3.93534 16.1419 3.62725 15.263 3.64661 14.3615Z" stroke="white" stroke-width="1.875" stroke-linecap="round" stroke-linejoin="round"/>
<path d="M9.953 21.7206C10.4731 22.3734 11.2368 22.7958 12.0752 22.8945C12.9135 22.9931 13.7574 22.7598 14.42 22.2462C14.6238 22.0943 14.8072 21.9177 14.9658 21.7206" stroke="white" stroke-width="1.875" stroke-linecap="round" stroke-linejoin="round"/>
</svg>
