<svg width="25" height="29" viewBox="0 0 25 29" fill="none" xmlns="http://www.w3.org/2000/svg">
<path fill-rule="evenodd" clip-rule="evenodd" d="M1.16807 16.5015V16.2168C1.20983 15.3745 1.47977 14.5585 1.95005 13.8527C2.73284 13.0049 3.26871 11.966 3.50142 10.845C3.50142 9.97858 3.50142 9.09978 3.5771 8.23336C3.96809 4.06216 8.09245 1.17822 12.1664 1.17822H12.2673C16.3412 1.17822 20.4655 4.06216 20.8692 8.23336C20.9448 9.09978 20.8692 9.97858 20.9322 10.845C21.1681 11.9686 21.7034 13.0108 22.4836 13.8651C22.9574 14.5646 23.2278 15.3777 23.2656 16.2168V16.4891C23.2937 17.6207 22.904 18.7241 22.1683 19.5958C21.196 20.6151 19.8767 21.2493 18.4601 21.3782C14.3061 21.8238 10.1149 21.8238 5.9609 21.3782C4.54588 21.2437 3.22848 20.6105 2.25276 19.5958C1.52839 18.7234 1.14391 17.6266 1.16807 16.5015Z" stroke="#738086" stroke-width="1.875" stroke-linecap="round" stroke-linejoin="round"/>
<path d="M9.03833 25.6853C9.68739 26.5 10.6405 27.0272 11.6868 27.1503C12.7331 27.2735 13.7862 26.9823 14.6132 26.3413C14.8675 26.1517 15.0963 25.9313 15.2942 25.6853" stroke="#738086" stroke-width="1.875" stroke-linecap="round" stroke-linejoin="round"/>
</svg>
