<svg  viewBox="0 0 404 393" fill="none" xmlns="http://www.w3.org/2000/svg">
<g clip-path="url(#clip0_2342_7561)">
<path d="M321 106.298C306.183 84.4687 293.891 57.1472 269.932 43.6499C235.859 24.4547 203.113 50.5526 175.489 68.9818C161 78.6494 145.548 88.7187 128.021 91.5209C102.912 95.5374 77.4107 84.422 52.5078 91.2313C10.4794 102.711 -1.05603 153.767 13.0874 190.121C32.7181 240.561 76.6535 294.737 85.0667 335.836C93.4799 376.935 132.741 405.891 200.047 387.21C267.352 368.528 263.613 325.561 323.44 316.22C383.267 306.88 412.245 263.913 401.962 209.737C396.896 183.069 380.509 163.491 359.186 147.789C343.968 136.58 331.6 121.925 321.009 106.298H321Z" fill="#F79236"/>
<g opacity="0.7">
<path d="M321 106.298C306.183 84.4687 293.891 57.1472 269.932 43.6499C235.859 24.4547 203.113 50.5526 175.489 68.9818C161 78.6494 145.548 88.7187 128.021 91.5209C102.912 95.5374 77.4107 84.422 52.5078 91.2313C10.4794 102.711 -1.05603 153.767 13.0874 190.121C32.7181 240.561 76.6535 294.737 85.0667 335.836C93.4799 376.935 132.741 405.891 200.047 387.21C267.352 368.528 263.613 325.561 323.44 316.22C383.267 306.88 412.245 263.913 401.962 209.737C396.896 183.069 380.509 163.491 359.186 147.789C343.968 136.58 331.6 121.925 321.009 106.298H321Z" fill="white"/>
</g>
<path d="M83.58 20.8185C83.58 20.8185 88.5438 16.9047 89.8151 14.3921C90.8994 12.2531 91.6847 9.2267 90.5629 6.94757C89.4692 4.71515 86.7303 3.65031 84.5335 5.01405C81.4767 6.91021 81.1495 13.3926 81.9254 16.5031C81.9908 16.774 83.5333 20.8652 83.58 20.8185Z" fill="#F79236"/>
<path d="M37.7008 53.4462C37.9065 53.633 41.44 56.1923 41.468 56.1363C41.468 56.1363 43.4498 50.1396 43.1226 47.3374C42.8422 44.9555 41.8233 42.0038 39.6358 40.7148C37.4951 39.4538 34.616 40.0703 33.5316 42.4242C32.0359 45.6934 35.3358 51.2698 37.7008 53.4462Z" fill="#F79236"/>
<path d="M141.677 26.752C141.677 26.752 123.514 45.4894 123.608 68.5048C123.711 91.5203 142.033 110.099 142.033 110.099C142.033 110.099 160.196 91.3615 160.102 68.346C159.999 45.3306 141.677 26.752 141.677 26.752Z" fill="#F79236"/>
<path d="M115.774 82.2907C116.036 82.0105 116.26 81.7303 116.428 81.4688C117.746 79.4698 118.878 76.5462 118.027 74.155C117.195 71.8105 114.596 70.4374 112.259 71.5396C109.791 72.7072 108.585 76.6583 108.324 79.8902C107.342 79.666 106.454 79.4979 105.688 79.3671C105.36 78.6385 105.033 77.9006 104.706 77.1534C104.351 76.3874 104.098 75.6215 103.781 74.8369C103.341 73.688 102.958 72.483 102.565 71.2781C104.005 70.6336 108.184 68.6814 109.745 66.9627C111.352 65.1879 112.914 62.4698 112.437 59.9758C111.969 57.5379 109.614 55.7819 107.127 56.5198C103.678 57.5473 101.649 63.7028 101.584 66.916C101.584 67.0187 101.64 67.7006 101.705 68.5039C101.36 67.3176 101.004 66.1313 100.696 64.9171C99.8077 61.4703 99.0132 57.9302 98.1999 54.3901C98.0316 53.6522 97.854 52.9143 97.6764 52.1764C98.8916 51.6439 103.435 49.561 105.071 47.7582C106.678 45.9835 108.24 43.2653 107.763 40.7714C107.295 38.3335 104.94 36.5774 102.453 37.3153C99.0038 38.3428 96.9753 44.4983 96.9099 47.7115C96.9099 47.8236 96.9753 48.6362 97.0594 49.5423C96.592 47.6274 96.0966 45.7219 95.5544 43.8445C94.6009 40.5659 93.4885 37.3807 92.1611 34.3824C92.5911 34.1955 97.9755 31.8697 99.789 29.8615C101.397 28.0867 102.958 25.3686 102.481 22.8746C102.014 20.4367 99.6582 18.6807 97.1716 19.4186C93.7222 20.4461 91.6937 26.6016 91.6283 29.8148C91.6283 30.0389 91.89 32.9813 92.0209 34.0181C92.0022 33.9807 91.9928 33.9433 91.9742 33.906C90.5533 30.7768 88.8145 27.956 87.0291 25.3686C85.253 22.7812 83.3647 20.4928 81.5699 18.4378C79.7844 16.3735 78.0176 14.5988 76.4378 13.0389C75.5778 12.1982 74.7739 11.451 74.0261 10.7598C74.0448 10.7598 74.1009 10.7598 74.1009 10.7598C74.1663 10.7598 72.4182 6.75261 72.278 6.50975C70.6702 3.73557 65.9214 -0.691919 62.4066 0.0740171C59.8733 0.625117 58.658 3.29655 59.4246 5.65975C60.2098 8.06964 62.8833 9.70426 65.1549 10.4795C67.4825 11.2828 72.5584 10.8905 73.8204 10.7784C74.587 11.5164 75.4002 12.3103 76.2883 13.207C77.8213 14.7949 79.5414 16.607 81.2801 18.6993C81.7475 19.2598 82.2242 19.8763 82.6916 20.4647C81.6914 19.6334 80.2986 18.5219 80.149 18.4285C77.4381 16.7098 71.1843 14.9724 68.4173 17.2609C66.4262 18.9142 66.5757 21.8472 68.3425 23.5939C70.156 25.3779 73.2782 25.5834 75.6526 25.2378C78.1298 24.8735 82.5514 22.1087 83.5142 21.4922C84.5425 22.8186 85.5614 24.201 86.5523 25.7049C88.2537 28.2922 89.9269 31.1318 91.2544 34.2422C91.3291 34.4104 91.3852 34.6065 91.46 34.7747C91.0394 34.2796 88.5061 31.7296 88.3098 31.5708C85.8045 29.5626 79.7844 27.1527 76.7744 29.1235C74.6056 30.5527 74.4374 33.4856 76.0078 35.4098C77.6157 37.3807 80.6912 37.9318 83.0842 37.8477C85.8512 37.745 91.2917 34.9988 91.4974 34.8961C92.7033 37.8197 93.7129 40.9115 94.5729 44.1153C95.1898 46.4318 95.732 48.8137 96.2462 51.1956C95.6759 50.5604 93.3296 48.1972 93.1426 48.0478C90.6374 46.0395 84.6173 43.6296 81.6073 45.6005C79.4385 47.0296 79.2703 49.9626 80.8407 51.8868C82.4486 53.8577 85.5241 54.4088 87.9265 54.3247C90.628 54.2313 95.8536 51.6159 96.2929 51.4011C96.5266 52.4846 96.7603 53.5681 96.9847 54.6516C97.7231 58.2011 98.4429 61.7692 99.2562 65.272C99.5367 66.4863 99.8638 67.6632 100.182 68.8588C99.3029 67.9341 97.6671 66.2901 97.5081 66.1687C95.0029 64.1605 88.9828 61.7506 85.9728 63.7215C83.804 65.1506 83.6358 68.0835 85.2062 70.0077C86.8141 71.9786 89.8896 72.5297 92.292 72.4456C94.7038 72.3616 99.144 70.2599 100.387 69.6528C100.929 71.6237 101.518 73.5665 102.182 75.4533C102.491 76.2566 102.743 77.1067 103.089 77.8632C103.257 78.2649 103.425 78.6665 103.594 79.0682C103.145 79.0215 102.902 79.0028 102.902 79.0028C102.902 79.0028 102.855 80.1237 102.958 81.9545C100.313 80.077 96.4986 78.4517 94.0214 79.5913C91.6657 80.6748 91.0487 83.5424 92.3107 85.6907C92.4696 85.9616 92.6565 86.2138 92.8622 86.4567C93.2548 89.2962 94.8814 92.4534 96.2742 94.06C96.4051 94.2188 98.2092 95.8721 99.144 96.6941C98.2373 96.199 97.3399 95.7226 96.4051 95.1902C95.059 94.443 93.6568 93.6116 92.292 92.8083C91.6002 92.3693 90.8991 91.921 90.198 91.4726C89.4782 91.0336 88.8426 90.5292 88.1508 90.0528C87.1506 89.3336 86.1597 88.5396 85.1688 87.755C86.0102 86.4286 88.4219 82.4869 88.7678 80.1984C89.1324 77.8259 88.9267 74.7061 87.16 72.894C85.4212 71.1099 82.486 70.9511 80.822 72.9407C78.5131 75.6962 80.2238 81.9545 81.9344 84.6633C81.9905 84.7473 82.4112 85.2891 82.916 85.9243C81.9718 85.1303 81.0277 84.3363 80.0929 83.4863C77.4474 81.1045 74.83 78.5918 72.2032 76.0792C71.6517 75.5561 71.1002 75.0424 70.5486 74.5193C71.2684 73.4077 73.9139 69.1671 74.2785 66.7572C74.643 64.3846 74.4374 61.2649 72.6706 59.4528C70.9319 57.6687 67.9966 57.5099 66.3327 59.4995C64.0238 62.255 65.7344 68.5132 67.4451 71.2314C67.5105 71.3248 68.0153 71.9693 68.5856 72.6792C67.1366 71.3341 65.669 70.0171 64.1827 68.7561C61.5746 66.5423 58.8917 64.5061 56.1341 62.7313C56.3865 62.339 59.5928 57.4258 60.0041 54.7544C60.3687 52.3819 60.1631 49.2621 58.3963 47.45C56.6576 45.6659 53.7223 45.5071 52.0584 47.4967C49.7494 50.2522 51.4601 56.5104 53.1708 59.2286C53.2923 59.4247 55.1338 61.7225 55.8162 62.5258C55.7789 62.5072 55.7508 62.4791 55.7228 62.4605C52.8062 60.6297 49.8055 59.2379 46.889 58.061C43.9817 56.8841 41.14 56.0154 38.5132 55.2962C35.8864 54.5582 33.4279 54.0538 31.2592 53.6242C30.0813 53.4 28.997 53.2132 27.9874 53.0544C27.9967 53.045 28.0435 53.0077 28.0435 53.0077C28.0902 52.9703 24.4258 50.5884 24.1828 50.467C21.3036 49.0379 14.9096 47.9731 12.395 50.5417C10.5815 52.4005 11.0395 55.2962 12.9933 56.8467C14.9844 58.4253 18.1066 58.3132 20.4342 57.7154C22.818 57.0989 26.8376 53.9791 27.8285 53.1945C28.8754 53.3813 29.9972 53.5961 31.2218 53.8577C33.3812 54.3341 35.8116 54.8945 38.4197 55.6885C39.1114 55.894 39.8499 56.1462 40.5697 56.3797C39.2797 56.2396 37.4943 56.0808 37.326 56.0808C34.1103 56.1368 27.9406 58.1357 26.903 61.5731C26.1552 64.0484 27.8939 66.4209 30.3431 66.8973C32.839 67.383 35.5592 65.8418 37.3447 64.2445C39.2049 62.5725 41.3737 57.8275 41.8411 56.7907C43.4302 57.3231 45.0474 57.9115 46.6926 58.6308C49.5344 59.8544 52.4977 61.3022 55.3208 63.161C55.4797 63.2638 55.6293 63.3945 55.7882 63.4973C55.1619 63.3198 51.6471 62.5819 51.3947 62.5632C48.1977 62.2643 41.8411 63.572 40.4295 66.8786C39.4106 69.2605 40.8876 71.8011 43.2619 72.5391C45.6831 73.2957 48.5622 72.0627 50.516 70.6709C52.7688 69.0643 55.7882 63.7775 55.9004 63.572C58.5178 65.3467 61.0698 67.3737 63.5564 69.5687C65.3512 71.1566 67.1086 72.8473 68.8567 74.5566C68.034 74.3418 64.7622 73.6599 64.5285 73.6413C61.3315 73.3424 54.9749 74.65 53.5634 77.9566C52.5445 80.3385 54.0214 82.8792 56.3958 83.6171C58.8169 84.3737 61.6961 83.1407 63.6498 81.749C65.8466 80.1797 68.7725 75.1264 69.0156 74.6968C69.8101 75.472 70.6047 76.2473 71.39 77.0319C73.9606 79.5913 76.5313 82.1693 79.1488 84.6352C80.0555 85.4852 80.981 86.2979 81.8971 87.1105C80.6538 86.8303 78.3822 86.3539 78.1859 86.3446C74.9889 86.0457 68.6323 87.3534 67.2208 90.66C66.2018 93.0419 67.6788 95.5825 70.0532 96.3204C72.4743 97.077 75.3535 95.8441 77.3072 94.4523C79.2703 93.0512 81.8129 88.8572 82.514 87.6616C84.0564 89.0067 85.6175 90.305 87.216 91.51C87.9171 92.0144 88.5995 92.5748 89.3006 93.0232C89.9924 93.4902 90.6841 93.9479 91.3665 94.4056C92.8061 95.3023 94.1522 96.1336 95.517 96.9276C96.2088 97.3386 96.8631 97.7029 97.5362 98.0952C96.3209 97.6188 94.3766 96.8996 94.199 96.8529C91.0861 96.0776 84.5986 96.4045 82.701 99.4589C81.3362 101.663 82.4018 104.391 84.636 105.484C86.9169 106.595 89.9456 105.811 92.0863 104.727C94.442 103.531 97.9942 99.1413 98.4336 98.5996C100.088 99.543 101.705 100.44 103.229 101.252C107.305 103.438 110.866 105.175 113.624 106.464C122.598 114.217 135.218 115.067 135.218 115.067C135.218 115.067 135.882 99.954 126.982 90.0061C123.757 86.4006 119.71 83.9721 115.868 82.3374L115.774 82.2907ZM99.7516 97.0303C100.032 96.4138 102.182 91.6127 102.332 88.9039C102.827 88.8105 103.332 88.7078 103.818 88.5957C104.678 92.7523 106.314 97.6281 109.389 101.897C107.763 101.122 105.996 100.262 104.117 99.3095C102.724 98.6089 101.257 97.8336 99.7516 97.0303Z" fill="#F79236"/>
<path d="M181.939 79.4043C181.939 79.4043 166.805 79.8713 157.55 89.4829C148.296 99.0945 148.398 114.226 148.398 114.226C148.398 114.226 163.533 113.759 172.787 104.148C182.051 94.5362 181.939 79.4043 181.939 79.4043Z" fill="#F79236"/>
<g opacity="0.5">
<path d="M83.58 20.8185C83.58 20.8185 88.5438 16.9047 89.8151 14.3921C90.8994 12.2531 91.6847 9.2267 90.5629 6.94757C89.4692 4.71515 86.7303 3.65031 84.5335 5.01405C81.4767 6.91021 81.1495 13.3926 81.9254 16.5031C81.9908 16.774 83.5333 20.8652 83.58 20.8185Z" fill="white"/>
<path d="M37.7008 53.4462C37.9065 53.633 41.44 56.1923 41.468 56.1363C41.468 56.1363 43.4498 50.1396 43.1226 47.3374C42.8422 44.9555 41.8233 42.0038 39.6358 40.7148C37.4951 39.4538 34.616 40.0703 33.5316 42.4242C32.0359 45.6934 35.3358 51.2698 37.7008 53.4462Z" fill="white"/>
<path d="M141.677 26.752C141.677 26.752 123.514 45.4894 123.608 68.5048C123.711 91.5203 142.033 110.099 142.033 110.099C142.033 110.099 160.196 91.3615 160.102 68.346C159.999 45.3306 141.677 26.752 141.677 26.752Z" fill="white"/>
<path d="M115.774 82.2907C116.036 82.0105 116.26 81.7303 116.428 81.4688C117.746 79.4698 118.878 76.5462 118.027 74.155C117.195 71.8105 114.596 70.4374 112.259 71.5396C109.791 72.7072 108.585 76.6583 108.324 79.8902C107.342 79.666 106.454 79.4979 105.688 79.3671C105.36 78.6385 105.033 77.9006 104.706 77.1534C104.351 76.3874 104.098 75.6215 103.781 74.8369C103.341 73.688 102.958 72.483 102.565 71.2781C104.005 70.6336 108.184 68.6814 109.745 66.9627C111.352 65.1879 112.914 62.4698 112.437 59.9758C111.969 57.5379 109.614 55.7819 107.127 56.5198C103.678 57.5473 101.649 63.7028 101.584 66.916C101.584 67.0187 101.64 67.7006 101.705 68.5039C101.36 67.3176 101.004 66.1313 100.696 64.9171C99.8077 61.4703 99.0132 57.9302 98.1999 54.3901C98.0316 53.6522 97.854 52.9143 97.6764 52.1764C98.8916 51.6439 103.435 49.561 105.071 47.7582C106.678 45.9835 108.24 43.2653 107.763 40.7714C107.295 38.3335 104.94 36.5774 102.453 37.3153C99.0038 38.3428 96.9753 44.4983 96.9099 47.7115C96.9099 47.8236 96.9753 48.6362 97.0594 49.5423C96.592 47.6274 96.0966 45.7219 95.5544 43.8445C94.6009 40.5659 93.4885 37.3807 92.1611 34.3824C92.5911 34.1955 97.9755 31.8697 99.789 29.8615C101.397 28.0867 102.958 25.3686 102.481 22.8746C102.014 20.4367 99.6582 18.6807 97.1716 19.4186C93.7222 20.4461 91.6937 26.6016 91.6283 29.8148C91.6283 30.0389 91.89 32.9813 92.0209 34.0181C92.0022 33.9807 91.9928 33.9433 91.9742 33.906C90.5533 30.7768 88.8145 27.956 87.0291 25.3686C85.253 22.7812 83.3647 20.4928 81.5699 18.4378C79.7844 16.3735 78.0176 14.5988 76.4378 13.0389C75.5778 12.1982 74.7739 11.451 74.0261 10.7598C74.0448 10.7598 74.1009 10.7598 74.1009 10.7598C74.1663 10.7598 72.4182 6.75261 72.278 6.50975C70.6702 3.73557 65.9214 -0.691919 62.4066 0.0740171C59.8733 0.625117 58.658 3.29655 59.4246 5.65975C60.2098 8.06964 62.8833 9.70426 65.1549 10.4795C67.4825 11.2828 72.5584 10.8905 73.8204 10.7784C74.587 11.5164 75.4002 12.3103 76.2883 13.207C77.8213 14.7949 79.5414 16.607 81.2801 18.6993C81.7475 19.2598 82.2242 19.8763 82.6916 20.4647C81.6914 19.6334 80.2986 18.5219 80.149 18.4285C77.4381 16.7098 71.1843 14.9724 68.4173 17.2609C66.4262 18.9142 66.5757 21.8472 68.3425 23.5939C70.156 25.3779 73.2782 25.5834 75.6526 25.2378C78.1298 24.8735 82.5514 22.1087 83.5142 21.4922C84.5425 22.8186 85.5614 24.201 86.5523 25.7049C88.2537 28.2922 89.9269 31.1318 91.2544 34.2422C91.3291 34.4104 91.3852 34.6065 91.46 34.7747C91.0394 34.2796 88.5061 31.7296 88.3098 31.5708C85.8045 29.5626 79.7844 27.1527 76.7744 29.1235C74.6056 30.5527 74.4374 33.4856 76.0078 35.4098C77.6157 37.3807 80.6912 37.9318 83.0842 37.8477C85.8512 37.745 91.2917 34.9988 91.4974 34.8961C92.7033 37.8197 93.7129 40.9115 94.5729 44.1153C95.1898 46.4318 95.732 48.8137 96.2462 51.1956C95.6759 50.5604 93.3296 48.1972 93.1426 48.0478C90.6374 46.0395 84.6173 43.6296 81.6073 45.6005C79.4385 47.0296 79.2703 49.9626 80.8407 51.8868C82.4486 53.8577 85.5241 54.4088 87.9265 54.3247C90.628 54.2313 95.8536 51.6159 96.2929 51.4011C96.5266 52.4846 96.7603 53.5681 96.9847 54.6516C97.7231 58.2011 98.4429 61.7692 99.2562 65.272C99.5367 66.4863 99.8638 67.6632 100.182 68.8588C99.3029 67.9341 97.6671 66.2901 97.5081 66.1687C95.0029 64.1605 88.9828 61.7506 85.9728 63.7215C83.804 65.1506 83.6358 68.0835 85.2062 70.0077C86.8141 71.9786 89.8896 72.5297 92.292 72.4456C94.7038 72.3616 99.144 70.2599 100.387 69.6528C100.929 71.6237 101.518 73.5665 102.182 75.4533C102.491 76.2566 102.743 77.1067 103.089 77.8632C103.257 78.2649 103.425 78.6665 103.594 79.0682C103.145 79.0215 102.902 79.0028 102.902 79.0028C102.902 79.0028 102.855 80.1237 102.958 81.9545C100.313 80.077 96.4986 78.4517 94.0214 79.5913C91.6657 80.6748 91.0487 83.5424 92.3107 85.6907C92.4696 85.9616 92.6565 86.2138 92.8622 86.4567C93.2548 89.2962 94.8814 92.4534 96.2742 94.06C96.4051 94.2188 98.2092 95.8721 99.144 96.6941C98.2373 96.199 97.3399 95.7226 96.4051 95.1902C95.059 94.443 93.6568 93.6116 92.292 92.8083C91.6002 92.3693 90.8991 91.921 90.198 91.4726C89.4782 91.0336 88.8426 90.5292 88.1508 90.0528C87.1506 89.3336 86.1597 88.5396 85.1688 87.755C86.0102 86.4286 88.4219 82.4869 88.7678 80.1984C89.1324 77.8259 88.9267 74.7061 87.16 72.894C85.4212 71.1099 82.486 70.9511 80.822 72.9407C78.5131 75.6962 80.2238 81.9545 81.9344 84.6633C81.9905 84.7473 82.4112 85.2891 82.916 85.9243C81.9718 85.1303 81.0277 84.3363 80.0929 83.4863C77.4474 81.1045 74.83 78.5918 72.2032 76.0792C71.6517 75.5561 71.1002 75.0424 70.5486 74.5193C71.2684 73.4077 73.9139 69.1671 74.2785 66.7572C74.643 64.3846 74.4374 61.2649 72.6706 59.4528C70.9319 57.6687 67.9966 57.5099 66.3327 59.4995C64.0238 62.255 65.7344 68.5132 67.4451 71.2314C67.5105 71.3248 68.0153 71.9693 68.5856 72.6792C67.1366 71.3341 65.669 70.0171 64.1827 68.7561C61.5746 66.5423 58.8917 64.5061 56.1341 62.7313C56.3865 62.339 59.5928 57.4258 60.0041 54.7544C60.3687 52.3819 60.1631 49.2621 58.3963 47.45C56.6576 45.6659 53.7223 45.5071 52.0584 47.4967C49.7494 50.2522 51.4601 56.5104 53.1708 59.2286C53.2923 59.4247 55.1338 61.7225 55.8162 62.5258C55.7789 62.5072 55.7508 62.4791 55.7228 62.4605C52.8062 60.6297 49.8055 59.2379 46.889 58.061C43.9817 56.8841 41.14 56.0154 38.5132 55.2962C35.8864 54.5582 33.4279 54.0538 31.2592 53.6242C30.0813 53.4 28.997 53.2132 27.9874 53.0544C27.9967 53.045 28.0435 53.0077 28.0435 53.0077C28.0902 52.9703 24.4258 50.5884 24.1828 50.467C21.3036 49.0379 14.9096 47.9731 12.395 50.5417C10.5815 52.4005 11.0395 55.2962 12.9933 56.8467C14.9844 58.4253 18.1066 58.3132 20.4342 57.7154C22.818 57.0989 26.8376 53.9791 27.8285 53.1945C28.8754 53.3813 29.9972 53.5961 31.2218 53.8577C33.3812 54.3341 35.8116 54.8945 38.4197 55.6885C39.1114 55.894 39.8499 56.1462 40.5697 56.3797C39.2797 56.2396 37.4943 56.0808 37.326 56.0808C34.1103 56.1368 27.9406 58.1357 26.903 61.5731C26.1552 64.0484 27.8939 66.4209 30.3431 66.8973C32.839 67.383 35.5592 65.8418 37.3447 64.2445C39.2049 62.5725 41.3737 57.8275 41.8411 56.7907C43.4302 57.3231 45.0474 57.9115 46.6926 58.6308C49.5344 59.8544 52.4977 61.3022 55.3208 63.161C55.4797 63.2638 55.6293 63.3945 55.7882 63.4973C55.1619 63.3198 51.6471 62.5819 51.3947 62.5632C48.1977 62.2643 41.8411 63.572 40.4295 66.8786C39.4106 69.2605 40.8876 71.8011 43.2619 72.5391C45.6831 73.2957 48.5622 72.0627 50.516 70.6709C52.7688 69.0643 55.7882 63.7775 55.9004 63.572C58.5178 65.3467 61.0698 67.3737 63.5564 69.5687C65.3512 71.1566 67.1086 72.8473 68.8567 74.5566C68.034 74.3418 64.7622 73.6599 64.5285 73.6413C61.3315 73.3424 54.9749 74.65 53.5634 77.9566C52.5445 80.3385 54.0214 82.8792 56.3958 83.6171C58.8169 84.3737 61.6961 83.1407 63.6498 81.749C65.8466 80.1797 68.7725 75.1264 69.0156 74.6968C69.8101 75.472 70.6047 76.2473 71.39 77.0319C73.9606 79.5913 76.5313 82.1693 79.1488 84.6352C80.0555 85.4852 80.981 86.2979 81.8971 87.1105C80.6538 86.8303 78.3822 86.3539 78.1859 86.3446C74.9889 86.0457 68.6323 87.3534 67.2208 90.66C66.2018 93.0419 67.6788 95.5825 70.0532 96.3204C72.4743 97.077 75.3535 95.8441 77.3072 94.4523C79.2703 93.0512 81.8129 88.8572 82.514 87.6616C84.0564 89.0067 85.6175 90.305 87.216 91.51C87.9171 92.0144 88.5995 92.5748 89.3006 93.0232C89.9924 93.4902 90.6841 93.9479 91.3665 94.4056C92.8061 95.3023 94.1522 96.1336 95.517 96.9276C96.2088 97.3386 96.8631 97.7029 97.5362 98.0952C96.3209 97.6188 94.3766 96.8996 94.199 96.8529C91.0861 96.0776 84.5986 96.4045 82.701 99.4589C81.3362 101.663 82.4018 104.391 84.636 105.484C86.9169 106.595 89.9456 105.811 92.0863 104.727C94.442 103.531 97.9942 99.1413 98.4336 98.5996C100.088 99.543 101.705 100.44 103.229 101.252C107.305 103.438 110.866 105.175 113.624 106.464C122.598 114.217 135.218 115.067 135.218 115.067C135.218 115.067 135.882 99.954 126.982 90.0061C123.757 86.4006 119.71 83.9721 115.868 82.3374L115.774 82.2907ZM99.7516 97.0303C100.032 96.4138 102.182 91.6127 102.332 88.9039C102.827 88.8105 103.332 88.7078 103.818 88.5957C104.678 92.7523 106.314 97.6281 109.389 101.897C107.763 101.122 105.996 100.262 104.117 99.3095C102.724 98.6089 101.257 97.8336 99.7516 97.0303Z" fill="white"/>
<path d="M181.939 79.4043C181.939 79.4043 166.805 79.8713 157.55 89.4829C148.296 99.0945 148.398 114.226 148.398 114.226C148.398 114.226 163.533 113.759 172.787 104.148C182.051 94.5362 181.939 79.4043 181.939 79.4043Z" fill="white"/>
</g>
<path d="M142.424 89.1384L157.288 75.7906L156.643 75.0807L142.415 87.8681L142.34 70.373L142.415 70.4197L154.988 52.0559L154.203 51.5235L142.331 68.8598L142.153 26.752L141.2 26.7613L141.321 55.3345L131.861 47.152L131.235 47.8712L141.321 56.5954L141.415 77.0329L127.075 64.3576L126.439 65.0674L141.415 78.3125L141.499 96.9098L130.721 88.4659L130.132 89.2131L141.508 98.1241L141.555 110.108L142.509 110.099L142.415 89.1384H142.424Z" fill="white"/>
<path d="M128.73 94.2938L127.786 94.1911L126.58 104.765L120.204 97.6378L120.214 97.6285L118.596 84.8317L117.652 84.9531L119.101 96.4048L103.238 78.6855L102.527 79.3207L113.287 91.3422L106.472 91.4262L106.491 92.379L114.128 92.2856L121.681 100.711L111.025 100.72V101.673L122.532 101.664L129.393 109.332L121.878 109.781L121.934 110.733L130.197 110.229L134.768 115.338L135.479 114.703L127.43 105.708L128.73 94.2938Z" fill="white"/>
<path d="M164.644 98.0673L177.292 95.4986L177.105 94.5646L165.784 96.8624L182.283 79.7315L181.601 79.0684L170.402 90.6975L169.813 83.9068L168.86 83.9909L169.523 91.6036L161.681 99.7486L160.867 89.1376L159.914 89.2123L160.792 100.673L153.651 108.081L152.641 100.627L151.697 100.757L152.809 108.959L148.061 113.89L148.743 114.554L157.109 105.857L168.607 106.296L168.645 105.353L157.997 104.942L164.634 98.0486L164.644 98.0673Z" fill="white"/>
<path d="M188.259 368.139L76.9243 165.035L0 191.058L24.9497 239.536L23.3699 236.828L18.724 238.378C16.7422 239.041 15.8167 241.302 16.7702 243.161L29.0721 267.063C30.6893 270.202 34.1387 271.93 37.6255 271.351L41.0375 270.781L100.967 387.213L188.268 368.139H188.259Z" fill="#263238"/>
<path d="M260.171 77.3425C257.684 78.7063 254.553 77.7909 253.188 75.3063L250.337 70.1035L76.9043 165.033L188.238 368.137L361.671 273.207L301.059 162.642C299.694 160.157 300.61 157.028 303.097 155.664C305.583 154.3 306.499 151.181 305.135 148.687L267.135 79.3695C265.77 76.8849 262.648 75.9695 260.152 77.3332L260.171 77.3425Z" fill="#F79236" stroke="#263238" stroke-linecap="round" stroke-linejoin="round"/>
<path d="M268.796 84.8455L127.947 135.016L195.197 323.521L336.046 273.351L268.796 84.8455Z" fill="white" stroke="#263238" stroke-linecap="round" stroke-linejoin="round"/>
<path d="M268.801 84.8513L127.953 135.021L152.728 204.467L293.576 154.297L268.801 84.8513Z" fill="white" stroke="#263238" stroke-linecap="round" stroke-linejoin="round"/>
<path d="M257.91 156.199C268.427 149.527 271.54 135.599 264.863 125.09C258.186 114.581 244.248 111.47 233.731 118.142C223.213 124.814 220.1 138.742 226.777 149.251C233.454 159.76 247.393 162.871 257.91 156.199Z" fill="#263238" stroke="#263238" stroke-linecap="round" stroke-linejoin="round"/>
<path d="M253.386 158.429C259.967 156.085 264.781 150.994 267.006 144.913C263.099 136.152 253.517 131.584 244.908 134.648C236.298 137.711 231.764 147.304 234.279 156.561C239.85 159.868 246.805 160.764 253.386 158.42V158.429Z" fill="white" stroke="#263238" stroke-linecap="round" stroke-linejoin="round"/>
<path d="M255.069 129.12C257.191 135.061 254.088 141.59 248.142 143.71C242.197 145.83 235.663 142.729 233.541 136.789C231.419 130.848 234.522 124.319 240.468 122.198C246.413 120.078 252.947 123.179 255.069 129.12Z" fill="white" stroke="#263238" stroke-linecap="round" stroke-linejoin="round"/>
<path d="M198.458 137.768L149.166 155.326L151.184 160.984L200.476 143.426L198.458 137.768Z" fill="white" stroke="#263238" stroke-linecap="round" stroke-linejoin="round"/>
<path d="M203.305 151.352L154.014 168.91L156.032 174.568L205.324 157.01L203.305 151.352Z" fill="white" stroke="#263238" stroke-linecap="round" stroke-linejoin="round"/>
<path d="M207.348 162.686L158.057 180.244L159.067 183.077L208.359 165.52L207.348 162.686Z" fill="#263238"/>
<path d="M209.76 169.476L160.469 187.033L161.479 189.866L210.771 172.309L209.76 169.476Z" fill="#263238"/>
<path d="M222.09 204.005L172.799 221.562L173.81 224.396L223.101 206.838L222.09 204.005Z" fill="#263238"/>
<path d="M224.315 210.237L175.023 227.795L176.034 230.628L225.326 213.07L224.315 210.237Z" fill="#263238"/>
<path d="M226.53 216.468L177.238 234.025L178.249 236.858L227.541 219.301L226.53 216.468Z" fill="#263238"/>
<path d="M288.934 180.19L239.643 197.748L240.653 200.581L289.945 183.023L288.934 180.19Z" fill="#263238"/>
<path d="M291.159 186.425L241.867 203.982L242.878 206.815L292.17 189.258L291.159 186.425Z" fill="#263238"/>
<path d="M293.385 192.649L244.094 210.207L245.104 213.04L294.396 195.482L293.385 192.649Z" fill="#263238"/>
<path d="M169.629 216.322L288.619 173.953" stroke="#263238" stroke-linecap="round" stroke-linejoin="round"/>
<path d="M233.594 236.278L184.303 253.836L185.313 256.669L234.605 239.111L233.594 236.278Z" fill="#263238"/>
<path d="M235.819 242.501L186.527 260.059L187.538 262.892L236.829 245.334L235.819 242.501Z" fill="#263238"/>
<path d="M238.044 248.735L188.752 266.293L189.763 269.126L239.054 251.568L238.044 248.735Z" fill="#263238"/>
<path d="M300.456 212.462L251.164 230.02L252.175 232.853L301.466 215.295L300.456 212.462Z" fill="#263238"/>
<path d="M302.672 218.688L253.381 236.246L254.392 239.079L303.683 221.521L302.672 218.688Z" fill="#263238"/>
<path d="M304.901 224.921L255.609 242.479L256.62 245.312L305.912 227.754L304.901 224.921Z" fill="#263238"/>
<path d="M181.135 248.596L300.125 206.227" stroke="#263238" stroke-linecap="round" stroke-linejoin="round"/>
<path d="M309.355 237.375L192.633 278.951L202.731 307.256L319.452 265.679L309.355 237.375Z" fill="#263238" stroke="#263238" stroke-linecap="round" stroke-linejoin="round"/>
<path d="M250.365 96.5181L112.938 155.402L191.868 339.33L329.296 280.446L250.365 96.5181Z" fill="white" stroke="#263238" stroke-linecap="round" stroke-linejoin="round"/>
<path d="M250.36 96.5142L112.932 155.398L142.01 223.158L279.438 164.273L250.36 96.5142Z" fill="white" stroke="#263238" stroke-linecap="round" stroke-linejoin="round"/>
<path d="M249.775 162.216C256.425 151.69 253.275 137.77 242.74 131.126C232.206 124.481 218.275 127.629 211.626 138.155C204.976 148.681 208.126 162.601 218.661 169.245C229.195 175.89 243.126 172.742 249.775 162.216Z" fill="#263238" stroke="#263238" stroke-linecap="round" stroke-linejoin="round"/>
<path d="M239.589 170.911C246.011 168.155 250.498 162.784 252.34 156.573C247.89 148.073 238.047 144.112 229.643 147.708C221.239 151.304 217.322 161.168 220.416 170.247C226.184 173.199 233.176 173.666 239.598 170.911H239.589Z" fill="white" stroke="#263238" stroke-linecap="round" stroke-linejoin="round"/>
<path d="M239.429 141.551C241.915 147.351 239.232 154.058 233.427 156.543C227.622 159.027 220.91 156.346 218.424 150.546C215.937 144.745 218.62 138.039 224.425 135.554C230.23 133.069 236.942 135.75 239.429 141.551Z" fill="white" stroke="#263238" stroke-linecap="round" stroke-linejoin="round"/>
<path d="M183.475 153.736L135.381 174.344L137.75 179.864L185.844 159.256L183.475 153.736Z" fill="white" stroke="#263238" stroke-linecap="round" stroke-linejoin="round"/>
<path d="M189.163 166.994L141.068 187.602L143.437 193.122L191.532 172.514L189.163 166.994Z" fill="white" stroke="#263238" stroke-linecap="round" stroke-linejoin="round"/>
<path d="M193.903 178.039L145.809 198.646L146.995 201.411L195.089 180.803L193.903 178.039Z" fill="#263238"/>
<path d="M196.745 184.668L148.65 205.275L149.837 208.04L197.931 187.432L196.745 184.668Z" fill="#263238"/>
<path d="M211.216 218.371L163.121 238.979L164.307 241.743L212.402 221.136L211.216 218.371Z" fill="#263238"/>
<path d="M213.819 224.438L165.725 245.045L166.911 247.809L215.005 227.202L213.819 224.438Z" fill="#263238"/>
<path d="M216.427 230.522L168.332 251.129L169.518 253.893L217.613 233.286L216.427 230.522Z" fill="#263238"/>
<path d="M276.444 190.414L228.35 211.021L229.536 213.786L277.63 193.178L276.444 190.414Z" fill="#263238"/>
<path d="M279.048 196.488L230.953 217.096L232.139 219.86L280.234 199.253L279.048 196.488Z" fill="#263238"/>
<path d="M281.665 202.563L233.57 223.17L234.757 225.934L282.851 205.327L281.665 202.563Z" fill="#263238"/>
<path d="M159.627 233.94L275.729 184.201" stroke="#263238" stroke-linecap="round" stroke-linejoin="round"/>
<path d="M224.72 249.856L176.625 270.463L177.811 273.227L225.906 252.62L224.72 249.856Z" fill="#263238"/>
<path d="M227.323 255.922L179.229 276.529L180.415 279.294L228.509 258.686L227.323 255.922Z" fill="#263238"/>
<path d="M229.94 262.006L181.846 282.613L183.032 285.378L231.127 264.77L229.94 262.006Z" fill="#263238"/>
<path d="M289.956 221.908L241.861 242.516L243.048 245.28L291.142 224.673L289.956 221.908Z" fill="#263238"/>
<path d="M292.565 227.983L244.471 248.59L245.657 251.354L293.752 230.747L292.565 227.983Z" fill="#263238"/>
<path d="M295.169 234.057L247.074 254.664L248.26 257.428L296.355 236.821L295.169 234.057Z" fill="#263238"/>
<path d="M173.143 265.429L289.235 215.699" stroke="#263238" stroke-linecap="round" stroke-linejoin="round"/>
<path d="M300.393 246.208L186.506 295.006L198.357 322.623L312.245 273.825L300.393 246.208Z" fill="#263238" stroke="#263238" stroke-linecap="round" stroke-linejoin="round"/>
<path d="M218.942 95.2958L93.5215 176.65L202.572 344.508L327.993 263.153L218.942 95.2958Z" fill="white" stroke="#263238" stroke-linecap="round" stroke-linejoin="round"/>
<path d="M218.942 95.2958L93.5215 176.65L133.696 238.489L259.117 157.135L218.942 95.2958Z" fill="white" stroke="#263238" stroke-linecap="round" stroke-linejoin="round"/>
<path d="M212.303 173.746C224.6 171.75 232.948 160.171 230.95 147.884C228.952 135.597 217.364 127.255 205.067 129.252C192.771 131.249 184.423 142.828 186.421 155.114C188.419 167.401 200.007 175.743 212.303 173.746Z" fill="#263238" stroke="#263238" stroke-linecap="round" stroke-linejoin="round"/>
<path d="M220.974 170.386C226.835 166.584 230.341 160.522 231.098 154.087C225.265 146.465 214.889 144.242 207.223 149.211C199.558 154.18 197.371 164.567 201.961 172.992C208.149 174.926 215.113 174.188 220.974 170.386Z" fill="#F79236" stroke="#263238" stroke-linecap="round" stroke-linejoin="round"/>
<path d="M215.818 141.487C219.258 146.774 217.753 153.854 212.453 157.282C207.162 160.719 200.076 159.216 196.645 153.919C193.205 148.633 194.71 141.552 200.01 138.124C205.301 134.687 212.387 136.191 215.818 141.487Z" fill="white" stroke="#263238" stroke-linecap="round" stroke-linejoin="round"/>
<path d="M162.744 163.033L118.852 191.504L122.124 196.542L166.017 168.071L162.744 163.033Z" fill="white" stroke="#263238" stroke-linecap="round" stroke-linejoin="round"/>
<path d="M170.603 175.131L126.711 203.602L129.984 208.639L173.876 180.168L170.603 175.131Z" fill="white" stroke="#263238" stroke-linecap="round" stroke-linejoin="round"/>
<path d="M177.158 185.218L133.266 213.689L134.905 216.212L178.797 187.741L177.158 185.218Z" fill="#263238"/>
<path d="M181.09 191.257L137.197 219.729L138.836 222.251L182.729 193.78L181.09 191.257Z" fill="#263238"/>
<path d="M201.068 222.019L157.176 250.49L158.815 253.013L202.707 224.542L201.068 222.019Z" fill="#263238"/>
<path d="M204.676 227.562L160.783 256.033L162.422 258.556L206.315 230.085L204.676 227.562Z" fill="#263238"/>
<path d="M208.279 233.115L164.387 261.586L166.026 264.109L209.918 235.638L208.279 233.115Z" fill="#263238"/>
<path d="M260.611 183.394L216.719 211.865L218.358 214.388L262.25 185.917L260.611 183.394Z" fill="#263238"/>
<path d="M264.211 188.939L220.318 217.41L221.957 219.933L265.85 191.462L264.211 188.939Z" fill="#263238"/>
<path d="M267.803 194.496L223.91 222.967L225.549 225.49L269.442 197.018L267.803 194.496Z" fill="#263238"/>
<path d="M152.902 246.082L258.843 177.354" stroke="#263238" stroke-linecap="round" stroke-linejoin="round"/>
<path d="M219.736 250.757L175.844 279.229L177.483 281.751L221.375 253.28L219.736 250.757Z" fill="#263238"/>
<path d="M223.346 256.306L179.453 284.777L181.092 287.3L224.985 258.829L223.346 256.306Z" fill="#263238"/>
<path d="M226.943 261.843L183.051 290.314L184.69 292.837L228.582 264.366L226.943 261.843Z" fill="#263238"/>
<path d="M279.279 212.132L235.387 240.604L237.026 243.126L280.918 214.655L279.279 212.132Z" fill="#263238"/>
<path d="M282.881 217.685L238.988 246.156L240.627 248.679L284.52 220.208L282.881 217.685Z" fill="#263238"/>
<path d="M286.476 223.226L242.584 251.697L244.223 254.22L288.115 225.749L286.476 223.226Z" fill="#263238"/>
<path d="M171.57 274.824L277.52 206.086" stroke="#263238" stroke-linecap="round" stroke-linejoin="round"/>
<path d="M293.693 234.321L189.756 301.74L206.13 326.944L310.067 259.525L293.693 234.321Z" fill="#263238" stroke="#263238" stroke-linecap="round" stroke-linejoin="round"/>
<path d="M76.9143 165.031L10.4316 113.602L49.9922 187.757C50.9457 189.551 48.4404 189.887 45.9165 188.299C43.3738 186.702 40.8592 187.057 41.8595 188.869L62.3782 226.138C62.6213 226.587 63.07 227.063 63.6402 227.493L73.6519 235.04C74.2408 235.488 74.6895 235.974 74.9325 236.432L116.447 315.22L188.248 368.126L76.9143 165.022V165.031Z" fill="#F79236" stroke="#263238" stroke-linecap="round" stroke-linejoin="round"/>
<path opacity="0.25" d="M76.9143 165.031L10.4316 113.602L49.9922 187.757C50.9457 189.551 48.4404 189.887 45.9165 188.299C43.3738 186.702 40.8592 187.057 41.8595 188.869L62.3782 226.138C62.6213 226.587 63.07 227.063 63.6402 227.493L73.6519 235.04C74.2408 235.488 74.6895 235.974 74.9325 236.432L116.447 315.22L188.248 368.126L76.9143 165.022V165.031Z" fill="#263238" stroke="#263238" stroke-linecap="round" stroke-linejoin="round"/>
<path d="M360.104 278.259C360.104 278.259 360.057 278.194 360.029 278.175C358.945 277.699 349.699 277.783 349.503 278.325C349.475 278.39 349.55 278.474 349.69 278.568C349.83 278.661 350.045 278.773 350.307 278.885C350.569 278.997 350.877 279.119 351.214 279.24C351.55 279.362 351.915 279.483 352.27 279.604C352.812 279.782 353.364 279.95 353.831 280.09C354.149 280.184 354.43 280.268 354.654 280.333C354.99 280.426 355.196 280.483 355.196 280.483C355.196 280.483 348.755 286.694 345.67 289.683C343.988 291.318 341.426 293.298 339.435 294.764C339.295 294.624 339.146 294.475 339.005 294.344C338.323 293.69 337.65 293.12 337.033 292.663C337.033 292.579 337.033 292.495 337.033 292.411C336.407 292.85 335.743 293.158 334.518 293.774C331.265 295.409 322.142 299.509 318.889 306.057C316.262 311.353 314.168 314.669 313.467 315.753C313.467 315.884 313.467 316.014 313.467 316.145C313.467 316.164 313.467 316.173 313.467 316.192C313.383 316.183 313.298 316.164 313.205 316.155C310.055 315.884 304.053 317.976 299.641 320.152C296.407 321.75 291.284 325.318 288.779 327.111L285.367 328.316C284.114 328.494 281.833 328.783 281.525 329.166C281.188 329.586 278.991 329.194 278.01 329.4C277.028 329.605 277.309 330.324 277.309 330.324L279.141 330.502L266.867 334.836L276.785 342.691L290.162 337.713C290.405 337.769 290.63 337.816 290.891 337.89C292.714 338.385 293.649 338.115 295.21 337.507C295.771 337.293 296.229 337.078 296.603 336.9C299.08 336.573 306.652 334.911 309.279 334.332C311.242 337.003 316.869 341.496 317.832 343.448C317.888 343.56 317.926 343.663 317.944 343.766C317.944 343.794 317.954 343.812 317.954 343.831C317.963 343.924 317.972 344.009 317.944 344.083C317.514 345.251 316.692 346.474 316.215 347.128C315.018 346.633 313.682 346.204 312.261 345.877C307.148 344.69 304.352 350.005 303.464 350.267C302.576 350.528 301.492 351.313 302.539 352.06C303.586 352.807 302.006 353.508 301.37 354.507C300.987 355.124 300.716 356.245 300.567 357.039C297.192 357.328 294.303 358.72 293.565 360.747C292.602 363.372 301.137 365.296 301.137 365.296C301.137 365.296 312.925 369.892 321.917 367.005C330.91 364.119 330.564 359.309 331.237 356.768C331.91 354.227 339.276 347.848 347.512 343.429C355.748 339.011 359.328 335.032 351.485 329.035C346.344 325.103 341.828 323.216 338.099 323.067C338.192 322.843 338.295 322.628 338.388 322.404C338.454 322.263 338.51 322.133 338.575 321.993C338.688 321.759 338.818 321.525 338.94 321.301C339.005 321.189 339.061 321.077 339.127 320.965C339.323 320.629 339.529 320.302 339.753 319.984C340.174 319.377 340.51 318.789 340.772 318.228C341.969 315.688 341.735 313.586 341.455 312.129C341.305 311.316 341.137 310.709 341.193 310.326C341.38 309.102 343.418 304.292 343.941 302.144C343.978 302.013 343.988 301.863 343.978 301.705C343.95 301.228 343.754 300.64 343.418 299.986C345.521 298.725 349.756 296.446 351.691 294.297C353.532 292.252 357.898 284.452 359.487 280.501C359.552 280.342 359.608 280.184 359.664 280.034C359.72 279.885 359.767 279.745 359.814 279.614C359.814 279.614 359.814 279.614 359.814 279.604C359.861 279.474 359.898 279.352 359.926 279.24C359.926 279.222 359.926 279.212 359.935 279.203C359.963 279.1 359.992 279.007 360.01 278.913C360.01 278.895 360.01 278.885 360.01 278.867C360.029 278.782 360.038 278.708 360.048 278.642C360.048 278.614 360.048 278.596 360.048 278.577C360.048 278.521 360.048 278.474 360.048 278.428C360.048 278.4 360.038 278.381 360.029 278.353C360.029 278.325 360.029 278.297 360.01 278.278L360.104 278.259ZM310.429 330.829C307.54 331.641 300.884 333.734 297.332 334.911L290.798 328.923C292.387 328.111 295.911 326.579 299.912 324.86C303.334 323.394 308.269 322.422 311.382 321.918C311.522 322.142 311.85 322.777 312.018 323.851C312.102 324.402 312.71 325.701 313.42 327.214C312.887 328.512 311.606 329.727 310.429 330.838V330.829Z" fill="#263238"/>
<path d="M348.895 233.293C348.895 233.293 352.484 244.203 353.802 251.423C355.12 258.644 357.878 273.673 357.878 273.673C357.878 273.673 350.942 274.065 350.82 275.195C350.699 276.326 359.972 280.79 361.355 280.361C362.739 279.931 363.533 251.713 362.701 245.314C361.869 238.916 357.439 230.397 357.083 228.445C356.719 226.493 355.98 222.775 355.98 222.775L348.895 233.284V233.293Z" fill="white" stroke="#263238" stroke-linecap="round" stroke-linejoin="round"/>
<path d="M361.364 280.37C361.71 280.267 362.019 278.445 362.271 275.681C359.551 277.679 357.635 275.681 357.635 275.681L357.887 273.682C357.887 273.682 350.951 274.074 350.829 275.204C350.708 276.334 359.981 280.799 361.364 280.37Z" fill="#F79236" stroke="#263238" stroke-linecap="round" stroke-linejoin="round"/>
<path d="M344.78 148.795C344.78 148.795 333.769 137.456 332.133 136.699C330.497 135.943 329.927 137.605 330.394 138.614C330.861 139.623 342.06 154.428 343.958 156.352C345.855 158.276 344.78 148.786 344.78 148.786V148.795Z" fill="white" stroke="#263238" stroke-linecap="round" stroke-linejoin="round"/>
<path d="M316.204 116.674L301.453 127.313L318.915 152.477L332.404 141.137L316.204 116.674Z" fill="#263238" stroke="#263238" stroke-linecap="round" stroke-linejoin="round"/>
<path d="M316.316 119.41L303.818 128.415L318.607 149.721L330.03 140.118L316.316 119.41Z" fill="#F79236" stroke="#263238" stroke-linecap="round" stroke-linejoin="round"/>
<path d="M333.443 138.673C333.443 138.673 332.891 137.197 331.685 135.292C330.479 133.386 329.694 132.415 327.554 132.536C325.413 132.658 324.029 132.331 322.805 132.19C321.58 132.06 321.562 133.825 322.207 134.423C322.852 135.021 326.413 134.881 326.413 134.881C326.049 134.404 326.32 135.18 328.685 138.421C329.348 139.336 331.667 139.514 332.199 139.57" fill="white"/>
<path d="M333.443 138.673C333.443 138.673 332.891 137.197 331.685 135.292C330.479 133.386 329.694 132.415 327.554 132.536C325.413 132.658 324.029 132.331 322.805 132.19C321.58 132.06 321.562 133.825 322.207 134.423C322.852 135.021 326.413 134.881 326.413 134.881C326.049 134.404 326.32 135.18 328.685 138.421C329.348 139.336 331.667 139.514 332.199 139.57" stroke="#263238" stroke-linecap="round" stroke-linejoin="round"/>
<path d="M349.249 98.19C349.249 98.19 348.118 102.972 348.156 105.214C348.193 107.456 349.362 109.548 347.857 110.501C346.352 111.454 346.969 113.49 347.707 114.405C348.446 115.321 348.072 126.913 353.942 126.997C359.822 127.081 365.478 124.054 366.674 120.822C367.871 117.591 370.834 108.39 367.104 104.065C363.374 99.7312 352.68 92.4081 349.24 98.19H349.249Z" fill="white" stroke="#263238" stroke-linecap="round" stroke-linejoin="round"/>
<path d="M349.464 108.922L350.399 110.622L349.277 110.659" stroke="#263238" stroke-linecap="round" stroke-linejoin="round"/>
<path d="M349.285 106.195C349.285 106.195 351.033 106.223 351.202 109.119" stroke="#263238" stroke-linecap="round" stroke-linejoin="round"/>
<path d="M358.625 125.267C358.625 125.267 358.999 129.508 358.607 133.113C358.569 133.449 358.392 133.842 358.111 134.29C360.504 132.711 364.318 130.386 367.441 129.311C367.74 129.209 368.048 129.087 368.375 128.947C367.637 123.847 367.665 117.01 367.665 117.01L358.635 125.267H358.625Z" fill="white" stroke="#263238" stroke-linecap="round" stroke-linejoin="round"/>
<path d="M333.537 237.064C333.537 237.064 333.041 249.721 334.098 254.046C335.154 258.37 339.099 294.136 338.94 297.377C338.781 300.609 338.632 301.935 338.632 301.935C338.632 301.935 328.9 303.355 327.919 303.635C326.937 303.916 326.601 305.214 331.976 306.755C337.36 308.296 341.501 310.669 342.651 308.875C343.801 307.091 345.362 300.431 345.82 295.64C346.895 284.45 348.727 271.84 347.624 266.17C346.521 260.5 343.651 253.495 344.044 251.626C344.437 249.758 350.503 229.246 350.503 229.246L333.518 237.064H333.537Z" fill="white" stroke="#263238" stroke-linecap="round" stroke-linejoin="round"/>
<path d="M342.661 308.876C343.11 308.184 343.493 306.746 343.867 304.981C341.007 306.475 337.51 304.355 337.51 304.355L338.642 301.936C338.642 301.936 328.91 303.355 327.929 303.636C326.938 303.906 326.611 305.214 331.986 306.755C337.37 308.297 341.511 310.669 342.661 308.876Z" fill="#F79236" stroke="#263238" stroke-linecap="round" stroke-linejoin="round"/>
<path d="M358.627 125.267C358.627 125.267 359 129.508 358.608 133.114C358.215 136.71 341.922 147.255 342.333 151.225C342.744 155.195 344.661 160.725 343.586 165.367C342.52 170.009 336.547 186.169 335.35 191.922C334.163 197.676 329.657 241.447 331.686 243.352C333.724 245.258 341.94 244.473 346.119 242.129C350.297 239.784 358.842 230.911 359.599 226.511C360.356 222.112 361.207 211.837 361.749 209.38C362.3 206.924 366.6 200.946 366.114 189.97C365.637 178.995 369.61 165.703 370.545 157.119C371.48 148.535 370.508 136.943 369.059 132.301C367.601 127.659 367.647 117.02 367.647 117.02L358.617 125.277L358.627 125.267Z" fill="#F79236" stroke="#263238" stroke-linecap="round" stroke-linejoin="round"/>
<path d="M359.608 226.503C360.365 222.104 361.216 211.829 361.758 209.372C362.3 206.916 366.61 200.938 366.124 189.963C365.862 183.928 366.946 177.203 368.124 170.936C365.011 173.887 356.906 180.762 348.26 181.565C342.006 182.154 339.968 180.323 339.379 178.632C337.65 183.844 335.93 189.122 335.35 191.924C334.163 197.678 329.657 241.448 331.686 243.354C333.724 245.259 341.94 244.475 346.119 242.13C350.297 239.786 358.842 230.912 359.599 226.513L359.608 226.503Z" fill="#263238" stroke="#263238" stroke-linecap="round" stroke-linejoin="round"/>
<path d="M357.831 213.744L345.211 235.723" stroke="white" stroke-width="0.5" stroke-linecap="round" stroke-linejoin="round"/>
<path d="M352.065 227.791L346.297 239.317" stroke="white" stroke-width="0.5" stroke-linecap="round" stroke-linejoin="round"/>
<path d="M399.289 140.838C396.849 130.283 389.941 126.631 383.846 122.97C381.06 121.298 380.144 118.439 379.967 115.824L379.658 118.664C379.518 117.02 379.518 115.656 379.686 114.675C379.789 114.059 379.92 113.395 380.06 112.676C379.948 113.601 379.882 114.694 379.967 115.824L380.593 109.977C380.593 109.977 380.593 110.005 380.574 110.033C381.5 104.793 381.939 97.8151 376.442 90.5014C369.104 80.731 354.428 84.1777 354.428 84.1777C354.428 84.1777 344.641 83.9535 344.033 89.4832C343.425 95.0223 347.071 100.178 351.997 101.281C351.997 101.281 352.998 103.42 354.138 106.595C353.624 107.1 353.222 107.679 352.96 108.351C352.96 108.351 354.587 109.164 355.4 114.442C356.213 119.719 348.09 129.461 348.903 135.962C349.717 142.454 356.625 142.454 356.213 146.116C355.811 149.768 350.932 148.955 351.334 153.42C351.624 156.624 357.148 160.669 360.7 163.592C360.513 166.805 360.429 170.075 360.644 172.905C358.962 175.866 357.242 179.742 357.438 184.674C357.681 190.69 363.243 192.829 368.525 191.418C369.983 191.026 371.394 190.493 372.75 189.858C377.732 191.857 389.819 190.316 395.634 180.62C401.729 170.467 396.036 167.226 395.634 159.912C395.232 152.608 401.729 151.384 399.289 140.829V140.838Z" fill="#263238"/>
<path d="M379.967 115.824C380.144 118.439 381.06 121.298 383.846 122.97C389.941 126.631 396.849 130.283 399.289 140.838V140.829C401.729 151.384 395.232 152.608 395.634 159.912C396.036 167.226 401.729 170.467 395.634 180.62C389.819 190.316 377.732 191.857 372.75 189.858C371.394 190.493 369.983 191.026 368.525 191.418C363.243 192.829 357.681 190.69 357.438 184.674C357.242 179.742 358.962 175.866 360.644 172.905C360.429 170.075 360.513 166.805 360.7 163.592C357.148 160.669 351.624 156.624 351.334 153.42C350.932 148.955 355.811 149.768 356.213 146.116C356.625 142.454 349.717 142.454 348.903 135.962C348.09 129.461 356.213 119.719 355.4 114.442C354.587 109.164 352.96 108.351 352.96 108.351C353.222 107.679 353.624 107.1 354.138 106.595C352.998 103.42 351.997 101.281 351.997 101.281C347.071 100.178 343.425 95.0223 344.033 89.4832C344.641 83.9535 354.428 84.1777 354.428 84.1777C354.428 84.1777 369.104 80.731 376.442 90.5014C381.939 97.8151 381.5 104.793 380.574 110.033C380.593 110.005 380.593 109.977 380.593 109.977L379.967 115.824ZM379.967 115.824L379.658 118.664C379.518 117.02 379.518 115.656 379.686 114.675C379.789 114.059 379.92 113.395 380.06 112.676C379.948 113.601 379.882 114.694 379.967 115.824Z" stroke="#263238" stroke-linecap="round" stroke-linejoin="round"/>
<path d="M351.268 93.0137C353.53 95.9373 357.278 100.159 361.896 103.074C369.618 107.949 364.336 122.568 358.241 129.059C352.146 135.551 353.362 141.651 360.27 144.892C367.178 148.133 379.368 151.795 372.459 163.573C365.551 175.352 364.738 184.683 374.899 187.532" stroke="white" stroke-width="0.5" stroke-linecap="round" stroke-linejoin="round"/>
<path d="M348.902 89.6797C348.902 89.6797 349.463 90.5857 350.492 91.9775" stroke="white" stroke-width="0.5" stroke-linecap="round" stroke-linejoin="round"/>
<path d="M383.547 186.16C384.977 186.459 386.389 186.244 387.501 185.506" stroke="white" stroke-width="0.5" stroke-linecap="round" stroke-linejoin="round"/>
<path d="M376.098 141.594C382.398 143.854 389.194 145.76 389.942 152.205C391.157 162.76 376.939 167.636 376.939 176.164C376.939 180.161 378.463 183.001 380.454 184.636" stroke="white" stroke-width="0.5" stroke-linecap="round" stroke-linejoin="round"/>
<path d="M361.906 103.072C361.906 103.072 371.656 106.724 374.096 112.815C376.536 118.905 361.495 127.834 366.375 135.55C367.88 137.922 370.572 139.417 373.619 140.65" stroke="white" stroke-width="0.5" stroke-linecap="round" stroke-linejoin="round"/>
<path d="M375.498 94.5273C375.498 94.5273 383.921 103.102 380.069 112.686C376.218 122.26 374.414 126.585 377.302 129.107C380.181 131.629 394.96 132.712 398.569 144.238" stroke="white" stroke-width="0.5" stroke-linecap="round" stroke-linejoin="round"/>
<path d="M341.311 175.203C341.311 175.203 332.813 168.917 328.784 161.977C324.756 155.037 321.381 149.115 321.465 148.358C321.549 147.601 321.96 143.818 320.783 142.352C319.605 140.885 315.585 139.111 315.062 138.662C314.538 138.223 313.444 139.438 314.669 140.531C315.894 141.623 317.09 142.903 317.09 142.903L309.266 140.904C309.266 140.904 308.555 142.165 309.416 143.025C310.276 143.884 312.734 144.155 312.828 145.117C312.912 146.079 315.398 147.882 316.445 148.76C317.501 149.638 318.062 149.703 318.062 149.703C318.062 149.703 322.54 164.732 325.69 171C328.831 177.277 333.636 184.114 336.983 185.048C340.329 185.992 344.414 180.126 344.414 180.126L341.32 175.194L341.311 175.203Z" fill="white" stroke="#263238" stroke-linecap="round" stroke-linejoin="round"/>
<path d="M356.099 145.062C356.099 145.062 351.547 148.201 350.126 152.441C348.705 156.682 341.451 166.985 340.404 169.553C339.357 172.113 338.479 173.168 338.479 173.168C338.479 173.168 339.395 178.819 343.283 181.724C347.172 184.639 348.35 184.386 348.35 184.386C348.35 184.386 362.325 161.623 364.625 156.327C366.924 151.031 362.119 142.475 356.09 145.062H356.099Z" fill="#F79236" stroke="#263238" stroke-linecap="round" stroke-linejoin="round"/>
</g>
<defs>
<clipPath id="clip0_2342_7561">
<rect width="404" height="393" fill="white"/>
</clipPath>
</defs>
</svg>
