<svg viewBox="0 0 466 438" fill="none" xmlns="http://www.w3.org/2000/svg">
<g clip-path="url(#clip0_2342_8383)">
<path d="M456.169 204.07C462.289 150.22 444.089 96.14 405.859 57.71C387.069 38.82 361.359 21.01 327.209 12.41C231.429 -11.71 169.359 10.39 138.329 69.07C107.299 127.76 18.2592 117.65 4.0892 218.83C-10.0808 320.02 58.7292 431.32 175.429 437.39C292.129 443.46 277.109 385.37 340.949 360.45C389.769 341.39 447.029 284.43 456.169 204.06V204.07Z" fill="#F79236"/>
<path opacity="0.7" d="M456.169 204.07C462.289 150.22 444.089 96.14 405.859 57.71C387.069 38.82 361.359 21.01 327.209 12.41C231.429 -11.71 169.359 10.39 138.329 69.07C107.299 127.76 18.2592 117.65 4.0892 218.83C-10.0808 320.02 58.7292 431.32 175.429 437.39C292.129 443.46 277.109 385.37 340.949 360.45C389.769 341.39 447.029 284.43 456.169 204.06V204.07Z" fill="white"/>
<path d="M0.5 366.5H464.56" stroke="#263238" stroke-miterlimit="10" stroke-linecap="round"/>
<path d="M334.82 16.4098C338.084 16.4098 340.73 13.7638 340.73 10.4998C340.73 7.23584 338.084 4.58984 334.82 4.58984C331.556 4.58984 328.91 7.23584 328.91 10.4998C328.91 13.7638 331.556 16.4098 334.82 16.4098Z" stroke="#263238" stroke-miterlimit="10" stroke-linecap="round"/>
<path d="M138.24 353.03C138.24 351.63 137.11 350.5 135.71 350.5C134.31 350.5 133.18 351.63 133.18 353.03C133.18 354.43 134.31 355.56 135.71 355.56C137.11 355.56 138.24 354.43 138.24 353.03Z" stroke="#263238" stroke-miterlimit="10" stroke-linecap="round"/>
<path d="M14.6395 196.099C16.2687 196.099 17.5895 194.778 17.5895 193.149C17.5895 191.52 16.2687 190.199 14.6395 190.199C13.0102 190.199 11.6895 191.52 11.6895 193.149C11.6895 194.778 13.0102 196.099 14.6395 196.099Z" stroke="#263238" stroke-miterlimit="10" stroke-linecap="round"/>
<path d="M58.0913 14.7098C60.8858 14.7098 63.1513 12.4444 63.1513 9.64984C63.1513 6.85528 60.8858 4.58984 58.0913 4.58984C55.2967 4.58984 53.0312 6.85528 53.0312 9.64984C53.0312 12.4444 55.2967 14.7098 58.0913 14.7098Z" stroke="#263238" stroke-miterlimit="10" stroke-linecap="round"/>
<path d="M462.22 286.38C462.22 284.52 460.71 283.01 458.85 283.01C456.99 283.01 455.48 284.52 455.48 286.38C455.48 288.24 456.99 289.75 458.85 289.75C460.71 289.75 462.22 288.24 462.22 286.38Z" stroke="#263238" stroke-miterlimit="10" stroke-linecap="round"/>
<path d="M162.75 17.2891L171.1 25.6391" stroke="#263238" stroke-miterlimit="10" stroke-linecap="round"/>
<path d="M171.1 17.2891L162.75 25.6391" stroke="#263238" stroke-miterlimit="10" stroke-linecap="round"/>
<path d="M104.41 347.971L112.76 356.321" stroke="#263238" stroke-miterlimit="10" stroke-linecap="round"/>
<path d="M112.76 347.971L104.41 356.321" stroke="#263238" stroke-miterlimit="10" stroke-linecap="round"/>
<path d="M441.211 207.16L449.561 215.51" stroke="#263238" stroke-miterlimit="10" stroke-linecap="round"/>
<path d="M449.561 207.16L441.211 215.51" stroke="#263238" stroke-miterlimit="10" stroke-linecap="round"/>
<path d="M1.65039 270.439L10.0004 278.789" stroke="#263238" stroke-miterlimit="10" stroke-linecap="round"/>
<path d="M10.0004 270.439L1.65039 278.789" stroke="#263238" stroke-miterlimit="10" stroke-linecap="round"/>
<path d="M423.49 17.0801L435.47 29.0601" stroke="#263238" stroke-miterlimit="10" stroke-linecap="round"/>
<path d="M435.47 17.0801L423.49 29.0601" stroke="#263238" stroke-miterlimit="10" stroke-linecap="round"/>
<path d="M278.58 376.43H184.67L198.75 324.59H264.49L278.58 376.43Z" fill="#7A7A7A" stroke="#2F3C42" stroke-miterlimit="10"/>
<path d="M272.201 352.95L264.491 324.59H198.751L191.051 352.95H272.201Z" fill="#2F3C42" stroke="#2F3C42" stroke-linecap="round" stroke-linejoin="round"/>
<path d="M303 376.43H160.25V381.69H303V376.43Z" fill="#7A7A7A" stroke="#2F3C42" stroke-miterlimit="10"/>
<path d="M434.629 72.2891H28.6094V330.029H434.629V72.2891Z" fill="#2F3C42" stroke="#2F3C42" stroke-miterlimit="10"/>
<path d="M421.619 82.1191H41.6191V320.209H421.619V82.1191Z" fill="white" stroke="#2F3C42" stroke-miterlimit="10"/>
<path d="M108.07 179.648H408.52" stroke="#2F3C42" stroke-miterlimit="10"/>
<path d="M108.07 267.92H408.52" stroke="#2F3C42" stroke-miterlimit="10"/>
<path opacity="0.13" d="M105.309 101.828H49.459V312.738H105.309V101.828Z" fill="#032A2F"/>
<path d="M58.3594 131.527C60.4304 131.527 62.1094 129.848 62.1094 127.777C62.1094 125.706 60.4304 124.027 58.3594 124.027C56.2883 124.027 54.6094 125.706 54.6094 127.777C54.6094 129.848 56.2883 131.527 58.3594 131.527Z" stroke="#2F3C42" stroke-miterlimit="10"/>
<path d="M67.5996 128.027H94.5696" stroke="#2F3C42" stroke-miterlimit="10"/>
<path d="M58.3594 151.258C60.4304 151.258 62.1094 149.579 62.1094 147.508C62.1094 145.437 60.4304 143.758 58.3594 143.758C56.2883 143.758 54.6094 145.437 54.6094 147.508C54.6094 149.579 56.2883 151.258 58.3594 151.258Z" stroke="#2F3C42" stroke-miterlimit="10"/>
<path d="M67.5996 147.758H94.5696" stroke="#2F3C42" stroke-miterlimit="10"/>
<path d="M58.3594 170.979C60.4304 170.979 62.1094 169.3 62.1094 167.229C62.1094 165.157 60.4304 163.479 58.3594 163.479C56.2883 163.479 54.6094 165.157 54.6094 167.229C54.6094 169.3 56.2883 170.979 58.3594 170.979Z" stroke="#2F3C42" stroke-miterlimit="10"/>
<path d="M67.5996 167.479H94.5696" stroke="#2F3C42" stroke-miterlimit="10"/>
<path d="M58.3594 190.709C60.4304 190.709 62.1094 189.03 62.1094 186.959C62.1094 184.888 60.4304 183.209 58.3594 183.209C56.2883 183.209 54.6094 184.888 54.6094 186.959C54.6094 189.03 56.2883 190.709 58.3594 190.709Z" stroke="#2F3C42" stroke-miterlimit="10"/>
<path d="M67.5996 187.209H94.5696" stroke="#2F3C42" stroke-miterlimit="10"/>
<path d="M58.3594 210.438C60.4304 210.438 62.1094 208.759 62.1094 206.688C62.1094 204.616 60.4304 202.938 58.3594 202.938C56.2883 202.938 54.6094 204.616 54.6094 206.688C54.6094 208.759 56.2883 210.438 58.3594 210.438Z" stroke="#2F3C42" stroke-miterlimit="10"/>
<path d="M67.5996 206.928H94.5696" stroke="#2F3C42" stroke-miterlimit="10"/>
<path d="M58.3594 230.158C60.4304 230.158 62.1094 228.479 62.1094 226.408C62.1094 224.337 60.4304 222.658 58.3594 222.658C56.2883 222.658 54.6094 224.337 54.6094 226.408C54.6094 228.479 56.2883 230.158 58.3594 230.158Z" stroke="#2F3C42" stroke-miterlimit="10"/>
<path d="M67.5996 226.658H94.5696" stroke="#2F3C42" stroke-miterlimit="10"/>
<path d="M418.86 39.6504H346.52V83.8404H418.86V39.6504Z" fill="#F79236" stroke="#263238" stroke-linecap="round" stroke-linejoin="round"/>
<path d="M346.52 39.6504L382.69 67.8804L418.86 39.6504H346.52Z" fill="#F79236" stroke="#263238" stroke-linecap="round" stroke-linejoin="round"/>
<path d="M346.52 83.8403L367.89 56.3203" stroke="#263238" stroke-linecap="round" stroke-linejoin="round"/>
<path d="M418.74 83.8409L397.1 56.1309" stroke="#263238" stroke-linecap="round" stroke-linejoin="round"/>
<path d="M389.109 140.669V131.819C391.169 130.219 393.019 128.429 394.669 126.469C396.319 124.499 397.619 122.409 398.579 120.189C399.539 117.969 400.019 115.669 400.019 113.289C400.019 111.599 399.709 110.369 399.089 109.619C398.469 108.869 397.569 108.489 396.379 108.489C395.279 108.489 394.419 108.809 393.809 109.449C393.189 110.089 392.879 110.979 392.879 112.129C392.879 112.859 392.959 113.509 393.119 114.089C393.279 114.659 393.469 115.269 393.699 115.909L383.609 118.239C383.239 117.139 382.959 116.079 382.749 115.049C382.539 114.019 382.439 112.929 382.439 111.789C382.439 107.759 383.659 104.619 386.109 102.349C388.559 100.089 392.069 98.9492 396.649 98.9492C401.229 98.9492 404.829 100.159 407.319 102.589C409.809 105.019 411.059 108.469 411.059 112.949C411.059 115.699 410.599 118.299 409.689 120.769C408.769 123.239 407.439 125.569 405.669 127.769C403.909 129.969 401.769 132.029 399.249 133.949V140.679H389.089L389.109 140.669ZM388.769 155.289V144.649H399.679V155.289H388.769Z" stroke="#263238" stroke-miterlimit="10"/>
<path d="M120.15 39.4004H59.7305V45.0604H120.15V39.4004Z" fill="#263238" stroke="#263238" stroke-linecap="round" stroke-linejoin="round"/>
<path d="M120.15 45.0605H59.7305V94.5505H120.15V45.0605Z" fill="#F79236" stroke="#263238" stroke-linecap="round" stroke-linejoin="round"/>
<path d="M104.39 69.8112L78.3496 54.7812V84.8412L104.39 69.8112Z" fill="#263238" stroke="#263238" stroke-linecap="round" stroke-linejoin="round"/>
<path d="M213.649 248.45H336.149C340.549 248.45 344.119 244.88 344.119 240.48V195.75L354.649 187.24H213.659C209.259 187.24 205.699 190.81 205.699 195.21V240.48C205.699 244.88 209.269 248.45 213.659 248.45H213.649Z" fill="#263238" stroke="#263238" stroke-miterlimit="10" stroke-linecap="round"/>
<path d="M266.488 231.34H223.738" stroke="white" stroke-miterlimit="10" stroke-linecap="round"/>
<path d="M325.279 231.34H274.609" stroke="white" stroke-miterlimit="10" stroke-linecap="round"/>
<path d="M240.788 219.791H223.738" stroke="white" stroke-miterlimit="10" stroke-linecap="round"/>
<path d="M282.72 219.791H247.1" stroke="white" stroke-miterlimit="10" stroke-linecap="round"/>
<path d="M325.278 219.791H291.738" stroke="white" stroke-miterlimit="10" stroke-linecap="round"/>
<path d="M238.988 208.24H223.738" stroke="white" stroke-miterlimit="10" stroke-linecap="round"/>
<path d="M325.279 208.24H247.559" stroke="white" stroke-miterlimit="10" stroke-linecap="round"/>
<path d="M354.82 100.189H232.32C227.92 100.189 224.35 103.759 224.35 108.159V152.889L213.82 161.399H354.81C359.21 161.399 362.77 157.829 362.77 153.429V108.159C362.77 103.759 359.2 100.189 354.81 100.189H354.82Z" fill="#F79236" stroke="#263238" stroke-miterlimit="10" stroke-linecap="round"/>
<path d="M264.24 117.289H344.73" stroke="#263238" stroke-miterlimit="10" stroke-linecap="round"/>
<path d="M243.189 117.289H260.179" stroke="#263238" stroke-miterlimit="10" stroke-linecap="round"/>
<path d="M295.801 128.85H344.731" stroke="#263238" stroke-miterlimit="10" stroke-linecap="round"/>
<path d="M243.189 128.85H289.039" stroke="#263238" stroke-miterlimit="10" stroke-linecap="round"/>
<path d="M332.77 140.4H344.73" stroke="#263238" stroke-miterlimit="10" stroke-linecap="round"/>
<path d="M243.189 140.4H324.199" stroke="#263238" stroke-miterlimit="10" stroke-linecap="round"/>
<path d="M264.09 314.03H141.59C137.19 314.03 133.62 310.46 133.62 306.06V261.33L123.09 252.82H264.08C268.48 252.82 272.04 256.39 272.04 260.79V306.06C272.04 310.46 268.47 314.03 264.08 314.03H264.09Z" fill="#F79236" stroke="#263238" stroke-miterlimit="10" stroke-linecap="round"/>
<path d="M238.09 296.93H254" stroke="#263238" stroke-miterlimit="10" stroke-linecap="round"/>
<path d="M175.42 296.93H231.32" stroke="#263238" stroke-miterlimit="10" stroke-linecap="round"/>
<path d="M152.459 296.93H170.909" stroke="#263238" stroke-miterlimit="10" stroke-linecap="round"/>
<path d="M225.91 285.371H254" stroke="#263238" stroke-miterlimit="10" stroke-linecap="round"/>
<path d="M152.459 285.371H219.599" stroke="#263238" stroke-miterlimit="10" stroke-linecap="round"/>
<path d="M240.789 273.82H253.999" stroke="#263238" stroke-miterlimit="10" stroke-linecap="round"/>
<path d="M182.18 273.82H235.83" stroke="#263238" stroke-miterlimit="10" stroke-linecap="round"/>
<path d="M152.459 273.82H176.769" stroke="#263238" stroke-miterlimit="10" stroke-linecap="round"/>
<path d="M408.091 299.732C408.091 299.732 409.541 305.181 405.371 318.431C401.201 331.681 392.301 345.481 392.481 353.281C392.661 361.081 400.291 381.231 399.561 392.311C398.831 403.381 397.021 413.911 397.561 417.361C398.101 420.811 400.101 423.892 400.101 427.161C400.101 430.432 400.101 431.521 398.101 432.241C396.101 432.971 392.651 432.061 392.651 432.061C392.651 432.061 376.681 427.521 374.681 426.801C372.681 426.081 368.871 423.351 369.421 420.991C369.961 418.631 372.691 420.082 375.231 419.172C377.771 418.262 381.221 416.081 381.951 414.632C382.681 413.182 384.851 395.752 384.851 388.132C384.851 380.511 380.671 354.001 380.671 354.001L378.311 313.882L381.581 298.271C381.581 298.271 402.641 303.721 408.081 299.721L408.091 299.732Z" fill="#F79236" stroke="#263238" stroke-miterlimit="10" stroke-linecap="round"/>
<path d="M398.111 432.24C400.111 431.51 400.111 430.42 400.111 427.16C400.111 423.9 398.111 420.81 397.571 417.36C397.251 415.34 397.741 410.89 398.351 405.33C397.101 405.81 395.321 406.34 392.821 406.81C388.831 407.57 385.481 406.48 383.471 405.5C382.891 410.19 382.281 413.99 381.961 414.63C381.231 416.08 377.791 418.26 375.241 419.17C372.691 420.08 369.981 418.63 369.431 420.99C368.891 423.35 372.701 426.07 374.691 426.8C376.691 427.53 392.661 432.06 392.661 432.06C392.661 432.06 396.111 432.97 398.111 432.24Z" fill="white" stroke="#263238" stroke-miterlimit="10" stroke-linecap="round"/>
<path d="M375.241 419.171C372.701 420.081 369.981 418.631 369.431 420.991C368.891 423.351 372.701 426.071 374.691 426.801C376.691 427.531 392.661 432.061 392.661 432.061C392.661 432.061 396.111 432.971 398.111 432.241C400.111 431.511 400.111 430.421 400.111 427.161C400.111 423.901 398.111 420.811 397.571 417.361C397.501 416.911 397.471 416.341 397.471 415.661C395.531 415.541 393.431 415.571 392.491 416.091C390.491 417.181 389.041 419.361 386.861 419.541C384.681 419.721 383.411 417.911 383.051 416.451C382.691 415.001 381.961 414.631 381.961 414.631C381.231 416.081 377.791 418.261 375.241 419.171Z" fill="white" stroke="#263238" stroke-miterlimit="10" stroke-linecap="round"/>
<path d="M398.111 432.241C400.111 431.511 400.111 430.421 400.111 427.161C400.111 426.941 400.081 426.731 400.061 426.511C399.011 426.591 396.601 427.901 395.131 428.011C385.551 428.751 386.721 427.541 378.241 425.331C373.301 424.041 371.501 421.511 370.851 419.621C370.151 419.761 369.631 420.101 369.431 420.991C368.891 423.351 372.701 426.071 374.691 426.801C376.691 427.531 392.661 432.061 392.661 432.061C392.661 432.061 396.111 432.971 398.111 432.241Z" fill="white" stroke="#263238" stroke-miterlimit="10" stroke-linecap="round"/>
<path d="M364.161 289.572C364.161 289.572 360.891 301.011 363.801 322.241C366.701 343.481 374.331 363.082 377.051 381.422C379.771 399.752 380.321 418.452 380.321 418.452C380.321 418.452 377.601 421.541 373.601 423.531C369.611 425.531 365.431 426.621 362.891 427.341C360.351 428.071 360.351 431.511 361.621 432.971C362.891 434.421 378.141 436.422 384.131 436.422C390.121 436.422 393.211 437.152 394.111 434.422C395.011 431.692 393.931 428.971 393.931 427.341C393.931 425.711 392.481 421.351 392.481 416.091C392.481 410.831 393.751 390.501 393.931 380.331C394.111 370.171 391.031 356.731 391.211 355.102C391.391 353.472 391.211 337.491 390.851 328.961C390.491 320.431 390.121 313.892 390.121 313.892L395.381 308.811C395.381 308.811 392.291 299.011 383.221 294.651C374.141 290.291 369.061 289.021 367.611 289.021C366.161 289.021 364.161 289.561 364.161 289.561V289.572Z" fill="#F79236" stroke="#263238" stroke-miterlimit="10" stroke-linecap="round"/>
<path d="M423.22 241.041C423.22 241.041 429.24 247.061 429.24 248.701C429.24 250.341 409.81 271.421 405.7 274.151L401.59 276.891L402.14 270.321L412.81 249.251L423.21 241.041H423.22Z" fill="white" stroke="#263238" stroke-miterlimit="10" stroke-linecap="round"/>
<path d="M410.75 221.031C410.75 221.031 416.11 224.081 416.93 225.991C417.75 227.911 425.69 242.411 425.69 242.411L412.83 249.251L409 243.781L410.76 221.031H410.75Z" fill="white" stroke="#263238" stroke-miterlimit="10" stroke-linecap="round"/>
<path d="M376.11 214.102C376.11 214.102 365.11 217.842 363.41 220.452C361.71 223.062 357.74 238.812 357.74 238.812C357.74 238.812 356.83 241.642 359.55 243.342C362.27 245.042 367.26 247.532 367.26 247.532C367.26 247.532 366.69 253.312 368.17 257.512C369.64 261.702 370.21 267.602 370.21 267.602C370.21 267.602 368.96 267.152 366.47 275.882C363.98 284.612 363.3 292.772 363.3 292.772C363.3 292.772 365.57 287.442 373.39 294.362C381.21 301.272 388.92 310.002 396.97 310.572C405.02 311.142 409.1 304.452 409.78 301.612C410.46 298.782 406.38 281.662 405.93 278.032C405.48 274.402 404.57 271.572 404.57 271.232C404.57 270.892 408.65 267.382 409.44 260.912C410.23 254.452 411.71 238.922 411.71 238.922C411.71 238.922 413.85 232.812 410.76 221.022C409.61 216.632 385.14 210.632 381.08 211.682C377.02 212.732 376.12 214.092 376.12 214.092L376.11 214.102Z" fill="white" stroke="#263238" stroke-miterlimit="10" stroke-linecap="round"/>
<path d="M382.201 177.221C382.201 177.221 378.671 180.311 377.701 182.521C376.731 184.731 377.791 184.731 375.401 185.611C373.021 186.491 370.631 186.851 370.981 187.911C371.331 188.971 372.661 190.291 372.661 190.291C372.661 190.291 370.811 197.801 370.811 199.651C370.811 201.501 372.131 201.861 373.111 201.951C374.091 202.041 378.761 202.741 378.761 202.741C378.761 202.741 380.971 208.481 381.061 210.691C381.151 212.901 381.501 214.581 381.501 214.581L381.791 212.661L390.061 211.991C390.061 211.991 386.971 188.701 386.181 183.411C385.391 178.111 383.351 176.611 382.211 177.231L382.201 177.221Z" fill="white" stroke="#263238" stroke-linecap="round" stroke-linejoin="round"/>
<path d="M378.74 185.381C378.53 186.131 378.16 186.681 377.93 186.621C377.7 186.551 377.68 185.891 377.89 185.141C378.1 184.391 378.47 183.841 378.7 183.901C378.93 183.971 378.95 184.631 378.74 185.381Z" fill="#263238"/>
<path d="M372.49 193.47C372.49 193.47 374.26 193.38 375.49 192.15" stroke="#263238" stroke-linecap="round" stroke-linejoin="round"/>
<path d="M378.58 182.52C378.58 182.52 379.64 181.81 380.26 183.49" stroke="#263238" stroke-miterlimit="10" stroke-linecap="round"/>
<path d="M373.65 239.391C373.49 241.161 373.24 242.401 373.16 242.671" stroke="#263238" stroke-miterlimit="10" stroke-linecap="round"/>
<path d="M368.17 221.701C368.17 221.701 371.23 222.831 372.93 228.841C373.77 231.821 373.89 235.081 373.77 237.691" stroke="#263238" stroke-miterlimit="10" stroke-linecap="round"/>
<path d="M373.611 226.121C373.611 226.121 375.541 227.931 375.081 235.871" stroke="#263238" stroke-miterlimit="10" stroke-linecap="round"/>
<path d="M368.74 249.471C368.74 249.471 372.03 242.901 371.8 241.651C371.57 240.401 369.08 237.681 365 237.571C360.92 237.461 359.45 238.701 359.11 239.501C358.77 240.291 353.44 252.881 354.35 259.001C355.26 265.121 357.3 269.661 358.54 272.941C359.79 276.231 361.6 279.401 361.83 280.311C362.06 281.221 361.94 283.141 363.98 284.051C366.02 284.961 370.33 282.121 371.46 280.761C372.59 279.401 372.48 276.451 373.16 275.551C373.84 274.641 375.65 272.261 375.99 270.791C376.33 269.321 376.22 267.051 375.2 268.301C374.18 269.551 373.84 270.911 372.82 271.811C371.8 272.721 370.44 272.601 370.44 272.601C370.44 272.601 369.42 270.671 368.51 270.451C367.6 270.221 367.04 270.221 367.04 270.221C367.04 270.221 365.57 259.451 365.68 257.861C365.79 256.271 368.74 249.471 368.74 249.471Z" fill="white" stroke="#263238" stroke-miterlimit="10" stroke-linecap="round"/>
<path d="M367.041 270.211C367.041 270.211 367.151 274.181 367.721 275.201C368.291 276.221 370.331 277.351 370.211 278.941" stroke="#263238" stroke-miterlimit="10" stroke-linecap="round"/>
<path d="M356.27 259.221C356.27 259.221 356.95 261.831 358.99 262.051" stroke="#263238" stroke-miterlimit="10" stroke-linecap="round"/>
<path d="M372.34 261.061C372.34 261.061 376.26 268.111 377.43 272.031C378.6 275.951 378.02 278.301 385.85 279.281" stroke="#263238" stroke-miterlimit="10" stroke-linecap="round"/>
<path d="M384.68 276.542C384.68 276.542 405.25 269.682 401.33 273.012C397.41 276.342 394.87 276.142 394.87 276.142" stroke="#263238" stroke-miterlimit="10" stroke-linecap="round"/>
<path d="M396.4 285.021C396.89 285.581 397.37 286.212 397.81 286.922" stroke="#263238" stroke-miterlimit="10" stroke-linecap="round"/>
<path d="M388.6 280.65C388.6 280.65 391.05 280.9 393.72 282.68" stroke="#263238" stroke-miterlimit="10" stroke-linecap="round"/>
<path d="M384.129 436.42C390.119 436.42 393.209 437.15 394.109 434.42C395.019 431.7 393.929 428.97 393.929 427.34C393.929 425.71 392.479 421.35 392.479 416.09C392.479 414.35 392.619 410.95 392.809 406.82C391.859 407.46 390.529 408.1 388.669 408.65C385.059 409.71 381.829 408.72 379.769 407.72C380.199 414.18 380.319 418.45 380.319 418.45C380.319 418.45 377.599 421.54 373.599 423.53C369.609 425.53 365.429 426.62 362.889 427.34C360.349 428.06 360.349 431.51 361.619 432.97C362.889 434.42 378.139 436.42 384.129 436.42Z" fill="white" stroke="#263238" stroke-miterlimit="10" stroke-linecap="round"/>
<path d="M394.11 434.421C395.02 431.701 393.93 428.971 393.93 427.341C393.93 426.171 393.19 423.601 392.76 420.301C392.3 420.241 391.83 420.221 391.38 420.261C389.38 420.441 387.75 422.441 385.57 423.711C383.39 424.981 381.58 423.171 381.58 423.171C381.58 423.171 380.85 423.531 381.4 420.991C381.94 418.451 380.31 418.451 380.31 418.451C380.31 418.451 377.59 421.541 373.59 423.531C369.6 425.531 365.42 426.621 362.88 427.341C360.34 428.061 360.34 431.511 361.61 432.971C362.88 434.421 378.13 436.421 384.12 436.421C390.11 436.421 393.2 437.151 394.1 434.421H394.11Z" fill="white" stroke="#263238" stroke-miterlimit="10" stroke-linecap="round"/>
<path d="M370.519 432.6C365.699 431.8 362.259 430.8 360.789 430.33C360.759 431.33 361.069 432.34 361.619 432.97C362.889 434.42 378.139 436.42 384.129 436.42C390.119 436.42 393.209 437.15 394.109 434.42C394.299 433.85 394.389 433.28 394.429 432.72C392.409 432.74 389.409 432.7 384.849 432.79C375.769 432.97 377.039 433.7 370.509 432.61L370.519 432.6Z" fill="white" stroke="#263238" stroke-miterlimit="10" stroke-linecap="round"/>
<path d="M410.17 202.381L409.9 202.341C408.38 197.081 409.59 194.701 408.52 189.061C407.28 182.531 406.75 178.291 399.07 175.371C391.39 172.461 381.67 170.251 382.03 174.491C382.03 174.491 379.56 178.461 381.24 183.141C382.92 187.821 384.51 191.181 380.53 197.621C380.53 197.621 377.33 200.371 377.1 203.501C376.87 206.631 378.22 208.861 375.54 210.201C372.86 211.541 371.74 210.651 371.74 210.651C371.74 210.651 381.35 218.921 391.18 218.921C401.01 218.921 411.06 214.681 411.06 214.681C411.06 214.681 414.63 209.091 410.17 202.391V202.381Z" fill="#263238" stroke="#263238" stroke-miterlimit="10" stroke-linecap="round"/>
<path d="M201.85 179.649C199.99 173.879 197.46 164.539 197.28 163.459C197.03 161.949 195.77 160.179 194.88 159.679C194 159.179 182.91 152.229 182.91 152.229C182.91 152.229 177.49 150.719 173.33 150.209C169.17 149.699 158.58 149.709 158.58 149.709C158.58 149.709 144.19 153.389 143.18 155.399C142.36 157.029 142.8 172.559 143 179.649H201.86H201.85Z" fill="#F79236" stroke="#263238" stroke-miterlimit="10"/>
<path d="M193.549 165.42L195.919 178.96" stroke="#263238" stroke-miterlimit="10"/>
<path d="M182.24 157.239L187.02 154.119L182.91 152.229L182.24 157.239Z" fill="#263238"/>
<path d="M164.619 164.439C164.619 164.439 170.869 160.359 171.639 160.359C172.409 160.359 174.649 160.709 174.649 160.709C174.649 160.709 176.109 158.949 177.639 159.339C179.169 159.719 184.429 162.249 184.429 162.249C184.429 162.249 179.939 156.789 179.179 155.899C178.409 155.009 171.139 154.369 169.739 155.639C168.339 156.909 164.639 164.439 164.639 164.439H164.619Z" fill="#263238"/>
<path d="M149.88 179.649C150.46 176.029 150.54 173.559 150.54 173.559L148.98 165.119C148.98 165.119 147.99 155.809 143.92 155.359C139.85 154.909 136.85 160.719 135.79 161.989C134.83 163.139 130 175.569 127.33 179.649H149.88Z" fill="#F79236" stroke="#263238" stroke-miterlimit="10"/>
<path d="M161.319 145.929C161.319 145.929 158.729 146.579 158.489 147.139C158.249 147.709 157.439 150.859 157.439 150.859C157.439 150.859 158.089 154.089 158.969 156.349C159.849 158.609 162.359 162.489 162.359 163.139C162.359 163.789 162.759 166.129 163.649 165.969C164.539 165.809 164.939 163.629 166.069 162.579C167.199 161.529 171.479 158.379 171.809 158.379C172.139 158.379 174.309 161.049 174.639 160.719C174.959 160.399 176.819 157.889 176.819 157.889C176.819 157.889 177.139 157.159 177.709 157.489C178.279 157.809 180.289 160.559 181.589 161.609C182.879 162.659 184.579 163.549 184.419 162.259C184.259 160.969 182.319 157.739 182.239 157.249C182.159 156.759 183.529 153.209 183.689 152.479C183.849 151.749 182.479 148.199 181.269 146.989C180.059 145.779 178.679 145.369 178.679 145.369C178.679 145.369 168.989 144.799 161.309 145.939L161.319 145.929Z" fill="white" stroke="#263238" stroke-miterlimit="10"/>
<path d="M160.65 140.789C160.65 140.789 161.15 149.399 161.65 150.389C162.15 151.379 171.5 156.749 172.13 157.249C172.75 157.749 174.62 159.249 174.62 159.249C174.62 159.249 176.86 155.629 177.49 154.639C178.11 153.639 180.11 151.269 180.36 150.279C180.61 149.279 179.49 143.789 179.49 143.789L160.66 140.799L160.65 140.789Z" fill="white" stroke="#263238" stroke-miterlimit="10"/>
<path d="M176.739 143.35L172.939 148.83L178.219 153.03L178.549 153.16C179.319 152.12 180.199 150.92 180.359 150.28C180.609 149.28 179.489 143.79 179.489 143.79L176.749 143.35H176.739Z" fill="#263238"/>
<path d="M158.25 111.56C158.25 111.56 154.61 113.62 153.66 117.65C152.71 121.68 155.64 129.84 155.72 130.15C155.8 130.47 153.98 130.07 153.98 132.45C153.98 134.83 156.2 137.59 156.2 137.59C156.2 137.59 156.99 139.49 158.42 139.96C159.84 140.43 160.08 139.72 160.08 139.72C160.08 139.72 161.03 143.99 165.07 147C169.11 150.01 172.43 150.96 176.31 149.14C180.19 147.32 182.09 140.04 182.48 136.79C182.88 133.55 181.45 124.44 180.82 122.15C180.19 119.85 179.95 115.03 176.47 112.1C172.99 109.17 164.68 106.64 158.27 111.55L158.25 111.56Z" fill="white" stroke="#263238" stroke-miterlimit="10"/>
<path d="M169.901 124.76C169.901 124.76 170.501 126.44 170.231 126.63C169.951 126.82 166.471 126.95 165.271 127.46C164.081 127.98 163.371 128.66 163.371 128.66C163.371 128.66 163.781 126.44 164.821 125.98C165.861 125.52 167.101 124.9 168.051 124.9C169.001 124.9 169.791 123.76 169.891 124.75L169.901 124.76Z" fill="#263238"/>
<path d="M174.381 123.659C174.381 123.659 174.541 125.439 174.821 125.489C175.101 125.539 177.771 124.239 178.861 124.229C179.951 124.209 180.731 124.549 180.731 124.549C180.731 124.549 179.611 122.699 178.651 122.699C177.701 122.699 176.531 122.649 175.821 123.039C175.111 123.429 174.091 122.709 174.381 123.659Z" fill="#263238"/>
<path d="M155.721 130.16C155.721 130.16 156.351 132.14 157.141 132.46C157.931 132.78 158.411 132.22 158.331 130.32C158.301 129.56 158.341 128.93 158.411 128.43C158.511 127.67 158.681 127.21 158.721 127.07C158.801 126.83 159.191 128.65 159.191 128.65C159.191 128.65 160.611 128.1 160.851 125.56C161.091 123.03 160.691 121.13 160.851 120.5C161.011 119.87 162.591 118.52 162.591 118.52L162.351 120.18C162.351 120.18 165.121 119.63 167.411 119.39C169.711 119.15 172.631 117.97 172.631 117.97L171.601 119.87C171.601 119.87 173.181 120.58 175.791 118.45C178.401 116.32 177.531 114.02 177.531 114.02L179.271 116.87L180.221 119.56L181.091 123.52C181.091 123.52 181.801 121.7 181.881 120.91C181.961 120.12 181.881 117.11 181.881 117.11C181.881 117.11 182.041 119.48 182.591 118.06C183.141 116.64 184.091 116.56 182.911 114.74C181.731 112.92 178.871 110.78 178.641 110.7C178.411 110.62 181.171 111.33 181.091 110.3C181.011 109.27 175.151 106.58 172.151 105.63C169.151 104.68 163.371 104.68 159.571 107.21C155.771 109.74 152.681 113.46 152.681 113.46C152.681 113.46 150.461 117.18 150.461 121.06C150.461 124.94 153.201 127.19 153.391 127.55C154.861 130.3 154.311 127.48 153.941 126.52C153.941 126.52 153.941 128.82 155.681 130.16H155.721Z" fill="#263238" stroke="#263238" stroke-miterlimit="10"/>
<path d="M169.48 130.181C169.57 130.941 169.21 131.601 168.69 131.661C168.17 131.721 167.68 131.151 167.59 130.391C167.5 129.631 167.86 128.971 168.38 128.911C168.9 128.851 169.39 129.421 169.48 130.181Z" fill="#263238"/>
<path d="M178.652 128.659C178.742 129.419 178.382 130.079 177.862 130.139C177.342 130.199 176.852 129.629 176.762 128.869C176.672 128.109 177.032 127.449 177.552 127.389C178.072 127.329 178.562 127.899 178.652 128.659Z" fill="#263238"/>
<path d="M176.131 133.4C176.131 133.4 177.321 134.98 177.321 135.54C177.321 136.1 176.371 137.68 175.661 137.91C174.951 138.15 173.441 137.36 172.891 137.28" stroke="#263238" stroke-miterlimit="10"/>
<path d="M170.619 141.16C170.619 141.16 176.009 143.24 179.509 138.51" stroke="#263238" stroke-miterlimit="10"/>
<path d="M172.65 141.599C172.65 141.599 173.57 144.329 175.21 144.079C177.81 143.679 178.19 139.879 178.19 139.879C178.19 139.879 176.21 141.809 172.66 141.599H172.65Z" fill="#263238" stroke="#263238" stroke-miterlimit="10"/>
<path d="M177.181 142.76C175.721 142.39 174.171 142.38 173.041 142.46C173.451 143.24 174.201 144.25 175.221 144.09C176.111 143.95 176.741 143.41 177.191 142.77L177.181 142.76Z" fill="white" stroke="#263238" stroke-miterlimit="10"/>
<path d="M75.2502 412.94C75.2502 412.94 79.6702 419.85 82.2702 421.76C84.8602 423.66 95.9302 426.77 96.7902 427.29C97.6502 427.81 99.7302 432.13 92.9902 432.82C86.2502 433.51 72.8502 429.94 70.0802 430.63C67.3102 431.32 61.4402 432.19 59.0202 430.98C56.6002 429.77 58.5002 414.73 58.5002 414.73C58.5002 414.73 72.8202 410.82 75.2502 412.95V412.94Z" fill="white" stroke="#263238" stroke-linecap="round" stroke-linejoin="round"/>
<path d="M92.1986 299.53C92.1986 299.53 88.8586 335.11 85.0386 348.48C81.2186 361.85 77.1586 379.52 76.6786 380.95C76.1986 382.38 74.0486 402.68 74.0486 402.68C74.0486 402.68 75.7186 404.11 75.7186 404.83C75.7186 405.55 75.2386 412.95 75.2386 412.95L69.0286 412.23C69.0286 412.23 68.3086 404.59 68.3086 396.47C68.3086 388.35 74.2786 333.67 75.2286 329.61C76.1786 325.55 80.9586 298.57 80.9586 298.57L92.1786 299.53H92.1986Z" fill="#263238" stroke="#263238" stroke-linecap="round" stroke-linejoin="round"/>
<path d="M72.6695 411.619C72.6695 411.619 77.1595 418.879 79.9295 421.299C82.6995 423.719 92.8095 427.809 94.5395 428.329C96.2695 428.849 96.4395 430.229 96.2695 432.479C96.0995 434.729 91.8595 435.469 79.7595 435.989C67.6595 436.509 57.6295 435.639 55.5595 435.299C53.4895 434.949 52.7895 433.569 53.4895 430.629C54.1795 427.689 56.0795 416.449 56.0795 416.449L72.6795 411.609L72.6695 411.619Z" fill="white" stroke="#263238" stroke-linecap="round" stroke-linejoin="round"/>
<path d="M68.8695 432.189L53.6895 429.689C53.6095 430.059 53.5395 430.379 53.4795 430.639C52.7895 433.579 53.4795 434.959 55.5495 435.309C57.6195 435.659 67.6495 436.519 79.7495 435.999C91.8495 435.479 96.0895 434.739 96.2595 432.489C96.3195 431.759 96.3295 431.129 96.2595 430.579C93.4795 431.309 88.2295 432.339 85.2495 432.709C81.8295 433.139 68.8495 432.199 68.8495 432.199L68.8695 432.189Z" fill="white" stroke="#263238" stroke-linecap="round" stroke-linejoin="round"/>
<path d="M56.6196 303.579L58.0496 356.109C58.0496 356.109 53.9896 362.079 54.9496 376.409C55.9096 390.739 57.0996 410.079 57.0996 410.079L54.9496 412.229L55.4296 418.679C55.4296 418.679 59.2496 418.679 62.8296 417.719C66.4096 416.759 71.1896 414.139 71.1896 414.139C71.1896 414.139 73.5796 412.949 73.0996 410.559C72.6196 408.169 71.1896 406.979 71.6696 405.069C72.1496 403.159 78.3596 355.879 79.0696 352.059C79.7896 348.239 86.9496 308.839 86.9496 308.839L89.8196 297.379L56.1496 298.569L56.6296 303.579H56.6196Z" fill="#263238" stroke="#263238" stroke-linecap="round" stroke-linejoin="round"/>
<path d="M93.619 258.189C93.619 258.189 98.279 279.379 99.769 288.279C101.249 297.179 99.769 305.449 99.769 305.449H90.659L88.959 255.859L93.619 258.189Z" fill="#F79236" stroke="#263238" stroke-linecap="round" stroke-linejoin="round"/>
<path d="M79.5103 212.599C79.5103 212.599 87.1203 219.329 88.0103 221.649C88.8903 223.969 105.89 244.819 107.21 246.479C108.53 248.139 107.87 249.459 107.21 250.449C106.55 251.439 90.4403 255.079 89.0003 253.429C87.5703 251.769 85.5803 237.759 84.3703 230.919C83.1603 224.079 75.3203 214.369 75.3203 212.599C75.3203 210.829 79.5103 212.599 79.5103 212.599Z" fill="#F79236" stroke="#263238" stroke-linecap="round" stroke-linejoin="round"/>
<path d="M101.799 246.919C101.799 246.919 104.779 245.259 105.769 245.379C106.759 245.489 109.959 247.589 110.849 250.569C111.739 253.549 113.059 256.309 110.629 258.849C108.199 261.389 102.679 262.709 100.699 262.049C98.709 261.389 96.399 258.739 96.729 257.529C97.059 256.319 101.809 246.939 101.809 246.939L101.799 246.919Z" fill="#F79236" stroke="#263238" stroke-linecap="round" stroke-linejoin="round"/>
<path d="M76.5996 208.34L79.1796 209.18C79.1796 209.18 82.4896 213.26 81.7196 213.7C80.9496 214.14 75.0996 211.49 75.0996 211.49L76.6096 208.33L76.5996 208.34Z" fill="white" stroke="#263238" stroke-linecap="round" stroke-linejoin="round"/>
<path d="M74.0488 209.44C74.0488 209.44 85.7788 220.07 87.0588 223.73C88.3388 227.39 96.5888 302.89 96.5888 302.89L56.2788 300.69L64.5288 261.66L55.5488 212.55L65.4488 205.77L74.0588 209.43L74.0488 209.44Z" fill="white" stroke="#263238" stroke-linecap="round" stroke-linejoin="round"/>
<path d="M74.0498 209.439C74.0498 209.439 80.4598 221.899 82.1098 229.599C83.7598 237.299 81.7398 305.459 81.7398 305.459L50.4098 305.829L55.9098 268.449C55.9098 268.449 48.5798 218.789 49.4998 215.489C50.4198 212.189 58.4798 205.779 58.4798 205.779L74.0598 209.439H74.0498Z" fill="#F79236" stroke="#263238" stroke-linecap="round" stroke-linejoin="round"/>
<path d="M86.1101 185.289C85.9001 184.259 83.3001 182.039 82.9201 181.139C82.5401 180.239 83.3901 179.089 83.4201 177.809C83.4601 176.529 80.7401 172.269 80.7201 172.249C76.0101 167.379 70.0101 164.299 63.4401 167.509C57.3101 170.509 51.7501 177.409 52.2501 184.309C52.2801 184.719 52.3301 185.179 52.4001 185.649C52.6801 186.409 53.1001 187.149 53.7401 187.799C56.3201 190.409 60.2001 195.099 61.1101 197.169C62.0201 199.239 61.5301 203.909 61.5301 203.909L76.4901 211.969C76.4901 211.969 76.5901 211.389 76.5901 208.329C76.5901 205.269 78.4001 200.439 79.1301 200.189C79.8601 199.939 85.3501 199.519 85.6101 197.409C85.8701 195.299 84.0501 188.229 84.0501 188.229C84.0501 188.229 86.3001 186.309 86.0901 185.269L86.1101 185.289Z" fill="#CFCFCF" stroke="#263238" stroke-linecap="round" stroke-linejoin="round"/>
<path d="M74.1399 167.39C70.8599 165.91 67.2499 165.65 63.4499 167.51C57.3199 170.51 51.7599 177.41 52.2599 184.31C52.2899 184.72 52.3399 185.18 52.4099 185.65C52.6899 186.41 53.1099 187.15 53.7499 187.8C55.5999 189.67 58.1099 192.6 59.7199 194.88L62.6299 186.16L65.7199 184.3C65.7199 184.3 64.1699 183.06 64.3299 181.98C64.4799 180.9 66.9599 179.35 67.1199 177.96C67.2699 176.57 64.3299 175.17 65.4199 172.85C66.2799 171 70.7899 168.36 74.1499 167.37L74.1399 167.39Z" fill="#263238" stroke="#263238" stroke-linecap="round" stroke-linejoin="round"/>
<path d="M80.8103 178.669C80.8103 178.669 79.1403 178.239 77.9003 178.889C76.6603 179.529 76.0703 180.079 76.0703 180.079" stroke="#263238" stroke-linecap="round" stroke-linejoin="round"/>
<path d="M80.1092 182.249C80.2492 182.949 79.9692 183.599 79.4692 183.699C78.9792 183.799 78.4592 183.309 78.3192 182.609C78.1792 181.909 78.4592 181.259 78.9592 181.159C79.4492 181.059 79.9692 181.549 80.1092 182.249Z" fill="#263238"/>
<path d="M64.4493 187.02C64.4493 187.02 62.5293 184.77 60.6993 185.43C58.8793 186.09 60.0993 189.27 61.6493 191.11C63.1993 192.95 64.5293 193.76 65.9393 192.01" fill="#CFCFCF"/>
<path d="M64.4493 187.02C64.4493 187.02 62.5293 184.77 60.6993 185.43C58.8793 186.09 60.0993 189.27 61.6493 191.11C63.1993 192.95 64.5293 193.76 65.9393 192.01" stroke="#263238" stroke-linecap="round" stroke-linejoin="round"/>
<path d="M79.1391 200.199L74.8691 200.379L78.0191 203.359C78.0191 203.359 78.6191 200.499 79.1391 200.199Z" fill="#263238" stroke="#263238" stroke-linecap="round" stroke-linejoin="round"/>
<path d="M60.1187 201.559L58.4688 205.769L72.5788 215.119L76.5987 208.339L60.1187 201.559Z" fill="#F79236" stroke="#263238" stroke-linecap="round" stroke-linejoin="round"/>
<path d="M81.0491 262.15C81.0491 262.15 88.5491 264.36 91.3091 263.36C94.0691 262.37 98.0391 258.73 98.6991 257.62C99.3591 256.52 97.5991 253.65 97.0391 253.21C96.4891 252.77 94.3891 253.1 93.1791 252.55C91.9691 252 90.6391 251.45 89.7591 250.89C88.8791 250.34 86.8891 249.35 86.8891 249.35L81.0391 262.15H81.0491Z" fill="#CFCFCF" stroke="#263238" stroke-linecap="round" stroke-linejoin="round"/>
<path d="M90.6504 246.139C90.6504 246.139 91.7504 240.399 92.0804 239.959C92.4104 239.519 94.5104 235.989 95.2804 236.319C96.0504 236.649 96.1604 236.429 95.8304 237.419C95.5004 238.409 94.8404 239.739 94.7304 240.289C94.6204 240.839 94.5104 242.169 94.5104 242.499C94.5104 242.829 96.5004 238.639 97.0504 238.089C97.6004 237.539 98.9304 238.089 98.9304 238.859C98.9304 239.629 96.9404 243.719 96.8304 244.049C96.7204 244.379 99.3704 240.959 100.36 240.959C101.35 240.959 102.46 241.399 102.35 242.059C102.24 242.719 101.25 243.049 100.92 243.379C100.59 243.709 99.4904 245.809 99.4904 245.809C99.4904 245.809 102.14 243.049 102.8 244.039C103.46 245.029 101.81 246.909 101.81 246.909L101.26 247.679L90.6704 246.129L90.6504 246.139Z" fill="#CFCFCF" stroke="#263238" stroke-linecap="round" stroke-linejoin="round"/>
<path d="M82.7087 247.689C82.7087 247.689 85.6887 246.029 87.4587 245.809C89.2287 245.589 100.919 246.029 102.799 246.469C104.679 246.909 107.429 248.459 107.209 253.419C106.989 258.389 101.799 259.599 100.809 259.709C99.8187 259.819 95.0687 256.069 93.3087 255.189C91.5387 254.309 85.0287 251.329 85.0287 251.329L81.7188 249.899L82.7087 247.689Z" fill="#CFCFCF" stroke="#263238" stroke-linecap="round" stroke-linejoin="round"/>
<path d="M59.2195 213.289C59.2195 213.289 62.8195 214.669 64.8995 217.719C66.9795 220.769 69.0495 225.199 69.0495 225.199L85.2495 246.659C85.2495 246.659 84.8295 256.209 82.1995 258.569C79.5695 260.919 74.8595 261.749 74.8595 261.749L58.3795 245.139C58.3795 245.139 53.1195 243.479 51.8695 241.539C50.6195 239.599 46.0495 228.249 46.8895 221.329C47.7295 214.409 53.9495 212.469 53.9495 212.469" fill="#F79236"/>
<path d="M59.2195 213.289C59.2195 213.289 62.8195 214.669 64.8995 217.719C66.9795 220.769 69.0495 225.199 69.0495 225.199L85.2495 246.659C85.2495 246.659 84.8295 256.209 82.1995 258.569C79.5695 260.919 74.8595 261.749 74.8595 261.749L58.3795 245.139C58.3795 245.139 53.1195 243.479 51.8695 241.539C50.6195 239.599 46.0495 228.249 46.8895 221.329C47.7295 214.409 53.9495 212.469 53.9495 212.469" stroke="#263238" stroke-linecap="round" stroke-linejoin="round"/>
<path d="M84.4191 245.689C84.4191 245.689 84.2791 248.599 82.0691 252.609C79.8491 256.629 77.7791 259.259 77.3591 259.389C76.9391 259.529 74.8691 261.739 74.8691 261.739C74.8691 261.739 78.8891 263.259 79.5791 263.259C80.2691 263.259 84.1491 261.739 86.4991 258.409C88.8491 255.089 88.8491 250.659 88.0191 248.299C87.1891 245.949 85.3891 244.699 84.4191 245.669V245.689Z" fill="#F79236" stroke="#263238" stroke-linecap="round" stroke-linejoin="round"/>
<path d="M83.0491 191.28C83.0491 191.28 81.6591 192.21 78.8691 190.66" stroke="#263238" stroke-linecap="round" stroke-linejoin="round"/>
</g>
<defs>
<clipPath id="clip0_2342_8383">
<rect width="465.06" height="437.84" fill="white"/>
</clipPath>
</defs>
</svg>
