<svg  viewBox="0 0 453 443" fill="none" xmlns="http://www.w3.org/2000/svg">
<g clip-path="url(#clip0_2342_7814)">
<path opacity="0.7" d="M120.88 2.69021C209.38 -14.5098 269.97 55.5702 292.07 79.9602C314.25 104.43 336.43 128.89 358.6 153.36C378.75 175.59 399.45 198.81 406.12 226.1C414.4 259.97 409.64 318.42 381.37 343.74C353.1 369.06 313.4 384.21 272.58 390.59C231.76 396.97 189.68 395.11 148.54 390.38C124.75 387.64 100.83 383.88 78.9702 375.6C57.1002 367.32 37.2402 354.11 26.3902 336.27C13.3602 314.84 14.6202 289.32 20.1602 265.75C25.7102 242.18 35.2202 219.2 37.8402 195.28C40.1302 174.54 -3.04978 26.7702 120.88 2.69021Z" fill="#F79236"/>
<path opacity="0.7" d="M381.211 343.84C352.941 369.16 313.251 384.31 272.431 390.69C244.781 395.01 216.541 395.55 188.421 393.98C185.531 393.82 182.631 393.64 179.751 393.43C169.261 392.68 158.801 391.68 148.391 390.48C143.651 389.93 138.921 389.36 134.181 388.69C131.851 388.36 129.511 388.03 127.181 387.66C120.381 386.61 113.611 385.39 106.961 383.91C103.021 383.05 99.1308 382.08 95.2708 381.02C93.8208 380.62 92.3708 380.2 90.9208 379.77C87.9008 378.87 84.9008 377.89 81.9408 376.83C80.8908 376.46 79.8508 376.07 78.8108 375.69C62.0708 369.36 46.4908 360.12 35.2508 348.13C31.8108 344.47 28.7708 340.55 26.2308 336.37C13.2108 314.94 14.4608 289.41 20.0008 265.85C25.5408 242.28 35.0708 219.3 37.6808 195.38C39.9808 174.65 -3.1992 26.8696 120.721 2.79959C209.221 -14.4004 269.811 55.6796 291.911 80.0696C314.091 104.54 336.271 129 358.441 153.47C378.591 175.7 399.301 198.93 405.971 226.21C414.241 260.09 409.491 318.53 381.211 343.85V343.84Z" fill="white"/>
<path d="M234.539 88.6895L288.839 208.889" stroke="#263238" stroke-linecap="round" stroke-linejoin="round"/>
<path d="M342.23 182.99L352.35 211.16" stroke="#263238" stroke-linecap="round" stroke-linejoin="round"/>
<path d="M141.01 120.469L272.33 214.569" stroke="#263238" stroke-linecap="round" stroke-linejoin="round"/>
<path d="M129.34 226.75L271.13 255.18" stroke="#263238" stroke-linecap="round" stroke-linejoin="round"/>
<path d="M81.9492 331.389H188.429V393.979" stroke="#5C5C5C" stroke-linecap="round" stroke-linejoin="round"/>
<path d="M81.9492 359.079V331.389" stroke="#5C5C5C" stroke-linecap="round" stroke-linejoin="round"/>
<path d="M81.9492 366.839V362.889" stroke="#5C5C5C" stroke-linecap="round" stroke-linejoin="round"/>
<path d="M84.0702 326.699H32.6602V331.379H84.0702V326.699Z" stroke="#5C5C5C" stroke-linecap="round" stroke-linejoin="round"/>
<path d="M81.9492 370.77V376.85" stroke="#5C5C5C" stroke-linecap="round" stroke-linejoin="round"/>
<path d="M35.2598 348.139V331.389H81.9498" stroke="#5C5C5C" stroke-linecap="round" stroke-linejoin="round"/>
<path d="M179.75 337.068H90.9297V357.608H179.75V337.068Z" stroke="#5C5C5C" stroke-linecap="round" stroke-linejoin="round"/>
<path d="M179.75 337.068H90.9297V357.608H179.75V337.068Z" stroke="#5C5C5C" stroke-linecap="round" stroke-linejoin="round"/>
<path d="M179.75 360.5V381.04H95.2699C93.8199 380.64 92.3699 380.22 90.9199 379.79V360.5H179.75Z" stroke="#5C5C5C" stroke-linecap="round" stroke-linejoin="round"/>
<path d="M179.75 360.5V381.04H95.2699C93.8199 380.64 92.3699 380.22 90.9199 379.79V360.5H179.75Z" stroke="#5C5C5C" stroke-linecap="round" stroke-linejoin="round"/>
<path d="M123.631 383.92H179.751V393.44" stroke="#5C5C5C" stroke-linecap="round" stroke-linejoin="round"/>
<path d="M106.961 383.92H116.441" stroke="#5C5C5C" stroke-linecap="round" stroke-linejoin="round"/>
<path d="M119.551 383.92H179.751V393.44" stroke="#5C5C5C" stroke-linecap="round" stroke-linejoin="round"/>
<path d="M106.961 383.92H113.791" stroke="#5C5C5C" stroke-linecap="round" stroke-linejoin="round"/>
<path d="M140.851 341.858H129.831C128.161 341.858 126.681 340.798 126.131 339.228L125.381 337.078H145.281L144.531 339.228C143.981 340.798 142.501 341.858 140.831 341.858H140.851Z" stroke="#5C5C5C" stroke-linecap="round" stroke-linejoin="round"/>
<path d="M141.171 337.068L140.421 339.218C139.871 340.788 138.391 341.848 136.721 341.848H140.841C142.511 341.848 143.991 340.788 144.541 339.218L145.291 337.068H141.171Z" stroke="#5C5C5C" stroke-linecap="round" stroke-linejoin="round"/>
<path opacity="0.6" d="M141.171 337.068L140.421 339.218C139.871 340.788 138.391 341.848 136.721 341.848H140.841C142.511 341.848 143.991 340.788 144.541 339.218L145.291 337.068H141.171Z" stroke="#5C5C5C" stroke-linecap="round" stroke-linejoin="round"/>
<path d="M140.851 365.28H129.831C128.161 365.28 126.681 364.22 126.131 362.65L125.381 360.5H145.281L144.531 362.65C143.981 364.22 142.501 365.28 140.831 365.28H140.851Z" stroke="#5C5C5C" stroke-linecap="round" stroke-linejoin="round"/>
<path d="M141.171 360.5L140.421 362.65C139.871 364.22 138.391 365.28 136.721 365.28H140.841C142.511 365.28 143.991 364.22 144.541 362.65L145.291 360.5H141.171Z" stroke="#5C5C5C" stroke-linecap="round" stroke-linejoin="round"/>
<path opacity="0.6" d="M141.171 360.5L140.421 362.65C139.871 364.22 138.391 365.28 136.721 365.28H140.841C142.511 365.28 143.991 364.22 144.541 362.65L145.291 360.5H141.171Z" stroke="#5C5C5C" stroke-linecap="round" stroke-linejoin="round"/>
<path d="M145.291 383.92L144.541 386.07C143.991 387.65 142.511 388.7 140.841 388.7H129.821C128.811 388.7 127.881 388.32 127.171 387.67C126.701 387.25 126.341 386.7 126.121 386.07L125.371 383.92H145.271H145.291Z" stroke="#5C5C5C" stroke-linecap="round" stroke-linejoin="round"/>
<path d="M141.171 383.92L140.421 386.07C139.871 387.64 138.391 388.7 136.721 388.7H140.841C142.511 388.7 143.991 387.64 144.541 386.07L145.291 383.92H141.171Z" stroke="#5C5C5C" stroke-linecap="round" stroke-linejoin="round"/>
<path opacity="0.6" d="M141.171 383.92L140.421 386.07C139.871 387.64 138.391 388.7 136.721 388.7H140.841C142.511 388.7 143.991 387.64 144.541 386.07L145.291 383.92H141.171Z" stroke="#5C5C5C" stroke-linecap="round" stroke-linejoin="round"/>
<path d="M191.03 326.699H84.0703V331.379H191.03V326.699Z" stroke="#5C5C5C" stroke-linecap="round" stroke-linejoin="round"/>
<path d="M134.771 288.23H135.291C135.921 288.23 136.351 287.72 136.251 287.09L131.711 258.41C131.611 257.78 131.021 257.27 130.391 257.27H60.1406L65.0406 288.23H134.771Z" fill="#263238"/>
<path d="M65.3003 288.229C64.5303 288.229 63.8103 287.609 63.6803 286.839L59.2203 258.669C59.1003 257.899 59.6203 257.279 60.3903 257.279C61.1603 257.279 61.8803 257.899 62.0103 258.669L66.4703 286.839C66.5903 287.609 66.0703 288.229 65.3003 288.229Z" fill="#263238"/>
<path opacity="0.2" d="M65.3003 288.229C64.5303 288.229 63.8103 287.609 63.6803 286.839L59.2203 258.669C59.1003 257.899 59.6203 257.279 60.3903 257.279C61.1603 257.279 61.8803 257.899 62.0103 258.669L66.4703 286.839C66.5903 287.609 66.0703 288.229 65.3003 288.229Z" fill="white" stroke="#263238" stroke-linecap="round" stroke-linejoin="round"/>
<path d="M162.43 326.64H72.1797L77.3397 281.01H161.41C164.7 281.01 167.27 283.88 166.9 287.15L162.44 326.64H162.43Z" fill="#999999" stroke="#263238" stroke-linecap="round" stroke-linejoin="round"/>
<path d="M166.91 286.14H86.4397C86.2497 283.31 83.8897 281.01 80.9297 281.01H161.41C164.36 281.01 166.71 283.31 166.91 286.14Z" fill="#999999" stroke="#263238" stroke-linecap="round" stroke-linejoin="round"/>
<path d="M156.72 325.049L158.35 310.609H90.5502L88.9102 325.049H156.72Z" fill="#263238"/>
<path d="M116.439 322.729H184.959C185.569 322.729 186.059 323.229 186.059 323.829V323.939C186.059 324.549 185.559 325.039 184.959 325.039H116.439V322.719V322.729Z" fill="#999999" stroke="#263238" stroke-linecap="round" stroke-linejoin="round"/>
<path d="M156.98 322.73H175.52C175.52 320.02 173.33 317.83 170.62 317.83H157.54L156.99 322.73H156.98Z" fill="#263238"/>
<path d="M156.98 322.73H175.52C175.52 320.02 173.33 317.83 170.62 317.83H157.54L156.99 322.73H156.98Z" fill="#5C5C5C" stroke="#263238" stroke-linecap="round" stroke-linejoin="round"/>
<path d="M118.67 322.73H113.44C113.44 320.02 111.25 317.83 108.54 317.83H89.7299L89.1799 322.73L88.9199 325.05H118.67C119.16 325.05 119.55 324.66 119.55 324.17V323.61C119.55 323.12 119.16 322.73 118.67 322.73Z" fill="#263238"/>
<path d="M118.67 322.73H113.44C113.44 320.02 111.25 317.83 108.54 317.83H89.7299L89.1799 322.73L88.9199 325.05H118.67C119.16 325.05 119.55 324.66 119.55 324.17V323.61C119.55 323.12 119.16 322.73 118.67 322.73Z" fill="#999999" stroke="#263238" stroke-linecap="round" stroke-linejoin="round"/>
<path d="M122.261 281.009H80.1308L75.0508 248.949H117.191L122.261 281.009Z" fill="#F79236"/>
<path d="M122.261 281.009H80.1308L75.0508 248.949H117.191L122.261 281.009Z" fill="white" stroke="#263238" stroke-linecap="round" stroke-linejoin="round"/>
<path d="M96.7104 284.32H156.9C156.05 282.39 154.12 281.02 151.84 281.02H91.6504C93.9304 281.02 95.8604 282.39 96.7104 284.32Z" fill="#5C5C5C" stroke="#263238" stroke-linecap="round" stroke-linejoin="round"/>
<path d="M86.4102 287.15L81.9502 326.64H57.2402V285.63C57.2402 283.08 59.3102 281.01 61.8602 281.01H80.9302C83.8802 281.01 86.2402 283.32 86.4402 286.14C86.4602 286.47 86.4502 286.81 86.4202 287.15H86.4102Z" fill="#5C5C5C" stroke="#263238" stroke-linecap="round" stroke-linejoin="round"/>
<path d="M236.029 236.841H157.709V132.951H201.399L236.029 167.581V236.841Z" fill="white"/>
<mask id="mask0_2342_7814" style="mask-type:luminance" maskUnits="userSpaceOnUse" x="157" y="132" width="80" height="105">
<path d="M236.029 236.841H157.709V132.951H201.399L236.029 167.581V236.841Z" fill="white"/>
</mask>
<g mask="url(#mask0_2342_7814)">
<path d="M236.06 167.811V181.111C232.5 171.571 201.43 167.811 201.43 167.811H236.06Z" fill="#F79236"/>
<path d="M236.06 167.811V181.111C232.5 171.571 201.43 167.811 201.43 167.811H236.06Z" fill="white"/>
</g>
<path d="M236.029 236.841H157.709V132.951H201.399L236.029 167.581V236.841Z" stroke="#263238" stroke-linecap="round" stroke-linejoin="round"/>
<path d="M236.028 167.581H201.398V132.951L236.028 167.581Z" fill="white" stroke="#263238" stroke-linecap="round" stroke-linejoin="round"/>
<path d="M177.479 180.641H216.259" stroke="#263238" stroke-width="3" stroke-linecap="round" stroke-linejoin="round"/>
<path d="M177.479 191.301H216.259" stroke="#263238" stroke-width="3" stroke-linecap="round" stroke-linejoin="round"/>
<path d="M177.479 201.971H216.259" stroke="#263238" stroke-width="3" stroke-linecap="round" stroke-linejoin="round"/>
<path d="M203.559 213.611H155.049V239.461H203.559V213.611Z" fill="#F79236" stroke="#263238" stroke-linecap="round" stroke-linejoin="round"/>
<path d="M170.849 230.812V232.553H169.109V230.812H170.849Z" fill="#263238"/>
<path d="M170.66 221.072H176.23V222.712H174.35V232.542H172.55V222.712H170.67V221.072H170.66Z" fill="#263238"/>
<path d="M183.029 221.072L181.149 226.642L183.169 232.542H181.269L179.799 228.002L178.309 232.542H176.619L178.639 226.642L176.759 221.072H178.629L179.989 225.302L181.379 221.072H183.049H183.029Z" fill="#263238"/>
<path d="M183.539 221.072H189.109V222.712H187.229V232.542H185.429V222.712H183.549V221.072H183.539Z" fill="#263238"/>
<path d="M118.84 225.73H60.6602V148.57H93.1102L118.84 174.29V225.73Z" fill="white"/>
<mask id="mask1_2342_7814" style="mask-type:luminance" maskUnits="userSpaceOnUse" x="60" y="148" width="59" height="78">
<path d="M118.84 225.73H60.6602V148.57H93.1102L118.84 174.29V225.73Z" fill="white"/>
</mask>
<g mask="url(#mask1_2342_7814)">
<path d="M118.861 174.461V184.341C116.221 177.261 93.1406 174.461 93.1406 174.461H118.861Z" fill="#F79236"/>
<path opacity="0.6" d="M118.861 174.461V184.341C116.221 177.261 93.1406 174.461 93.1406 174.461H118.861Z" fill="white"/>
</g>
<path d="M118.84 225.73H60.6602V148.57H93.1102L118.84 174.29V225.73Z" stroke="#263238" stroke-linecap="round" stroke-linejoin="round"/>
<path d="M118.839 174.29H93.1094V148.57L118.839 174.29Z" fill="white" stroke="#263238" stroke-linecap="round" stroke-linejoin="round"/>
<path d="M75.3398 183.99H104.15" stroke="#263238" stroke-width="3" stroke-linecap="round" stroke-linejoin="round"/>
<path d="M75.3398 191.91H104.15" stroke="#263238" stroke-width="3" stroke-linecap="round" stroke-linejoin="round"/>
<path d="M75.3398 199.83H104.15" stroke="#263238" stroke-width="3" stroke-linecap="round" stroke-linejoin="round"/>
<path d="M94.2292 208.551H58.1992V227.751H94.2292V208.551Z" fill="#F79236" stroke="#263238" stroke-linecap="round" stroke-linejoin="round"/>
<path d="M66.3994 221.32V222.61H65.1094V221.32H66.3994Z" fill="#263238"/>
<path d="M67.3691 214.08H69.4891C70.8291 214.08 71.4891 214.82 71.4891 216.19V220.5C71.4891 221.86 70.8291 222.61 69.4891 222.61H67.3691V214.09V214.08ZM68.7091 215.3V221.39H69.4591C69.8891 221.39 70.1391 221.17 70.1391 220.56V216.13C70.1391 215.52 69.8791 215.3 69.4591 215.3H68.7091Z" fill="#263238"/>
<path d="M72.2285 216.13C72.2285 214.77 72.9485 213.99 74.2585 213.99C75.5685 213.99 76.2885 214.77 76.2885 216.13V220.56C76.2885 221.92 75.5685 222.7 74.2585 222.7C72.9485 222.7 72.2285 221.92 72.2285 220.56V216.13ZM73.5685 220.65C73.5685 221.26 73.8385 221.49 74.2585 221.49C74.6785 221.49 74.9485 221.26 74.9485 220.65V216.05C74.9485 215.44 74.6785 215.21 74.2585 215.21C73.8385 215.21 73.5685 215.44 73.5685 216.05V220.65Z" fill="#263238"/>
<path d="M81.0391 219.43V220.56C81.0391 221.92 80.3591 222.7 79.0391 222.7C77.7191 222.7 77.0391 221.92 77.0391 220.56V216.13C77.0391 214.77 77.7191 213.99 79.0391 213.99C80.3591 213.99 81.0391 214.77 81.0391 216.13V216.96H79.7691V216.05C79.7691 215.44 79.4991 215.21 79.0791 215.21C78.6591 215.21 78.3891 215.44 78.3891 216.05V220.65C78.3891 221.26 78.6591 221.48 79.0791 221.48C79.4991 221.48 79.7691 221.26 79.7691 220.65V219.43H81.0391Z" fill="#263238"/>
<path d="M86.1899 214.08L84.7899 218.22L86.2899 222.6H84.8799L83.7799 219.23L82.6699 222.6H81.4199L82.9199 218.22L81.5199 214.08H82.9099L83.9199 217.22L84.9599 214.08H86.1999H86.1899Z" fill="#263238"/>
<path d="M230.67 79.2909H172.49V2.13086H204.95L230.67 27.8509V79.2909Z" fill="white"/>
<mask id="mask2_2342_7814" style="mask-type:luminance" maskUnits="userSpaceOnUse" x="172" y="2" width="59" height="78">
<path d="M230.67 79.2909H172.49V2.13086H204.95L230.67 27.8509V79.2909Z" fill="white"/>
</mask>
<g mask="url(#mask2_2342_7814)">
<path d="M230.691 28.0215V37.9015C228.051 30.8215 204.971 28.0215 204.971 28.0215H230.691Z" fill="#F79236"/>
<path opacity="0.6" d="M230.691 28.0215V37.9015C228.051 30.8215 204.971 28.0215 204.971 28.0215H230.691Z" fill="white"/>
</g>
<path d="M230.67 79.2909H172.49V2.13086H204.95L230.67 27.8509V79.2909Z" stroke="#263238" stroke-linecap="round" stroke-linejoin="round"/>
<path d="M230.671 27.8509H204.951V2.13086L230.671 27.8509Z" fill="white" stroke="#263238" stroke-linecap="round" stroke-linejoin="round"/>
<path d="M187.18 37.5508H215.99" stroke="#263238" stroke-width="3" stroke-linecap="round" stroke-linejoin="round"/>
<path d="M187.18 45.4707H215.99" stroke="#263238" stroke-width="3" stroke-linecap="round" stroke-linejoin="round"/>
<path d="M187.18 53.3906H215.99" stroke="#263238" stroke-width="3" stroke-linecap="round" stroke-linejoin="round"/>
<path d="M206.55 62.041H170.52V81.241H206.55V62.041Z" fill="#F79236" stroke="#263238" stroke-linecap="round" stroke-linejoin="round"/>
<path d="M181.36 74.8008V76.0908H180.07V74.8008H181.36Z" fill="#263238"/>
<path d="M186.3 69.6703V70.7803C186.3 72.1403 185.64 72.8903 184.3 72.8903H183.67V76.0903H182.33V67.5703H184.3C185.64 67.5703 186.3 68.3103 186.3 69.6803V69.6703ZM183.67 68.7803V71.6703H184.3C184.73 71.6703 184.96 71.4803 184.96 70.8703V69.5903C184.96 68.9803 184.73 68.7903 184.3 68.7903H183.67V68.7803Z" fill="#263238"/>
<path d="M186.92 67.5703H189.04C190.38 67.5703 191.04 68.3103 191.04 69.6803V73.9903C191.04 75.3503 190.38 76.1003 189.04 76.1003H186.92V67.5803V67.5703ZM188.26 68.7803V74.8703H189.01C189.44 74.8703 189.69 74.6503 189.69 74.0403V69.6103C189.69 69.0003 189.43 68.7803 189.01 68.7803H188.26Z" fill="#263238"/>
<path d="M193.231 71.3503H194.961V72.5703H193.231V76.0903H191.891V67.5703H195.431V68.7903H193.231V71.3603V71.3503Z" fill="#263238"/>
<path d="M128.401 120.471H70.2207V43.3105H102.681L128.401 69.0305V120.471Z" fill="white"/>
<mask id="mask3_2342_7814" style="mask-type:luminance" maskUnits="userSpaceOnUse" x="70" y="43" width="59" height="78">
<path d="M128.401 120.471H70.2207V43.3105H102.681L128.401 69.0305V120.471Z" fill="white"/>
</mask>
<g mask="url(#mask3_2342_7814)">
<path d="M128.421 69.2012V79.0812C125.781 72.0012 102.701 69.2012 102.701 69.2012H128.421Z" fill="#F79236"/>
<path opacity="0.6" d="M128.421 69.2012V79.0812C125.781 72.0012 102.701 69.2012 102.701 69.2012H128.421Z" fill="white"/>
</g>
<path d="M128.401 120.471H70.2207V43.3105H102.681L128.401 69.0305V120.471Z" stroke="#263238" stroke-linecap="round" stroke-linejoin="round"/>
<path d="M128.402 69.0305H102.682V43.3105L128.402 69.0305Z" fill="white" stroke="#263238" stroke-linecap="round" stroke-linejoin="round"/>
<path d="M84.9102 78.7305H113.72" stroke="#263238" stroke-width="3" stroke-linecap="round" stroke-linejoin="round"/>
<path d="M84.9102 86.6504H113.72" stroke="#263238" stroke-width="3" stroke-linecap="round" stroke-linejoin="round"/>
<path d="M84.9102 94.5801H113.72" stroke="#263238" stroke-width="3" stroke-linecap="round" stroke-linejoin="round"/>
<path d="M104.28 103.221H68.25V122.421H104.28V103.221Z" fill="#F79236" stroke="#263238" stroke-linecap="round" stroke-linejoin="round"/>
<path d="M79.9892 116V117.29H78.6992V116H79.9892Z" fill="#263238"/>
<path d="M85.4302 108.76L84.0302 112.9L85.5302 117.28H84.1202L83.0201 113.91L81.9102 117.28H80.6602L82.1602 112.9L80.7602 108.76H82.1502L83.1602 111.9L84.2001 108.76H85.4402H85.4302Z" fill="#263238"/>
<path d="M86.1895 108.76H87.5294V116.07H89.7295V117.29H86.1895V108.77V108.76Z" fill="#263238"/>
<path d="M92.1196 108.66C93.4196 108.66 94.0896 109.44 94.0896 110.8V111.07H92.8196V110.72C92.8196 110.11 92.5796 109.88 92.1496 109.88C91.7196 109.88 91.4796 110.11 91.4796 110.72C91.4796 112.47 94.0996 112.8 94.0996 115.24C94.0996 116.6 93.4196 117.38 92.0996 117.38C90.7796 117.38 90.0996 116.6 90.0996 115.24V114.72H91.3696V115.33C91.3696 115.94 91.6396 116.16 92.0596 116.16C92.4796 116.16 92.7496 115.94 92.7496 115.33C92.7496 113.58 90.1296 113.25 90.1296 110.81C90.1296 109.45 90.7996 108.67 92.0996 108.67L92.1196 108.66Z" fill="#263238"/>
<path d="M339.42 176.201H281.25V99.041H313.7L339.42 124.761V176.201Z" fill="white"/>
<mask id="mask4_2342_7814" style="mask-type:luminance" maskUnits="userSpaceOnUse" x="281" y="99" width="59" height="78">
<path d="M339.42 176.201H281.25V99.041H313.7L339.42 124.761V176.201Z" fill="white"/>
</mask>
<g mask="url(#mask4_2342_7814)">
<path d="M339.441 124.932V134.812C336.801 127.732 313.721 124.932 313.721 124.932H339.441Z" fill="#F79236"/>
<path opacity="0.6" d="M339.441 124.932V134.812C336.801 127.732 313.721 124.932 313.721 124.932H339.441Z" fill="white"/>
</g>
<path d="M339.42 176.201H281.25V99.041H313.7L339.42 124.761V176.201Z" stroke="#263238" stroke-linecap="round" stroke-linejoin="round"/>
<path d="M339.419 124.761H313.699V99.041L339.419 124.761Z" fill="white" stroke="#263238" stroke-linecap="round" stroke-linejoin="round"/>
<path d="M295.93 134.461H324.74" stroke="#263238" stroke-width="3" stroke-linecap="round" stroke-linejoin="round"/>
<path d="M295.93 142.381H324.74" stroke="#263238" stroke-width="3" stroke-linecap="round" stroke-linejoin="round"/>
<path d="M295.93 150.301H324.74" stroke="#263238" stroke-width="3" stroke-linecap="round" stroke-linejoin="round"/>
<path d="M315.3 158.951H279.27V178.151H315.3V158.951Z" fill="#F79236" stroke="#263238" stroke-linecap="round" stroke-linejoin="round"/>
<path d="M289.45 171.711V173.001H288.16V171.711H289.45Z" fill="#263238"/>
<path d="M290.43 164.48H292.55C293.89 164.48 294.55 165.22 294.55 166.59V170.9C294.55 172.26 293.89 173.01 292.55 173.01H290.43V164.49V164.48ZM291.77 165.69V171.78H292.52C292.95 171.78 293.2 171.56 293.2 170.95V166.52C293.2 165.91 292.94 165.69 292.52 165.69H291.77Z" fill="#263238"/>
<path d="M295.279 166.521C295.279 165.161 295.999 164.381 297.309 164.381C298.619 164.381 299.339 165.161 299.339 166.521V170.951C299.339 172.311 298.619 173.091 297.309 173.091C295.999 173.091 295.279 172.311 295.279 170.951V166.521ZM296.619 171.041C296.619 171.651 296.889 171.881 297.309 171.881C297.729 171.881 297.999 171.651 297.999 171.041V166.441C297.999 165.831 297.729 165.601 297.309 165.601C296.889 165.601 296.619 165.831 296.619 166.441V171.041Z" fill="#263238"/>
<path d="M304.1 169.821V170.951C304.1 172.311 303.42 173.091 302.1 173.091C300.78 173.091 300.1 172.311 300.1 170.951V166.521C300.1 165.161 300.78 164.381 302.1 164.381C303.42 164.381 304.1 165.161 304.1 166.521V167.351H302.83V166.441C302.83 165.831 302.56 165.601 302.14 165.601C301.72 165.601 301.45 165.831 301.45 166.441V171.041C301.45 171.651 301.72 171.871 302.14 171.871C302.56 171.871 302.83 171.651 302.83 171.041V169.821H304.1Z" fill="#263238"/>
<path d="M252.899 363.461C261.069 363.461 284.679 357.781 284.679 357.781H221.109C221.109 357.781 244.719 363.461 252.889 363.461H252.899Z" fill="#263238" stroke="#263238" stroke-linecap="round" stroke-linejoin="round"/>
<path d="M245.619 371.252H260.189V360.622H245.619V371.252Z" fill="#263238" stroke="#263238" stroke-linecap="round" stroke-linejoin="round"/>
<path d="M222.64 344.221H234.91V316.901H222.64V344.221Z" fill="#263238" stroke="#263238" stroke-linecap="round" stroke-linejoin="round"/>
<path d="M243.46 419.432H262.34V371.252H243.46V419.432Z" fill="#263238" stroke="#263238" stroke-linecap="round" stroke-linejoin="round"/>
<path d="M198.89 320.021H251.77C257.99 320.021 262.89 314.401 262.44 307.801L258.26 247.011C257.85 241.061 253.2 236.451 247.59 236.451H203.08C197.47 236.451 192.82 241.061 192.41 247.011L188.23 307.801C187.78 314.401 192.68 320.021 198.9 320.021H198.89Z" fill="#999999" stroke="#263238" stroke-linecap="round" stroke-linejoin="round"/>
<path opacity="0.2" d="M198.89 320.021H251.77C257.99 320.021 262.89 314.401 262.44 307.801L258.26 247.011C257.85 241.061 253.2 236.451 247.59 236.451H203.08C197.47 236.451 192.82 241.061 192.41 247.011L188.23 307.801C187.78 314.401 192.68 320.021 198.9 320.021H198.89Z" fill="black"/>
<path d="M197.589 307.801L201.769 247.011C202.179 241.061 206.829 236.451 212.439 236.451H247.579C253.189 236.451 257.839 241.061 258.249 247.011L262.429 307.801C262.879 314.401 257.979 320.021 251.759 320.021H208.259C202.039 320.021 197.139 314.401 197.589 307.801Z" fill="#999999"/>
<path d="M197.589 307.801L201.769 247.011C202.179 241.061 206.829 236.451 212.439 236.451H247.579C253.189 236.451 257.839 241.061 258.249 247.011L262.429 307.801C262.879 314.401 257.979 320.021 251.759 320.021H208.259C202.039 320.021 197.139 314.401 197.589 307.801Z" stroke="#263238" stroke-linecap="round" stroke-linejoin="round"/>
<path d="M221.119 429.111C221.119 430.181 222.049 430.981 223.029 430.751C228.809 429.411 246.139 425.521 252.899 425.521C259.659 425.521 276.989 429.411 282.769 430.751C283.749 430.981 284.679 430.181 284.679 429.111C284.679 427.031 283.319 425.241 281.409 424.801C274.639 423.251 259.189 419.881 252.899 419.881C246.609 419.881 231.159 423.251 224.389 424.801C222.479 425.241 221.119 427.031 221.119 429.111Z" fill="#263238" stroke="#263238" stroke-linecap="round" stroke-linejoin="round"/>
<path d="M279.25 435.61C279.25 438.81 281.68 441.4 284.69 441.4C287.7 441.4 290.13 438.81 290.13 435.61C290.13 432.41 287.7 429.82 284.69 429.82C281.68 429.82 279.25 432.41 279.25 435.61ZM281.74 435.61C281.74 433.88 283.06 432.47 284.68 432.47C286.3 432.47 287.62 433.87 287.62 435.61C287.62 437.35 286.3 438.75 284.68 438.75C283.06 438.75 281.74 437.35 281.74 435.61Z" fill="#858585" stroke="#263238" stroke-linecap="round" stroke-linejoin="round"/>
<path d="M247.471 435.61C247.471 438.81 249.901 441.4 252.911 441.4C255.921 441.4 258.351 438.81 258.351 435.61C258.351 432.41 255.921 429.82 252.911 429.82C249.901 429.82 247.471 432.41 247.471 435.61ZM249.961 435.61C249.961 433.88 251.281 432.47 252.901 432.47C254.521 432.47 255.841 433.87 255.841 435.61C255.841 437.35 254.521 438.75 252.901 438.75C251.281 438.75 249.961 437.35 249.961 435.61Z" fill="#858585" stroke="#263238" stroke-linecap="round" stroke-linejoin="round"/>
<path d="M216.34 435.61C216.34 438.81 218.77 441.4 221.78 441.4C224.79 441.4 227.22 438.81 227.22 435.61C227.22 432.41 224.79 429.82 221.78 429.82C218.77 429.82 216.34 432.41 216.34 435.61ZM218.84 435.61C218.84 433.88 220.16 432.47 221.78 432.47C223.4 432.47 224.72 433.87 224.72 435.61C224.72 437.35 223.4 438.75 221.78 438.75C220.16 438.75 218.84 437.35 218.84 435.61Z" fill="#858585" stroke="#263238" stroke-linecap="round" stroke-linejoin="round"/>
<path d="M236.84 339.932H300.28C304.62 339.932 308.14 343.682 308.14 348.302V349.402C308.14 354.022 304.62 357.772 300.28 357.772H236.84V339.922V339.932Z" fill="#999999"/>
<mask id="mask5_2342_7814" style="mask-type:luminance" maskUnits="userSpaceOnUse" x="236" y="339" width="73" height="19">
<path d="M236.84 339.932H300.28C304.62 339.932 308.14 343.682 308.14 348.302V349.402C308.14 354.022 304.62 357.772 300.28 357.772H236.84V339.922V339.932Z" fill="white"/>
</mask>
<g mask="url(#mask5_2342_7814)">
<path d="M236.84 339.932H300.28C304.62 339.932 308.14 343.682 308.14 348.302V349.402C308.14 354.022 304.62 357.772 300.28 357.772H236.84V339.922V339.932Z" fill="#999999" stroke="#263238" stroke-linecap="round" stroke-linejoin="round"/>
</g>
<path d="M236.84 339.932H300.28C304.62 339.932 308.14 343.682 308.14 348.302V349.402C308.14 354.022 304.62 357.772 300.28 357.772H236.84V339.922V339.932Z" stroke="#263238" stroke-linecap="round" stroke-linejoin="round"/>
<path d="M204.51 357.781H241.98C245.758 357.781 248.82 354.719 248.82 350.941V346.771C248.82 342.994 245.758 339.931 241.98 339.931H204.51C200.733 339.931 197.67 342.994 197.67 346.771V350.941C197.67 354.719 200.733 357.781 204.51 357.781Z" fill="#999999" stroke="#263238" stroke-linecap="round" stroke-linejoin="round"/>
<path opacity="0.2" d="M204.51 357.781H241.98C245.758 357.781 248.82 354.719 248.82 350.941V346.771C248.82 342.994 245.758 339.931 241.98 339.931H204.51C200.733 339.931 197.67 342.994 197.67 346.771V350.941C197.67 354.719 200.733 357.781 204.51 357.781Z" fill="black"/>
<path d="M284.24 419.432H221.05C219.631 419.432 218.48 420.582 218.48 422.002V423.422C218.48 424.841 219.631 425.992 221.05 425.992H284.24C285.66 425.992 286.81 424.841 286.81 423.422V422.002C286.81 420.582 285.66 419.432 284.24 419.432Z" fill="#263238" stroke="#263238" stroke-linecap="round" stroke-linejoin="round"/>
<path d="M286.669 267.63C285.259 268.97 284.389 270.72 283.879 272.53C283.219 274.87 283.289 277.67 285.199 279.26C287.309 281.02 290.739 280.48 293.169 279.05C296.519 277.09 298.829 273.63 299.229 269.98C299.969 263.31 290.239 264.23 286.669 267.63Z" fill="#263238" stroke="#263238" stroke-linecap="round" stroke-linejoin="round"/>
<path d="M317.848 278.582C317.848 278.582 320.468 283.722 319.388 283.942C318.298 284.162 316.148 279.712 316.148 279.712L309.988 278.072L314.678 277.402L317.858 278.572L317.848 278.582Z" fill="white" stroke="#263238" stroke-linecap="round" stroke-linejoin="round"/>
<path opacity="0.3" d="M317.848 278.582C317.848 278.582 320.468 283.722 319.388 283.942C318.298 284.162 316.148 279.712 316.148 279.712L309.988 278.072L314.678 277.402L317.858 278.572L317.848 278.582Z" fill="black" stroke="#263238" stroke-linecap="round" stroke-linejoin="round"/>
<path d="M315.838 275.082C315.838 275.082 319.708 273.962 320.718 275.922C321.728 277.882 324.698 283.692 323.518 284.402C322.338 285.112 321.368 282.962 321.368 282.962L315.838 275.082Z" fill="white" stroke="#263238" stroke-linecap="round" stroke-linejoin="round"/>
<path d="M303.618 281.202L310.698 284.592C310.698 284.592 315.958 285.732 317.768 284.622C319.578 283.512 313.288 281.372 313.288 281.372C313.288 281.372 309.068 279.462 310.358 278.932C311.648 278.402 316.458 278.362 317.388 279.132C318.318 279.902 320.668 285.022 322.468 284.682C324.268 284.332 321.788 281.582 321.168 280.512C320.548 279.442 319.218 275.142 316.298 275.052C313.378 274.952 303.528 275.802 303.528 275.802L294.358 266.082C294.358 266.082 290.138 264.912 287.778 266.152C284.478 267.882 282.728 270.862 284.268 273.152C288.158 278.952 303.628 281.212 303.628 281.212L303.618 281.202Z" fill="white" stroke="#263238" stroke-linecap="round" stroke-linejoin="round"/>
<path d="M269.309 229.871C268.509 226.181 274.549 219.701 274.549 219.701C278.549 219.761 281.739 223.901 284.009 228.321C286.739 233.631 288.149 239.461 288.349 245.381C288.529 250.601 288.939 256.491 292.239 262.371C293.299 262.371 295.879 264.481 297.789 265.951C296.499 266.221 293.899 266.271 290.889 268.541C287.659 270.981 285.399 276.751 286.289 279.611C284.359 277.701 280.109 273.191 278.079 268.821C278.079 268.821 274.479 253.751 269.299 229.881L269.309 229.871Z" fill="#F79236"/>
<mask id="mask6_2342_7814" style="mask-type:luminance" maskUnits="userSpaceOnUse" x="269" y="219" width="29" height="61">
<path d="M269.309 229.871C268.509 226.181 274.549 219.701 274.549 219.701C278.549 219.761 281.739 223.901 284.009 228.321C286.739 233.631 288.149 239.461 288.349 245.381C288.529 250.601 288.939 256.491 292.239 262.371C293.299 262.371 295.879 264.481 297.789 265.951C296.499 266.221 293.899 266.271 290.889 268.541C287.659 270.981 285.399 276.751 286.289 279.611C284.359 277.701 280.109 273.191 278.079 268.821C278.079 268.821 274.479 253.751 269.299 229.881L269.309 229.871Z" fill="white"/>
</mask>
<g mask="url(#mask6_2342_7814)">
<path opacity="0.2" d="M291.41 253.871C291.7 255.021 291.92 256.191 292.38 257.291C294.03 261.271 299.4 266.721 303.43 268.721C298.53 268.651 293.07 265.941 290.92 270.101C290.8 270.331 289.9 269.691 289.28 271.551C289.01 272.381 288.66 272.241 288.77 271.371C288.88 270.581 288.91 269.961 288.91 269.411C288.92 267.791 287.34 266.641 285.63 266.931C284.45 267.131 283.57 266.921 283.89 265.621C284.1 265.151 284.37 264.701 284.68 264.291C285.49 263.201 285.3 261.761 284.21 260.931C282.95 259.971 282.04 258.511 281.61 257.021C280.88 254.491 281.15 251.801 280.91 249.181C280.61 245.941 279.5 242.811 279.08 239.581C278.95 238.561 278.93 237.701 279.48 236.801C285.65 237.961 290.12 248.731 291.4 253.861L291.41 253.871Z" fill="black"/>
</g>
<path d="M269.309 229.871C268.509 226.181 274.549 219.701 274.549 219.701C278.549 219.761 281.739 223.901 284.009 228.321C286.739 233.631 288.149 239.461 288.349 245.381C288.529 250.601 288.939 256.491 292.239 262.371C293.299 262.371 295.879 264.481 297.789 265.951C296.499 266.221 293.899 266.271 290.889 268.541C287.659 270.981 285.399 276.751 286.289 279.611C284.359 277.701 280.109 273.191 278.079 268.821C278.079 268.821 274.479 253.751 269.299 229.881L269.309 229.871Z" stroke="#263238" stroke-linecap="round" stroke-linejoin="round"/>
<path d="M290.449 260.99C287.659 261.1 284.899 262.07 282.709 263.72" stroke="#263238" stroke-linecap="round" stroke-linejoin="round"/>
<path d="M292.249 262.371C289.309 262.601 286.569 264.561 285.549 267.161" stroke="#263238" stroke-linecap="round" stroke-linejoin="round"/>
<path d="M295.18 334.94C293.4 339.78 289.11 340.28 283.8 341.56C279.97 342.48 276.14 343.37 272.25 344.03C260.64 346.01 248.76 345.87 237.2 343.72C229.73 342.33 225.15 335.29 222.73 328.57C220.49 322.3 219.52 315.51 219.91 308.82C224.13 311.32 229.66 312.22 234.72 311.61C242.48 310.67 249.48 306.97 256.45 303.67C257.27 303.28 258.14 302.89 259.06 302.92C259.67 302.95 260.27 303.16 260.84 303.37C269.97 306.79 280.01 310.49 289.42 309.1C289.73 310.39 290 311.8 290.27 313.39C291.08 318.3 293.36 321.91 294.81 326.21C295.85 329.31 296.32 331.82 295.18 334.94Z" fill="#263238" stroke="#263238" stroke-linecap="round" stroke-linejoin="round"/>
<path d="M277.95 276.811C278.13 276.211 277.49 269.651 280.74 262.781C288.08 256.551 280.29 221.661 279 221.471C275.91 221.011 265.04 214.561 264.51 216.481C264.19 217.611 263.75 219.131 262.97 221.211C261.62 224.841 264.49 226.561 264.67 227.551L264.87 228.621C266.97 241.131 265 254.371 260.07 266.161C260.07 266.161 258.85 256.851 256.45 247.401C254 237.731 250.38 227.921 250.43 227.741C250.61 227.181 251.44 226.161 251.46 225.571C251.51 224.201 251.49 224.101 249.1 220.811C247.65 218.791 246.91 217.021 246.1 215.241C245.99 215.001 245.89 214.791 245.78 214.561C240.38 218.791 228.48 222.511 221.4 224.901C223.75 224.901 225.65 229.421 226.13 232.281C226.61 235.191 231.08 257.311 231.08 273.031C231.08 274.691 230.63 281.911 230.63 281.911C224 289.371 220.49 298.991 219.91 308.821C224.13 311.321 229.66 312.221 234.72 311.611C242.48 310.671 249.48 306.971 256.45 303.671C257.27 303.281 258.14 302.891 259.06 302.921C259.67 302.951 260.27 303.161 260.84 303.371C269.97 306.791 280.01 310.491 289.42 309.101C288.18 303.761 283.89 291.351 279.95 283.841C278.59 281.231 277.49 278.261 277.94 276.811H277.95Z" fill="#F79236"/>
<mask id="mask7_2342_7814" style="mask-type:luminance" maskUnits="userSpaceOnUse" x="219" y="214" width="71" height="98">
<path d="M277.95 276.811C278.13 276.211 277.49 269.651 280.74 262.781C288.08 256.551 280.29 221.661 279 221.471C275.91 221.011 265.04 214.561 264.51 216.481C264.19 217.611 263.75 219.131 262.97 221.211C261.62 224.841 264.49 226.561 264.67 227.551L264.87 228.621C266.97 241.131 265 254.371 260.07 266.161C260.07 266.161 258.85 256.851 256.45 247.401C254 237.731 250.38 227.921 250.43 227.741C250.61 227.181 251.44 226.161 251.46 225.571C251.51 224.201 251.49 224.101 249.1 220.811C247.65 218.791 246.91 217.021 246.1 215.241C245.99 215.001 245.89 214.791 245.78 214.561C240.38 218.791 228.48 222.511 221.4 224.901C223.75 224.901 225.65 229.421 226.13 232.281C226.61 235.191 231.08 257.311 231.08 273.031C231.08 274.691 230.63 281.911 230.63 281.911C224 289.371 220.49 298.991 219.91 308.821C224.13 311.321 229.66 312.221 234.72 311.611C242.48 310.671 249.48 306.971 256.45 303.671C257.27 303.281 258.14 302.891 259.06 302.921C259.67 302.951 260.27 303.161 260.84 303.371C269.97 306.791 280.01 310.491 289.42 309.101C288.18 303.761 283.89 291.351 279.95 283.841C278.59 281.231 277.49 278.261 277.94 276.811H277.95Z" fill="white"/>
</mask>
<g mask="url(#mask7_2342_7814)">
<path opacity="0.2" d="M228.881 242.301C231.671 243.141 233.001 240.461 236.291 245.511C237.811 247.851 238.291 250.661 239.471 253.161C242.721 260.041 250.301 265.461 258.351 264.921C267.141 264.331 273.691 257.411 279.221 251.011C279.881 250.251 280.531 249.491 281.191 248.731C282.821 250.281 283.861 255.531 283.231 257.621C282.601 259.711 282.471 261.331 280.731 262.781C274.491 267.991 263.641 266.691 255.351 267.821C251.491 268.351 247.631 268.871 243.771 269.401C236.291 270.421 231.671 268.911 231.371 261.931C231.311 260.521 230.581 255.301 230.281 250.121C229.981 245.101 230.471 242.781 228.881 242.301Z" fill="black"/>
</g>
<path d="M277.95 276.811C278.13 276.211 277.49 269.651 280.74 262.781C288.08 256.551 280.29 221.661 279 221.471C275.91 221.011 265.04 214.561 264.51 216.481C264.19 217.611 263.75 219.131 262.97 221.211C261.62 224.841 264.49 226.561 264.67 227.551L264.87 228.621C266.97 241.131 265 254.371 260.07 266.161C260.07 266.161 258.85 256.851 256.45 247.401C254 237.731 250.38 227.921 250.43 227.741C250.61 227.181 251.44 226.161 251.46 225.571C251.51 224.201 251.49 224.101 249.1 220.811C247.65 218.791 246.91 217.021 246.1 215.241C245.99 215.001 245.89 214.791 245.78 214.561C240.38 218.791 228.48 222.511 221.4 224.901C223.75 224.901 225.65 229.421 226.13 232.281C226.61 235.191 231.08 257.311 231.08 273.031C231.08 274.691 230.63 281.911 230.63 281.911C224 289.371 220.49 298.991 219.91 308.821C224.13 311.321 229.66 312.221 234.72 311.611C242.48 310.671 249.48 306.971 256.45 303.671C257.27 303.281 258.14 302.891 259.06 302.921C259.67 302.951 260.27 303.161 260.84 303.371C269.97 306.791 280.01 310.491 289.42 309.101C288.18 303.761 283.89 291.351 279.95 283.841C278.59 281.231 277.49 278.261 277.94 276.811H277.95Z" stroke="#263238" stroke-linecap="round" stroke-linejoin="round"/>
<path d="M243.611 266.181C242.841 266.081 242.071 265.971 241.301 265.861" stroke="#263238" stroke-linecap="round" stroke-linejoin="round"/>
<path d="M270.29 266.721C262.26 267.441 254.13 267.351 246.08 266.471" stroke="#263238" stroke-linecap="round" stroke-linejoin="round"/>
<path d="M247.291 283.58C255.131 285.84 263.771 285.53 271.451 282.83" stroke="#263238" stroke-linecap="round" stroke-linejoin="round"/>
<path d="M260.001 269.49C259.931 281.76 259.881 290.25 259.811 302.52" stroke="#263238" stroke-linecap="round" stroke-linejoin="round"/>
<path d="M219.55 423.421L217.27 422.931C217.27 422.931 218.6 412.711 223.52 406.941C223.52 406.941 220.88 420.181 219.55 423.421Z" fill="white" stroke="#263238" stroke-linecap="round" stroke-linejoin="round"/>
<path d="M215.61 399.75C215.61 399.75 209.35 402.51 207.43 405.36C205.52 408.22 199.39 418.04 197.67 421.61C195.95 425.18 189.28 442.11 200.38 441.4C211.48 440.69 212.75 429.93 215.28 425.36C217.81 420.79 232.26 396.89 215.61 399.75Z" fill="white" stroke="#263238" stroke-linecap="round" stroke-linejoin="round"/>
<path d="M267.831 415.281L265.881 427.371L267.981 428.691L270.511 420.821L267.831 415.281Z" fill="white" stroke="#263238" stroke-linecap="round" stroke-linejoin="round"/>
<path d="M274.261 409.471C274.261 409.471 278.741 410.661 281.161 413.091C283.581 415.521 299.261 441.261 293.561 441.521C293.561 441.521 287.361 444.911 277.311 431.951C274.111 427.831 259.101 415.801 274.251 409.471H274.261Z" fill="white" stroke="#263238" stroke-linecap="round" stroke-linejoin="round"/>
<path d="M260.03 335.99C262.41 339.82 267.22 342.04 271.4 341.34C270.28 349.59 272.21 365.5 274.78 377.77C276.64 386.63 277.11 398.32 276.57 406.42C276.22 411.53 272.88 409.55 273.5 414.7C274.38 422.04 280.05 427.6 285.77 432.89C287.8 434.77 292.85 434.53 292.26 431.92C292.26 431.92 285.56 422.99 286.99 409.47C287.87 401.17 294.7 361.12 294.09 340.09C293.91 334.04 293.68 329.17 292.83 326.36C290.95 320.11 289.94 316.51 283.4 313.6C277.48 310.97 268.55 312.3 263.79 316.11C263.79 316.11 252.79 324.36 260.02 336.01L260.03 335.99Z" fill="#5C5C5C" stroke="#263238" stroke-linecap="round" stroke-linejoin="round"/>
<path d="M292.27 339.91C293.12 336.22 293.54 331.78 292.84 326.34" stroke="#263238" stroke-linecap="round" stroke-linejoin="round"/>
<path d="M290.83 344.76C291.18 343.8 291.52 342.77 291.83 341.66" stroke="#263238" stroke-linecap="round" stroke-linejoin="round"/>
<path d="M272.46 337.721C271.69 340.561 269.12 344.871 265.82 350.181C254.34 368.631 245.86 372.031 230.54 394.931C229.27 396.821 226.47 401.331 225.16 403.201C224.18 404.621 222.97 405.891 222.18 407.411C221.69 408.371 221.38 409.391 221.02 410.401C218.7 416.881 208.85 431.691 202.8 430.371C196.75 429.051 199.54 418.521 201.56 415.711C202.05 415.001 202.72 413.891 203.44 412.631C206.06 408.011 209.05 403.571 212.32 399.321C217.52 392.581 221.86 382.041 225.12 373.501C229.62 361.661 236.85 347.011 242.7 340.431C238.17 339.051 234.68 334.841 234.54 330.391C234.1 316.881 249.7 315.001 249.7 315.001C252.84 314.541 255.7 315.091 258.29 316.311C261.36 317.741 264.07 320.141 266.43 322.901C266.99 323.551 267.53 324.171 268.02 324.761C271.85 329.251 274.01 332.151 272.47 337.711L272.46 337.721Z" fill="#5C5C5C" stroke="#263238" stroke-linecap="round" stroke-linejoin="round"/>
<path d="M275.811 318.95C273.111 320.21 270.831 322.28 269.411 324.77C269.371 324.83 269.281 324.83 269.121 324.78C268.631 324.19 268.091 323.57 267.531 322.92C265.181 320.15 262.471 317.76 259.391 316.33C265.391 317.15 271.311 318.31 275.811 318.95Z" fill="#263238" stroke="#263238" stroke-linecap="round" stroke-linejoin="round"/>
<path d="M264.109 349.17C267.059 346.39 270.029 342.76 272.469 337.73" stroke="#263238" stroke-linecap="round" stroke-linejoin="round"/>
<path d="M259.9 352.661C260.8 351.991 261.73 351.271 262.66 350.461" stroke="#263238" stroke-linecap="round" stroke-linejoin="round"/>
<path d="M295.189 334.94C295.029 335.34 294.879 335.7 294.699 336.04C294.649 335.23 294.569 334.42 294.459 333.64C294.419 333.3 294.379 332.98 294.309 332.66C294.179 331.7 293.999 330.74 293.779 329.78C293.709 329.43 293.619 329.09 293.529 328.76C293.489 328.57 293.449 328.4 293.399 328.22C293.279 327.77 293.149 327.34 293.009 326.9C292.869 326.46 292.729 326.02 292.569 325.59C290.229 319.14 285.519 316.92 279.119 313.59C285.869 319.6 282.289 320.02 274.719 318.95C269.709 318.24 262.949 316.88 256.269 316.06C252.889 315.64 249.549 315.36 246.449 315.37C246.449 315.37 229.719 317.39 230.199 331.87C230.359 336.63 234.089 341.14 238.939 342.62C238.609 343.01 238.259 343.4 237.909 343.84C237.669 343.8 237.439 343.77 237.219 343.72C229.749 342.34 225.159 335.3 222.749 328.57C220.509 322.3 219.529 315.51 219.929 308.82C224.149 311.32 229.679 312.22 234.749 311.61C242.509 310.68 249.509 306.98 256.469 303.67C257.299 303.28 258.169 302.89 259.089 302.92C259.699 302.94 260.289 303.16 260.869 303.38C269.999 306.79 280.039 310.49 289.449 309.1C289.759 310.4 290.039 311.8 290.289 313.39C290.289 313.39 293.139 318.7 294.579 323C295.619 326.1 296.339 331.82 295.209 334.95L295.189 334.94Z" fill="white" stroke="#263238" stroke-linecap="round" stroke-linejoin="round"/>
<path d="M260.06 266.181C260.06 266.181 257.8 247.411 250.98 229.891C251.47 230.631 252 231.351 252.53 232.061C252.57 232.121 252.62 232.201 252.68 232.261C255.81 236.431 262.71 235.411 264.27 230.541C264.48 229.921 264.67 229.281 264.86 228.641C266.96 241.151 265 254.401 260.06 266.181Z" fill="#F79236" stroke="#263238" stroke-linecap="round" stroke-linejoin="round"/>
<path d="M232.71 177.99C232.12 177.49 231.53 176.93 231.22 176.22C230.69 174.96 231.14 173.52 231.67 172.26C232.94 169.24 234.66 166.36 237.11 164.19C239.16 162.38 241.64 161.13 244.09 159.91C247.82 158.05 251.55 156.18 255.28 154.32C254.29 156.8 253.12 159.21 251.79 161.53C254.24 160.58 256.93 160.24 259.54 160.56C258.01 162.41 256.21 164.04 254.22 165.38C256.48 165.08 258.74 164.78 260.99 164.48C260.66 165.53 257.48 167.95 261.17 167.61C261.17 167.61 258.21 169.44 256.43 169.71C254.2 170.04 252.03 170.76 250.05 171.84C248.59 172.64 247.1 173.88 247.08 175.54C247.08 175.95 247.16 176.38 247.01 176.76C246.85 177.17 246.45 177.43 246.08 177.66C244.14 178.86 241.39 181.41 239.04 181.56C236.76 181.71 234.33 179.37 232.71 178.02V177.99Z" fill="#263238" stroke="#263238" stroke-linecap="round" stroke-linejoin="round"/>
<path d="M235.5 170.531L235.64 173.511H245.89V170.531H235.5Z" fill="#F79236" stroke="#263238" stroke-linecap="round" stroke-linejoin="round"/>
<path d="M239.129 205.941C238.489 205.561 238.019 204.961 237.589 204.351C235.049 200.801 233.159 196.741 232.479 192.431C231.799 188.121 232.399 183.561 234.519 179.741C236.309 176.521 239.079 173.971 241.939 171.651C243.769 170.161 265.209 163.781 269.269 181.481C269.799 183.801 269.599 186.241 269.459 188.621C269.259 192.021 268.599 195.471 266.909 198.421C265.679 200.561 263.94 202.371 261.98 203.871C258.33 206.671 253.919 208.341 249.359 208.811C245.479 209.211 242.469 207.881 239.139 205.931L239.129 205.941Z" fill="#263238" stroke="#263238" stroke-linecap="round" stroke-linejoin="round"/>
<path d="M264.849 228.63C264.669 229.27 264.469 229.91 264.269 230.54C262.699 235.41 255.799 236.42 252.669 232.26C252.619 232.19 252.569 232.13 252.519 232.06C251.979 231.35 251.459 230.62 250.969 229.89C250.969 229.89 244.419 217.91 243.609 216.13L246.099 215.24C246.489 211.88 245.199 207.6 245.199 207.6C246.159 208.54 247.299 209.33 248.519 209.95C251.089 211.26 253.969 211.89 256.829 212.44C258.119 212.69 258.669 213 259.919 212.64C260.249 212.55 260.559 212.41 260.849 212.25C261.439 211.93 261.969 211.49 262.449 211.05C262.449 211.05 262.499 211 262.569 210.93C262.839 210.7 262.139 211.77 262.139 213.29C262.139 215.07 262.639 216.13 264.499 216.48C264.189 217.62 264.849 228.63 264.849 228.63Z" fill="white" stroke="#263238" stroke-linecap="round" stroke-linejoin="round"/>
<path d="M256.669 216.1C260.439 216.71 263.839 208.56 263.029 207.61C262.439 206.91 261.429 206.65 260.469 206.56C257.459 206.28 254.539 207.23 251.549 207.3C249.989 207.34 248.739 207.03 247.279 206.57C245.789 206.1 244.929 205.72 245.229 207.49C245.939 211.64 252.699 215.45 256.669 216.09V216.1Z" fill="#263238" stroke="#263238" stroke-linecap="round" stroke-linejoin="round"/>
<path d="M267.87 200.161C267.82 200.601 268.18 208.551 262.36 211.691C262.29 211.761 262.24 211.811 262.24 211.811C261.75 212.271 261.21 212.711 260.61 213.051C260.43 213.141 260.26 213.231 260.08 213.301C259.95 213.361 258.48 213.541 258.33 213.541C254.36 213.581 253.11 212.291 250.91 211.791C247.73 211.071 241.98 207.611 241.63 203.441C241.58 202.891 240.55 203.171 239.99 203.141C239.63 203.121 239.29 203.061 238.96 202.961C238.93 202.661 238.91 202.361 238.89 202.071C238.86 201.551 238.86 201.031 238.89 200.501C239 198.311 241.57 196.221 243.21 194.641C245.72 192.201 247.63 189.231 248.76 186.031C249.61 183.601 250.04 181.041 251.32 178.791C252.44 176.821 254.49 175.101 256.81 174.891C256.87 174.891 256.93 174.891 257 174.891C257.17 174.891 257.34 174.891 257.51 174.921C263.61 180.571 265.41 185.631 266 186.821C266.03 186.941 266.06 187.071 266.09 187.191C266.18 187.551 266.26 187.931 266.33 188.291C267.16 192.361 268.29 196.041 267.87 200.171V200.161Z" fill="white" stroke="#263238" stroke-linecap="round" stroke-linejoin="round"/>
<path d="M267.09 197.34C266.91 197.58 266.69 197.78 266.45 197.97C265.39 198.79 263.99 199.19 262.65 199.04C262.19 198.99 261.73 198.87 261.3 198.69C261.58 197.88 261.43 197.01 260.5 197C259.71 196.91 259.41 197.05 258.97 196.77C258.85 196.4 258.96 196 259.14 195.58C259.35 195.07 259.99 194.91 260.55 194.83C262.8 194.54 265.09 194.48 267.35 194.67C267.59 195.47 267.61 196.67 267.1 197.33L267.09 197.34Z" fill="white" stroke="#263238" stroke-linecap="round" stroke-linejoin="round"/>
<path d="M253.109 204.359C256.749 206.909 259.649 205.489 259.649 205.489" stroke="#263238" stroke-linecap="round" stroke-linejoin="round"/>
<path d="M262.02 191.41C262.61 191.38 263.14 192.3 263.2 193.35C263.26 194.4 262.84 195.36 262.25 195.39C261.66 195.42 261.13 194.55 261.07 193.45C261.01 192.34 261.43 191.43 262.02 191.4V191.41Z" fill="#263238"/>
<path d="M251.379 191.59C251.959 191.56 252.499 192.48 252.559 193.53C252.619 194.58 252.199 195.54 251.609 195.57C251.019 195.6 250.489 194.73 250.429 193.63C250.369 192.52 250.799 191.61 251.379 191.58V191.59Z" fill="#263238"/>
<path d="M255.78 195.499C255.76 195.209 255.7 194.93 255.63 194.69C253.37 194.5 251.08 194.56 248.83 194.85C248.28 194.92 247.63 195.079 247.42 195.589C247.18 196.159 247.07 196.68 247.46 197.16C248.32 198.2 249.6 198.889 250.94 199.039C252.28 199.189 253.68 198.799 254.74 197.969C254.98 197.789 255.2 197.58 255.38 197.35C256.26 196.21 255.38 195.009 257.4 194.889C257.96 194.859 258.57 195.109 258.81 195.619" fill="white"/>
<path d="M255.78 195.499C255.76 195.209 255.7 194.93 255.63 194.69C253.37 194.5 251.08 194.56 248.83 194.85C248.28 194.92 247.63 195.079 247.42 195.589C247.18 196.159 247.07 196.68 247.46 197.16C248.32 198.2 249.6 198.889 250.94 199.039C252.28 199.189 253.68 198.799 254.74 197.969C254.98 197.789 255.2 197.58 255.38 197.35C256.26 196.21 255.38 195.009 257.4 194.889C257.96 194.859 258.57 195.109 258.81 195.619" stroke="#263238" stroke-linecap="round" stroke-linejoin="round"/>
<path d="M260.43 187.06C260.43 187.06 260.48 187.03 260.5 187.01C262.24 185.81 264.69 186.15 265.98 187.78" stroke="#263238" stroke-linecap="round" stroke-linejoin="round"/>
<path d="M247.59 188.561C251.51 185.461 254.36 187.931 254.36 187.931" stroke="#263238" stroke-linecap="round" stroke-linejoin="round"/>
<path d="M213.561 286.441C215.831 288.861 219.041 287.831 219.041 287.831C219.421 287.711 219.801 287.591 220.171 287.471C228.791 284.611 231.891 280.861 233.021 278.501C233.671 277.131 233.651 276.231 233.651 276.231C232.401 275.301 231.011 274.821 229.571 274.721C224.301 274.311 218.231 278.611 215.231 282.181C213.651 284.061 212.921 285.731 213.571 286.441H213.561Z" fill="#263238" stroke="#263238" stroke-linecap="round" stroke-linejoin="round"/>
<path d="M227.54 268.75C227.97 263.01 228.28 261.51 230.39 255.31L229.03 231.66C228.81 227.88 225.46 224.91 221.4 224.91C215.05 247.04 209.87 251.26 209.96 273.91C209.96 278.7 212.24 282.65 213.2 285.14C213.75 283.78 216.93 279.69 219.82 278.05C222.68 276.44 224.3 274.92 227.63 274.7C229.87 274.56 233.18 276.07 234.46 276.32C233.33 274.24 231.55 272.13 227.53 268.75H227.54Z" fill="#F79236"/>
<mask id="mask8_2342_7814" style="mask-type:luminance" maskUnits="userSpaceOnUse" x="209" y="224" width="26" height="62">
<path d="M227.54 268.75C227.97 263.01 228.28 261.51 230.39 255.31L229.03 231.66C228.81 227.88 225.46 224.91 221.4 224.91C215.05 247.04 209.87 251.26 209.96 273.91C209.96 278.7 212.24 282.65 213.2 285.14C213.75 283.78 216.93 279.69 219.82 278.05C222.68 276.44 224.3 274.92 227.63 274.7C229.87 274.56 233.18 276.07 234.46 276.32C233.33 274.24 231.55 272.13 227.53 268.75H227.54Z" fill="white"/>
</mask>
<g mask="url(#mask8_2342_7814)">
<path opacity="0.2" d="M218.76 260.541C218.69 261.791 218.57 263.261 217.43 263.901C216.67 264.331 215.7 264.221 214.87 264.491C214.03 264.761 213.36 265.841 214.04 266.371C214.92 266.471 215.85 266.591 216.57 267.081C217.29 267.571 217.7 268.561 217.22 269.251C216.73 269.961 215.41 270.441 215.77 271.221C217.22 270.691 218.66 270.171 220.11 269.641C220.27 270.871 219.97 272.141 219.28 273.201C223.98 276.161 230.16 275.711 235.8 275.141C233.38 272.901 230.96 270.671 228.54 268.431C228.24 268.161 227.94 267.881 227.77 267.531C227.36 266.711 227.71 265.761 228.05 264.911C229.57 261.061 234.7 244.801 228.91 242.311C222.35 239.481 218.97 257.201 218.79 260.541H218.76Z" fill="black"/>
</g>
<path d="M221.4 224.91C215.05 247.04 209.87 251.26 209.96 273.91C209.96 278.7 212.24 282.65 213.2 285.14C213.75 283.78 216.93 279.69 219.82 278.05C222.68 276.44 224.3 274.92 227.63 274.7C229.87 274.56 233.18 276.07 234.46 276.32C233.33 274.24 231.55 272.13 227.53 268.75C227.96 263.01 228.27 261.51 230.38 255.31" stroke="#263238" stroke-linecap="round" stroke-linejoin="round"/>
<path opacity="0.2" d="M222.361 281.249C221.371 282.669 220.381 284.099 219.391 285.519C219.221 285.759 218.991 286.039 218.681 286.009C218.491 285.989 218.341 285.859 218.201 285.719C216.851 284.389 215.791 282.789 215.131 281.059C217.121 278.629 220.821 275.499 224.231 275.049C229.631 274.339 223.581 279.479 222.351 281.249H222.361Z" fill="black"/>
<path d="M224.351 266.811C221.761 265.841 218.831 265.671 216.131 266.351L224.351 266.811Z" fill="#F79236"/>
<path d="M224.351 266.811C221.761 265.841 218.831 265.671 216.131 266.351" stroke="#263238" stroke-linecap="round" stroke-linejoin="round"/>
<path d="M225.41 268.77C222.63 267.86 219.3 268.6 217.27 270.6" stroke="#263238" stroke-linecap="round" stroke-linejoin="round"/>
<path d="M241.99 195.581C241.99 195.581 247.55 195.391 247.41 195.601L241.99 195.581Z" fill="white"/>
<path d="M241.99 195.581C241.99 195.581 247.55 195.391 247.41 195.601" stroke="#263238" stroke-linecap="round" stroke-linejoin="round"/>
<path d="M223.379 226.439C228.729 234.419 230.229 240.719 230.269 250.129" stroke="#263238" stroke-linecap="round" stroke-linejoin="round"/>
<path d="M272.25 284.48C272.25 284.48 277.54 287.5 274.91 288.9C273.23 289.79 270.17 286.28 267.87 286.13C265.57 285.98 269.04 284.02 269.04 284.02L272.25 284.48Z" fill="white" stroke="#263238" stroke-linecap="round" stroke-linejoin="round"/>
<path d="M231.62 275.429C232.06 275.649 236.56 277.419 237.04 277.539C239 277.999 244.61 279.309 246.79 279.519C250.64 279.899 262.27 279.469 262.27 279.469C262.54 279.469 262.8 279.529 263.04 279.639L269.65 282.649C269.89 282.759 270.1 282.919 270.27 283.119C270.27 283.119 272.15 285.139 272.21 285.309L272.84 287.659C272.61 286.769 272.88 287.799 272.89 287.869C272.93 288.239 272.89 288.669 272.78 289.039C272.59 289.679 271.74 289.909 271.16 289.519L270.9 288.719C271.59 290.429 271.05 290.759 270.75 290.879C269.95 291.209 269.02 290.779 268.69 290.019L268.27 289.059C268.27 289.059 267.67 290.879 265.65 289.029C265.38 288.789 264.88 287.659 263.96 286.579C263.96 286.579 262.67 285.029 261.81 284.699C259.87 283.969 259.52 283.619 258.9 283.519C258.9 283.519 264.9 287.839 263.42 288.989C261.94 290.139 257.58 285.489 255.86 285.609C254.18 285.729 253.34 289.489 244.6 286.699C244.21 286.579 243.8 286.529 243.39 286.569C241.77 286.729 237.35 287.399 234.81 287.409C220.15 287.469 215.29 283.189 215.2 282.189C214.99 279.869 226.15 272.669 231.6 275.429H231.62Z" fill="white" stroke="#263238" stroke-linecap="round" stroke-linejoin="round"/>
<path d="M262.131 282.559L263.401 282.969C264.021 283.169 264.571 283.529 264.991 284.009L266.771 286.139C266.971 286.369 268.141 288.779 268.271 289.059" stroke="#263238" stroke-linecap="round" stroke-linejoin="round"/>
<path d="M265.211 281.99C265.211 281.99 267.901 283.23 268.311 283.71L269.961 286.74C270.161 286.97 271.331 289.15 271.111 290.36" stroke="#263238" stroke-linecap="round" stroke-linejoin="round"/>
<path d="M247.15 280.809C250.44 279.879 255.41 279.309 257.81 279.589" stroke="#263238" stroke-linecap="round" stroke-linejoin="round"/>
<path d="M261.199 197.391C261.429 198.641 261.149 199.981 260.449 201.041C260.549 200.931 260.629 200.801 260.669 200.661" stroke="#263238" stroke-linecap="round" stroke-linejoin="round"/>
<path d="M346.821 440.109H365.361C370.337 440.109 374.371 436.075 374.371 431.099V408.289C374.371 403.313 370.337 399.279 365.361 399.279H346.821C341.845 399.279 337.811 403.313 337.811 408.289V431.099C337.811 436.075 341.845 440.109 346.821 440.109Z" fill="#5C5C5C" stroke="#263238" stroke-linecap="round" stroke-linejoin="round"/>
<path d="M390.941 399.27H382.261C377.804 399.27 374.191 402.883 374.191 407.34V432.03C374.191 436.486 377.804 440.1 382.261 440.1H390.941C395.398 440.1 399.011 436.486 399.011 432.03V407.34C399.011 402.883 395.398 399.27 390.941 399.27Z" fill="#999999" stroke="#263238" stroke-linecap="round" stroke-linejoin="round"/>
<path d="M338.021 390.95C341.561 393.34 345.691 394.589 349.811 394.519C350.311 394.519 350.821 394.479 351.261 394.239C351.711 393.989 352.071 393.48 352.031 392.92C351.991 392.28 351.481 391.82 351.001 391.47C348.351 389.5 345.461 387.94 342.451 386.82C340.931 386.26 339.371 385.81 337.791 385.48C336.521 385.22 335.171 384.599 333.891 384.609C333.651 387.369 336.161 389.7 338.011 390.95H338.021Z" fill="#F79236"/>
<path d="M388.251 375.089C390.021 372.819 392.56 371.359 395.21 371.069C395.36 371.049 395.531 371.039 395.661 371.149C395.831 371.289 395.85 371.549 395.86 371.789C395.93 375.349 394.84 378.909 392.87 381.669C391.96 382.939 390.821 384.069 389.441 384.569C388.441 384.929 387.251 384.919 386.311 384.379C385.361 383.839 385.531 383.059 385.631 381.989C385.861 379.449 386.761 377.009 388.251 375.089Z" fill="#F79236"/>
<path opacity="0.2" d="M388.251 375.089C390.021 372.819 392.56 371.359 395.21 371.069C395.36 371.049 395.531 371.039 395.661 371.149C395.831 371.289 395.85 371.549 395.86 371.789C395.93 375.349 394.84 378.909 392.87 381.669C391.96 382.939 390.821 384.069 389.441 384.569C388.441 384.929 387.251 384.919 386.311 384.379C385.361 383.839 385.531 383.059 385.631 381.989C385.861 379.449 386.761 377.009 388.251 375.089Z" fill="black"/>
<path d="M371.212 378.32C372.522 376.71 373.482 374.65 373.522 372.46C373.562 370.63 372.952 368.84 372.082 367.29C371.212 365.75 370.082 364.42 368.952 363.1C368.592 367.07 368.482 371.08 368.632 375.07C368.662 375.92 368.722 376.8 369.072 377.54C369.432 378.29 370.172 378.86 370.902 378.67L371.202 378.31L371.212 378.32Z" fill="#F79236"/>
<path d="M376.261 366.17C373.801 368.67 372.251 372.31 372.041 376.05C371.971 377.37 372.071 378.76 372.641 379.92C373.211 381.08 374.331 381.96 375.491 381.84C376.711 381.71 377.651 380.59 378.331 379.45C379.471 377.55 380.861 374.83 380.211 372.48C379.511 369.97 378.141 367.72 376.261 366.17Z" fill="#F79236"/>
<path opacity="0.1" d="M376.261 366.17C373.801 368.67 372.251 372.31 372.041 376.05C371.971 377.37 372.071 378.76 372.641 379.92C373.211 381.08 374.331 381.96 375.491 381.84C376.711 381.71 377.651 380.59 378.331 379.45C379.471 377.55 380.861 374.83 380.211 372.48C379.511 369.97 378.141 367.72 376.261 366.17Z" fill="black"/>
<path d="M383.74 379.36C385.75 377.49 386.57 374.35 386.48 371.4C386.39 368.45 385.51 365.61 384.64 362.83C382.68 365.52 381.08 368.55 379.92 371.78C379.47 373.02 379.09 374.31 379.06 375.65C379.03 376.99 379.41 378.39 380.29 379.28C381.17 380.17 382.59 380.41 383.54 379.62C383.43 379.69 383.32 379.75 383.2 379.82L383.73 379.37L383.74 379.36Z" fill="#F79236"/>
<g opacity="0.2">
<path d="M383.74 379.36C385.75 377.49 386.57 374.35 386.48 371.4C386.39 368.45 385.51 365.61 384.64 362.83C382.68 365.52 381.08 368.55 379.92 371.78C379.47 373.02 379.09 374.31 379.06 375.65C379.03 376.99 379.41 378.39 380.29 379.28C381.17 380.17 382.59 380.41 383.54 379.62C383.43 379.69 383.32 379.75 383.2 379.82L383.73 379.37L383.74 379.36Z" fill="black"/>
</g>
<path d="M388.332 367.78C388.832 371.42 389.322 375.16 388.712 378.78C388.092 382.4 386.152 385.95 383.102 387.23C381.832 387.76 380.202 387.77 379.352 386.57C378.782 385.77 378.722 384.61 378.982 383.62C379.242 382.63 379.772 381.76 380.292 380.92C382.722 376.97 387.792 367.38 388.312 367.78H388.342H388.332Z" fill="#F79236"/>
<path d="M388.332 367.78C388.832 371.42 389.322 375.16 388.712 378.78C388.092 382.4 386.152 385.95 383.102 387.23C381.832 387.76 380.202 387.77 379.352 386.57C378.782 385.77 378.722 384.61 378.982 383.62C379.242 382.63 379.772 381.76 380.292 380.92C382.722 376.97 387.792 367.38 388.312 367.78H388.342H388.332Z" fill="#F79236"/>
<g opacity="0.1">
<path d="M388.332 367.78C388.832 371.42 389.322 375.16 388.712 378.78C388.092 382.4 386.152 385.95 383.102 387.23C381.832 387.76 380.202 387.77 379.352 386.57C378.782 385.77 378.722 384.61 378.982 383.62C379.242 382.63 379.772 381.76 380.292 380.92C382.722 376.97 387.792 367.38 388.312 367.78H388.342H388.332Z" fill="black"/>
</g>
<path d="M378.901 372.711C380.091 374.871 381.091 377.211 381.501 379.711C381.911 382.221 381.691 384.911 380.571 387.121C379.451 389.331 377.351 390.951 375.101 390.971C373.361 390.981 371.661 389.931 370.721 388.281C369.681 386.461 370.441 384.801 371.231 383.021C373.031 378.961 376.011 375.771 378.901 372.711Z" fill="#F79236"/>
<path d="M401.282 379.449C401.902 380.459 401.882 381.849 401.462 382.989C401.042 384.129 400.282 385.059 399.492 385.899C394.122 391.649 386.492 394.569 379.142 393.679C378.532 393.609 377.842 393.449 377.522 392.849C377.172 392.189 377.492 391.289 378.022 390.819C378.562 390.349 379.252 390.199 379.912 390.029C383.672 389.109 387.262 387.449 390.552 385.179C393.842 382.909 397.752 381.329 401.272 379.439L401.282 379.449Z" fill="#F79236"/>
<path opacity="0.1" d="M401.282 379.449C401.902 380.459 401.882 381.849 401.462 382.989C401.042 384.129 400.282 385.059 399.492 385.899C394.122 391.649 386.492 394.569 379.142 393.679C378.532 393.609 377.842 393.449 377.522 392.849C377.172 392.189 377.492 391.289 378.022 390.819C378.562 390.349 379.252 390.199 379.912 390.029C383.672 389.109 387.262 387.449 390.552 385.179C393.842 382.909 397.752 381.329 401.272 379.439L401.282 379.449Z" fill="black"/>
<path d="M388.301 379.44C388.841 378.63 389.531 377.7 390.421 377.8C391.111 377.88 391.621 378.58 391.911 379.3C393.071 382.22 391.681 385.79 389.461 387.76C387.241 389.73 384.381 390.48 381.631 391.17C380.691 391.41 379.741 391.65 378.801 391.89C377.681 392.17 375.421 391.79 376.421 390.02C377.091 388.83 379.351 388.15 380.391 387.44C383.441 385.38 386.151 382.65 388.311 379.44H388.301Z" fill="#F79236"/>
<path d="M399.992 390.95C396.452 393.34 392.322 394.589 388.202 394.519C387.702 394.519 387.192 394.479 386.752 394.239C386.302 393.989 385.942 393.48 385.982 392.92C386.022 392.28 386.532 391.82 387.012 391.47C389.662 389.5 392.552 387.94 395.562 386.82C397.082 386.26 398.642 385.81 400.222 385.48C401.492 385.22 402.842 384.599 404.122 384.609C404.362 387.369 401.852 389.7 400.002 390.95H399.992Z" fill="#F79236"/>
<path d="M388.571 401.869C392.051 401.619 395.381 400.029 398.241 397.779C398.791 397.349 399.381 396.659 399.141 395.959C398.971 395.469 398.471 395.259 398.021 395.109C394.731 394.009 391.371 392.899 387.951 393.039C386.331 393.109 384.711 393.499 383.231 394.249C382.071 394.839 379.681 396.279 379.341 397.829C378.991 399.439 381.991 400.609 383.101 401.039C384.851 401.719 386.731 401.989 388.581 401.859L388.571 401.869Z" fill="#F79236"/>
<path opacity="0.1" d="M388.571 401.869C392.051 401.619 395.381 400.029 398.241 397.779C398.791 397.349 399.381 396.659 399.141 395.959C398.971 395.469 398.471 395.259 398.021 395.109C394.731 394.009 391.371 392.899 387.951 393.039C386.331 393.109 384.711 393.499 383.231 394.249C382.071 394.839 379.681 396.279 379.341 397.829C378.991 399.439 381.991 400.609 383.101 401.039C384.851 401.719 386.731 401.989 388.581 401.859L388.571 401.869Z" fill="black"/>
<path d="M374.852 393.27C378.232 392.5 381.722 392.31 385.152 392.71C386.002 392.81 386.872 392.96 387.622 393.42C388.372 393.89 388.992 394.74 389.022 395.71C389.052 396.69 388.472 397.59 387.752 398.12C387.032 398.65 386.172 398.89 385.332 399.11C382.852 399.76 380.312 400.4 377.782 400.05C375.922 399.8 373.742 398.89 372.542 397.17C370.982 394.94 373.042 393.68 374.852 393.26V393.27Z" fill="#F79236"/>
<path opacity="0.1" d="M374.852 393.27C378.232 392.5 381.722 392.31 385.152 392.71C386.002 392.81 386.872 392.96 387.622 393.42C388.372 393.89 388.992 394.74 389.022 395.71C389.052 396.69 388.472 397.59 387.752 398.12C387.032 398.65 386.172 398.89 385.332 399.11C382.852 399.76 380.312 400.4 377.782 400.05C375.922 399.8 373.742 398.89 372.542 397.17C370.982 394.94 373.042 393.68 374.852 393.26V393.27Z" fill="white"/>
<path d="M364.541 393.24C363.881 392.74 363.231 392.18 362.861 391.39C362.491 390.6 362.471 389.53 363.021 388.88C363.801 387.96 368.171 386.65 369.261 386.39C370.181 386.18 371.111 386.56 371.971 386.97C373.221 387.55 374.451 388.18 375.671 388.84C376.281 389.17 376.891 389.53 377.351 390.08C377.811 390.63 378.111 391.43 377.941 392.17C377.701 393.21 376.701 393.74 375.801 394.07C373.471 394.91 371.011 395.3 368.561 395.22C368.731 395.18 365.631 394.07 364.541 393.25V393.24Z" fill="#F79236"/>
<g opacity="0.1">
<path d="M364.541 393.24C363.881 392.74 363.231 392.18 362.861 391.39C362.491 390.6 362.471 389.53 363.021 388.88C363.801 387.96 368.171 386.65 369.261 386.39C370.181 386.18 371.111 386.56 371.971 386.97C373.221 387.55 374.451 388.18 375.671 388.84C376.281 389.17 376.891 389.53 377.351 390.08C377.811 390.63 378.111 391.43 377.941 392.17C377.701 393.21 376.701 393.74 375.801 394.07C373.471 394.91 371.011 395.3 368.561 395.22C368.731 395.18 365.631 394.07 364.541 393.25V393.24Z" fill="black"/>
</g>
<path d="M373.391 394.959C374.461 395.289 375.491 396.019 375.991 397.149C376.491 398.269 376.351 399.809 375.481 400.599C374.851 401.179 373.991 401.279 373.191 401.359C372.201 401.459 371.201 401.559 370.211 401.659C369.581 401.719 368.891 401.769 368.381 401.349C367.691 400.789 367.631 399.659 367.631 398.689C367.631 397.769 367.651 396.819 367.961 395.969C368.371 394.879 369.131 394.339 370.121 394.489C371.191 394.659 372.331 394.639 373.381 394.969L373.391 394.959Z" fill="#F79236"/>
<path d="M349.762 375.089C347.992 372.819 345.452 371.359 342.802 371.069C342.652 371.049 342.482 371.039 342.352 371.149C342.182 371.289 342.162 371.549 342.152 371.789C342.082 375.349 343.172 378.909 345.142 381.669C346.052 382.939 347.192 384.069 348.572 384.569C349.572 384.929 350.762 384.919 351.702 384.379C352.652 383.839 352.482 383.059 352.382 381.989C352.152 379.449 351.252 377.009 349.762 375.089Z" fill="#F79236"/>
<path opacity="0.2" d="M349.762 375.089C347.992 372.819 345.452 371.359 342.802 371.069C342.652 371.049 342.482 371.039 342.352 371.149C342.182 371.289 342.162 371.549 342.152 371.789C342.082 375.349 343.172 378.909 345.142 381.669C346.052 382.939 347.192 384.069 348.572 384.569C349.572 384.929 350.762 384.919 351.702 384.379C352.652 383.839 352.482 383.059 352.382 381.989C352.152 379.449 351.252 377.009 349.762 375.089Z" fill="black"/>
<path d="M366.802 378.32C365.492 376.71 364.532 374.65 364.492 372.46C364.452 370.63 365.062 368.84 365.932 367.29C366.802 365.75 367.932 364.42 369.062 363.1C369.422 367.07 369.532 371.08 369.382 375.07C369.352 375.92 369.292 376.8 368.942 377.54C368.582 378.29 367.842 378.86 367.112 378.67L366.812 378.31L366.802 378.32Z" fill="#F79236"/>
<path d="M361.751 366.17C364.211 368.67 365.761 372.31 365.971 376.05C366.041 377.37 365.941 378.76 365.371 379.92C364.801 381.08 363.681 381.96 362.521 381.84C361.301 381.71 360.361 380.59 359.681 379.45C358.541 377.55 357.151 374.83 357.801 372.48C358.491 369.97 359.871 367.72 361.751 366.17Z" fill="#F79236"/>
<path opacity="0.1" d="M361.751 366.17C364.211 368.67 365.761 372.31 365.971 376.05C366.041 377.37 365.941 378.76 365.371 379.92C364.801 381.08 363.681 381.96 362.521 381.84C361.301 381.71 360.361 380.59 359.681 379.45C358.541 377.55 357.151 374.83 357.801 372.48C358.491 369.97 359.871 367.72 361.751 366.17Z" fill="black"/>
<path d="M354.272 379.36C352.262 377.49 351.442 374.35 351.532 371.4C351.622 368.45 352.502 365.61 353.372 362.83C355.332 365.52 356.932 368.55 358.092 371.78C358.542 373.02 358.922 374.31 358.952 375.65C358.982 376.99 358.602 378.39 357.722 379.28C356.842 380.17 355.422 380.41 354.472 379.62C354.582 379.69 354.692 379.75 354.812 379.82L354.282 379.37L354.272 379.36Z" fill="#F79236"/>
<g opacity="0.2">
<path d="M354.272 379.36C352.262 377.49 351.442 374.35 351.532 371.4C351.622 368.45 352.502 365.61 353.372 362.83C355.332 365.52 356.932 368.55 358.092 371.78C358.542 373.02 358.922 374.31 358.952 375.65C358.982 376.99 358.602 378.39 357.722 379.28C356.842 380.17 355.422 380.41 354.472 379.62C354.582 379.69 354.692 379.75 354.812 379.82L354.282 379.37L354.272 379.36Z" fill="black"/>
</g>
<path d="M349.681 367.78C349.181 371.42 348.691 375.16 349.301 378.78C349.921 382.4 351.861 385.95 354.911 387.23C356.181 387.76 357.811 387.77 358.661 386.57C359.231 385.77 359.291 384.61 359.031 383.62C358.771 382.63 358.241 381.76 357.721 380.92C355.291 376.97 350.221 367.38 349.701 367.78H349.671H349.681Z" fill="#F79236"/>
<path d="M349.681 367.78C349.181 371.42 348.691 375.16 349.301 378.78C349.921 382.4 351.861 385.95 354.911 387.23C356.181 387.76 357.811 387.77 358.661 386.57C359.231 385.77 359.291 384.61 359.031 383.62C358.771 382.63 358.241 381.76 357.721 380.92C355.291 376.97 350.221 367.38 349.701 367.78H349.671H349.681Z" fill="#F79236"/>
<g opacity="0.1">
<path d="M349.681 367.78C349.181 371.42 348.691 375.16 349.301 378.78C349.921 382.4 351.861 385.95 354.911 387.23C356.181 387.76 357.811 387.77 358.661 386.57C359.231 385.77 359.291 384.61 359.031 383.62C358.771 382.63 358.241 381.76 357.721 380.92C355.291 376.97 350.221 367.38 349.701 367.78H349.671H349.681Z" fill="black"/>
</g>
<path d="M359.1 372.711C357.91 374.871 356.91 377.211 356.5 379.711C356.09 382.221 356.31 384.911 357.43 387.121C358.55 389.331 360.65 390.951 362.9 390.971C364.64 390.981 366.34 389.931 367.28 388.281C368.32 386.461 367.56 384.801 366.77 383.021C364.97 378.961 361.99 375.771 359.1 372.711Z" fill="#F79236"/>
<path d="M336.711 379.73C336.101 380.72 336.121 382.08 336.531 383.2C336.941 384.32 337.681 385.23 338.461 386.06C343.721 391.7 351.211 394.56 358.401 393.69C359.001 393.62 359.681 393.46 359.991 392.88C360.331 392.23 360.021 391.35 359.501 390.89C358.971 390.43 358.291 390.28 357.641 390.12C353.961 389.22 350.431 387.59 347.211 385.37C343.981 383.14 340.151 381.6 336.701 379.74L336.711 379.73Z" fill="#F79236"/>
<path opacity="0.1" d="M336.711 379.73C336.101 380.72 336.121 382.08 336.531 383.2C336.941 384.32 337.681 385.23 338.461 386.06C343.721 391.7 351.211 394.56 358.401 393.69C359.001 393.62 359.681 393.46 359.991 392.88C360.331 392.23 360.021 391.35 359.501 390.89C358.971 390.43 358.291 390.28 357.641 390.12C353.961 389.22 350.431 387.59 347.211 385.37C343.981 383.14 340.151 381.6 336.701 379.74L336.711 379.73Z" fill="black"/>
<path d="M349.091 379.19C348.561 378.4 347.881 377.48 347.011 377.58C346.331 377.66 345.831 378.35 345.551 379.05C344.411 381.91 345.771 385.42 347.961 387.36C350.141 389.3 352.951 390.03 355.651 390.71C356.581 390.94 357.501 391.18 358.431 391.41C359.531 391.69 361.751 391.32 360.761 389.57C360.101 388.4 357.891 387.73 356.861 387.04C353.861 385.01 351.201 382.34 349.081 379.19H349.091Z" fill="#F79236"/>
<path d="M349.432 401.869C345.952 401.619 342.622 400.029 339.762 397.779C339.212 397.349 338.622 396.659 338.862 395.959C339.032 395.469 339.532 395.259 339.982 395.109C343.272 394.009 346.632 392.899 350.052 393.039C351.672 393.109 353.292 393.499 354.772 394.249C355.932 394.839 358.322 396.279 358.662 397.829C359.012 399.439 356.012 400.609 354.902 401.039C353.152 401.719 351.272 401.989 349.422 401.859L349.432 401.869Z" fill="#F79236"/>
<path opacity="0.1" d="M349.432 401.869C345.952 401.619 342.622 400.029 339.762 397.779C339.212 397.349 338.622 396.659 338.862 395.959C339.032 395.469 339.532 395.259 339.982 395.109C343.272 394.009 346.632 392.899 350.052 393.039C351.672 393.109 353.292 393.499 354.772 394.249C355.932 394.839 358.322 396.279 358.662 397.829C359.012 399.439 356.012 400.609 354.902 401.039C353.152 401.719 351.272 401.989 349.422 401.859L349.432 401.869Z" fill="black"/>
<path d="M363.152 393.27C359.772 392.5 356.282 392.31 352.852 392.71C352.002 392.81 351.132 392.96 350.382 393.42C349.632 393.89 349.012 394.74 348.982 395.71C348.952 396.69 349.532 397.59 350.252 398.12C350.972 398.65 351.832 398.89 352.672 399.11C355.152 399.76 357.692 400.4 360.222 400.05C362.082 399.8 364.262 398.89 365.462 397.17C367.022 394.94 364.962 393.68 363.152 393.26V393.27Z" fill="#F79236"/>
<path opacity="0.1" d="M363.152 393.27C359.772 392.5 356.282 392.31 352.852 392.71C352.002 392.81 351.132 392.96 350.382 393.42C349.632 393.89 349.012 394.74 348.982 395.71C348.952 396.69 349.532 397.59 350.252 398.12C350.972 398.65 351.832 398.89 352.672 399.11C355.152 399.76 357.692 400.4 360.222 400.05C362.082 399.8 364.262 398.89 365.462 397.17C367.022 394.94 364.962 393.68 363.152 393.26V393.27Z" fill="white"/>
<path d="M373.472 393.24C374.132 392.74 374.782 392.18 375.152 391.39C375.522 390.6 375.542 389.53 374.992 388.88C374.212 387.96 369.842 386.65 368.752 386.39C367.832 386.18 366.902 386.56 366.042 386.97C364.792 387.55 363.562 388.18 362.342 388.84C361.742 389.17 361.122 389.53 360.662 390.08C360.202 390.63 359.902 391.43 360.072 392.17C360.312 393.21 361.312 393.74 362.212 394.07C364.542 394.91 367.002 395.3 369.452 395.22C369.282 395.18 372.382 394.07 373.472 393.25V393.24Z" fill="#F79236"/>
<g opacity="0.1">
<path d="M373.472 393.24C374.132 392.74 374.782 392.18 375.152 391.39C375.522 390.6 375.542 389.53 374.992 388.88C374.212 387.96 369.842 386.65 368.752 386.39C367.832 386.18 366.902 386.56 366.042 386.97C364.792 387.55 363.562 388.18 362.342 388.84C361.742 389.17 361.122 389.53 360.662 390.08C360.202 390.63 359.902 391.43 360.072 392.17C360.312 393.21 361.312 393.74 362.212 394.07C364.542 394.91 367.002 395.3 369.452 395.22C369.282 395.18 372.382 394.07 373.472 393.25V393.24Z" fill="black"/>
</g>
<path d="M364.61 394.959C363.54 395.289 362.51 396.019 362.01 397.149C361.51 398.269 361.65 399.809 362.52 400.599C363.15 401.179 364.01 401.279 364.81 401.359C365.8 401.459 366.8 401.559 367.79 401.659C368.42 401.719 369.11 401.769 369.62 401.349C370.31 400.789 370.37 399.659 370.37 398.689C370.37 397.769 370.35 396.819 370.04 395.969C369.63 394.879 368.87 394.339 367.88 394.489C366.81 394.659 365.67 394.639 364.62 394.969L364.61 394.959Z" fill="#F79236"/>
<path d="M369.532 373.639C369.352 373.499 369.162 373.369 369.012 373.309C369.072 373.279 369.142 373.269 369.192 373.279C369.222 373.279 369.262 373.289 369.292 373.309C369.292 373.309 369.352 373.349 369.382 373.379C369.412 373.409 369.442 373.449 369.462 373.489C369.482 373.519 369.502 373.559 369.512 373.599C369.512 373.599 369.522 373.619 369.522 373.629L369.532 373.639Z" fill="#F79236"/>
<path opacity="0.1" d="M369.532 373.639C369.352 373.499 369.162 373.369 369.012 373.309C369.072 373.279 369.142 373.269 369.192 373.279C369.222 373.279 369.262 373.289 369.292 373.309C369.292 373.309 369.352 373.349 369.382 373.379C369.412 373.409 369.442 373.449 369.462 373.489C369.482 373.519 369.502 373.559 369.512 373.599C369.512 373.599 369.522 373.619 369.532 373.629V373.639Z" fill="#F79236"/>
<path d="M373.242 383.749C372.872 384.749 372.392 385.729 371.702 386.489C371.012 387.249 370.082 387.779 369.122 387.739C369.082 387.739 369.052 387.739 369.012 387.739C369.012 387.739 368.942 387.739 368.902 387.739C367.942 387.769 367.012 387.249 366.322 386.489C365.632 385.739 365.162 384.749 364.782 383.749C364.292 382.419 363.962 380.979 364.142 379.559C364.352 377.989 365.192 376.599 366.242 375.539C366.512 375.539 367.392 374.529 367.662 374.319C367.682 374.309 367.712 374.289 367.732 374.269C367.752 374.239 367.782 374.219 367.822 374.199C368.002 374.049 368.262 373.829 368.502 373.639C368.612 373.559 368.732 373.479 368.832 373.409C368.862 373.399 368.892 373.379 368.922 373.359C368.952 373.339 368.992 373.329 369.022 373.309C369.172 373.369 369.362 373.489 369.542 373.639C369.872 373.889 370.202 374.189 370.372 374.319C370.652 374.529 371.522 375.539 371.802 375.539C372.842 376.609 373.682 377.999 373.892 379.559C374.082 380.979 373.752 382.429 373.252 383.749H373.242Z" fill="#F79236"/>
<path d="M369.002 373.309C369.002 373.309 368.942 373.339 368.902 373.359C368.872 373.369 368.842 373.389 368.812 373.409C368.712 373.469 368.592 373.549 368.482 373.639C368.552 373.429 368.672 373.299 368.822 373.289C368.872 373.289 368.932 373.289 369.002 373.319V373.309Z" fill="#F79236"/>
<g opacity="0.2">
<path d="M373.242 383.748C372.872 384.748 372.392 385.728 371.702 386.488C371.012 387.248 370.082 387.778 369.122 387.738C369.082 387.738 369.052 387.738 369.012 387.738C369.012 387.738 368.942 387.738 368.902 387.738C367.942 387.768 367.012 387.248 366.322 386.488C365.632 385.738 365.162 384.748 364.782 383.748C364.292 382.418 363.962 380.978 364.142 379.558C364.352 377.988 365.192 376.598 366.242 375.538C366.512 375.538 367.392 374.528 367.662 374.318C367.832 374.198 368.182 373.878 368.502 373.638C368.692 373.498 368.872 373.378 369.022 373.318C369.172 373.378 369.362 373.498 369.552 373.648C369.882 373.898 370.212 374.198 370.382 374.328C370.662 374.538 371.532 375.548 371.812 375.548C372.852 376.618 373.692 378.008 373.902 379.568C374.092 380.988 373.762 382.438 373.262 383.758L373.242 383.748Z" fill="white"/>
<path d="M369.002 373.309C368.852 373.369 368.672 373.489 368.482 373.629C368.552 373.419 368.672 373.289 368.822 373.279C368.872 373.279 368.932 373.279 369.002 373.309Z" fill="white"/>
</g>
<path opacity="0.1" d="M369.532 373.639C369.352 373.499 369.162 373.369 369.002 373.309C369.062 373.279 369.132 373.269 369.182 373.279C369.332 373.289 369.452 373.419 369.532 373.639Z" fill="white"/>
<path d="M369.639 291.22C369.639 291.22 369.929 288.72 365.159 287.43C356.549 285.1 351.439 290.01 351.389 290.05C349.369 291.86 350.429 294.8 352.969 294.8C354.409 294.8 356.209 294.8 358.479 294.8L369.639 291.22Z" fill="white" stroke="#263238" stroke-linecap="round" stroke-linejoin="round"/>
<path d="M367.909 294.711H360.239C359.279 294.711 358.509 293.931 358.509 292.981V290.511H369.639V292.981C369.639 293.941 368.859 294.711 367.909 294.711Z" fill="white" stroke="#263238" stroke-linecap="round" stroke-linejoin="round"/>
<path d="M369.638 290.531C369.638 288.931 367.148 287.641 364.068 287.641C360.988 287.641 358.498 288.941 358.498 290.531H369.628H369.638Z" fill="white" stroke="#263238" stroke-linecap="round" stroke-linejoin="round"/>
<path d="M358.508 290.531C358.508 288.931 360.998 287.641 364.078 287.641V290.531H358.508Z" fill="white" stroke="#263238" stroke-linecap="round" stroke-linejoin="round"/>
<path d="M251.479 294.47H273.099V289.18L251.479 291.44V294.47Z" fill="white" stroke="#263238" stroke-linecap="round" stroke-linejoin="round"/>
<path d="M273.099 294.459H327.189V289.169H273.099V294.459Z" fill="#999999" stroke="#263238" stroke-linecap="round" stroke-linejoin="round"/>
<path d="M289.48 215.07H295.66L289.36 275.06H283.18C281.76 275.06 280.73 273.91 280.88 272.49L286.65 217.64C286.8 216.22 288.07 215.07 289.49 215.07H289.48Z" fill="white" stroke="#263238" stroke-linecap="round" stroke-linejoin="round"/>
<path d="M286.061 275.06H363.831C365.251 275.06 366.521 273.91 366.671 272.49L372.431 217.64C372.581 216.22 371.551 215.07 370.131 215.07H292.361C290.941 215.07 289.671 216.22 289.521 217.64L283.761 272.49C283.611 273.91 284.641 275.06 286.061 275.06Z" fill="white" stroke="#263238" stroke-linecap="round" stroke-linejoin="round"/>
<path d="M313.08 219.609H319.41" stroke="#263238" stroke-linecap="round" stroke-linejoin="round"/>
<path d="M291.48 239.899L293.06 226.699C293.54 222.659 296.97 219.609 301.04 219.609H309.57" stroke="#263238" stroke-linecap="round" stroke-linejoin="round"/>
<path d="M313.08 293.58H351.76V287.41H313.08V293.58Z" fill="#5C5C5C" stroke="#263238" stroke-linecap="round" stroke-linejoin="round"/>
<path d="M301.76 293.58H313.08V287.41H301.76V293.58Z" fill="#999999" stroke="#263238" stroke-linecap="round" stroke-linejoin="round"/>
<path d="M332.75 261.26C332.45 258.41 330.23 256.03 327.51 255.37C327.97 255.25 328.45 255.17 328.96 255.17C332.32 255.17 335.33 257.89 335.69 261.26C336.04 264.62 333.6 267.35 330.24 267.35C329.73 267.35 329.24 267.27 328.75 267.15C331.33 266.49 333.05 264.11 332.75 261.26Z" fill="#263238" stroke="#263238" stroke-linecap="round" stroke-linejoin="round"/>
<path d="M318.96 250.779L322.81 287.409H319.88L316.03 250.779C315.94 249.899 316.58 249.189 317.45 249.189H320.38C319.5 249.189 318.86 249.899 318.96 250.779Z" fill="#999999" stroke="#263238" stroke-linecap="round" stroke-linejoin="round"/>
<path d="M318.961 250.779L322.811 287.409H341.891L338.041 250.779C337.951 249.899 337.161 249.189 336.281 249.189H320.391C319.511 249.189 318.871 249.899 318.971 250.779H318.961Z" fill="#5C5C5C" stroke="#263238" stroke-linecap="round" stroke-linejoin="round"/>
<path d="M433.899 332.21V403.66C433.899 424.63 417.479 441.63 397.199 441.63H373.049C393.309 441.63 409.749 424.62 409.749 403.66V332.21C409.749 311.25 393.309 294.24 373.049 294.24H397.199C417.469 294.24 433.899 311.25 433.899 332.21Z" fill="#F79236" stroke="#263238" stroke-linecap="round" stroke-linejoin="round"/>
<path opacity="0.1" d="M433.899 332.21V403.66C433.899 424.63 417.479 441.63 397.199 441.63H373.049C393.309 441.63 409.749 424.62 409.749 403.66V332.21C409.749 311.25 393.309 294.24 373.049 294.24H397.199C417.469 294.24 433.899 311.25 433.899 332.21Z" fill="black" stroke="#263238" stroke-linecap="round" stroke-linejoin="round"/>
<path d="M225.029 441.64H200.869C180.609 441.64 164.189 424.63 164.189 403.67V332.22C164.189 311.26 180.609 294.25 200.869 294.25H225.029C204.759 294.25 188.329 311.26 188.329 332.22V403.67C188.329 424.64 204.749 441.64 225.029 441.64Z" fill="#F79236" stroke="#263238" stroke-linecap="round" stroke-linejoin="round"/>
<path opacity="0.1" d="M225.029 441.64H200.869C180.609 441.64 164.189 424.63 164.189 403.67V332.22C164.189 311.26 180.609 294.25 200.869 294.25H225.029C204.759 294.25 188.329 311.26 188.329 332.22V403.67C188.329 424.64 204.749 441.64 225.029 441.64Z" fill="black" stroke="#263238" stroke-linecap="round" stroke-linejoin="round"/>
<path d="M397.21 294.24H225.03C204.77 294.24 188.34 311.24 188.34 332.21V403.66C188.34 424.63 204.77 441.63 225.03 441.63H397.21C417.47 441.63 433.9 424.63 433.9 403.66V332.21C433.9 311.24 417.47 294.24 397.21 294.24ZM397.21 294.24H225.03C204.77 294.24 188.34 311.24 188.34 332.21V403.66C188.34 424.63 204.77 441.63 225.03 441.63H397.21C417.47 441.63 433.9 424.63 433.9 403.66V332.21C433.9 311.24 417.47 294.24 397.21 294.24ZM424.83 403.67C424.83 419.43 412.44 432.25 397.21 432.25H225.03C209.8 432.25 197.41 419.43 197.41 403.67V332.22C197.41 316.46 209.8 303.64 225.03 303.64H397.21C412.44 303.64 424.83 316.46 424.83 332.22V403.67ZM424.83 403.67C424.83 419.43 412.44 432.25 397.21 432.25H225.03C209.8 432.25 197.41 419.43 197.41 403.67V332.22C197.41 316.46 209.8 303.64 225.03 303.64H397.21C412.44 303.64 424.83 316.46 424.83 332.22V403.67Z" fill="#F79236" stroke="#263238" stroke-linecap="round" stroke-linejoin="round"/>
<path opacity="0.3" d="M397.21 294.24H225.03C204.77 294.24 188.34 311.24 188.34 332.21V403.66C188.34 424.63 204.77 441.63 225.03 441.63H397.21C417.47 441.63 433.9 424.63 433.9 403.66V332.21C433.9 311.24 417.47 294.24 397.21 294.24ZM424.83 403.67C424.83 419.43 412.44 432.25 397.21 432.25H225.03C209.8 432.25 197.41 419.43 197.41 403.67V332.22C197.41 316.46 209.8 303.64 225.03 303.64H397.21C412.44 303.64 424.83 316.46 424.83 332.22V403.67Z" fill="white" stroke="#263238" stroke-linecap="round" stroke-linejoin="round"/>
<path d="M451.54 442.09H0.5" stroke="#263238" stroke-linecap="round" stroke-linejoin="round"/>
</g>
<defs>
<clipPath id="clip0_2342_7814">
<rect width="452.04" height="442.59" fill="white"/>
</clipPath>
</defs>
</svg>
