<svg  viewBox="0 0 467 447" fill="none" xmlns="http://www.w3.org/2000/svg">
<g clip-path="url(#clip0_2133_8015)">
<path d="M396.11 92.4009C396.11 92.4009 308.67 7.56095 206.21 17.3509C103.76 27.1409 -13.6996 226.831 9.14037 296.001C31.9804 365.171 107.68 420.641 195.78 440.221C283.88 459.801 371.48 429.661 414.39 367.781C457.31 305.901 513.58 230.091 396.12 92.3909L396.11 92.4009Z" fill="#F79236"/>
<path opacity="0.7" d="M396.11 92.4009C396.11 92.4009 308.67 7.56095 206.21 17.3509C103.76 27.1409 -13.6996 226.831 9.14037 296.001C31.9804 365.171 107.68 420.641 195.78 440.221C283.88 459.801 371.48 429.661 414.39 367.781C457.31 305.901 513.58 230.091 396.12 92.3909L396.11 92.4009Z" fill="white"/>
<path d="M427.119 280.85C427.119 280.85 427.119 280.77 427.079 280.75C427.039 280.73 426.999 280.75 426.979 280.79C424.759 285.92 423.199 291.3 421.899 296.72C420.639 302.16 419.729 307.68 419.099 313.24L418.699 317.42C418.639 318.12 418.559 318.81 418.509 319.51L418.399 321.6C418.339 323 418.249 324.39 418.209 325.79L418.249 329.99L418.299 332.09C418.329 332.79 418.379 333.49 418.429 334.18C418.539 335.57 418.619 336.97 418.749 338.36C419.019 341.14 419.439 343.91 419.869 346.66C419.869 346.7 419.909 346.72 419.939 346.72C419.979 346.72 420.009 346.69 420.009 346.65C420.009 345.25 419.939 343.86 419.909 342.46C419.869 341.07 419.749 339.69 419.769 338.29C419.769 336.9 419.739 335.51 419.719 334.13L419.679 332.05L419.719 329.97L419.739 325.81L419.849 321.65L419.889 319.57C419.919 318.88 419.969 318.19 420.009 317.49L420.269 313.34C420.759 307.81 421.519 302.31 422.619 296.86C423.719 291.42 425.089 286.01 427.119 280.83V280.85Z" fill="#263238"/>
<path d="M427.72 302.59C427.72 302.59 427.72 302.51 427.67 302.5C427.63 302.49 427.589 302.5 427.579 302.55C426.379 306 425.429 309.54 424.619 313.11C423.849 316.69 423.239 320.31 422.869 323.96C422.499 327.6 422.09 331.24 422.04 334.9C421.98 338.56 422.039 342.22 422.429 345.87C422.429 345.9 422.46 345.93 422.5 345.94C422.54 345.94 422.579 345.91 422.579 345.87C422.999 342.23 423.26 338.59 423.51 334.96C423.77 331.33 423.8 327.69 424.04 324.06C424.26 320.44 424.71 316.83 425.34 313.25C425.95 309.67 426.71 306.1 427.72 302.6V302.59Z" fill="#263238"/>
<path d="M439.769 310.24C439.769 310.24 439.699 310.2 439.669 310.22C436.649 312.13 433.959 314.54 431.609 317.25C430.449 318.63 429.379 320.07 428.459 321.63L427.809 322.85L427.299 324.12C427.119 324.54 426.989 324.97 426.859 325.41C426.729 325.84 426.579 326.27 426.469 326.71C425.559 330.2 424.969 333.76 424.799 337.34C424.649 340.92 424.719 344.5 425.199 348.05C425.199 348.08 425.229 348.11 425.269 348.11C425.309 348.11 425.349 348.08 425.349 348.04L426.269 337.44C426.639 333.94 426.859 330.41 427.609 326.99C427.709 326.56 427.829 326.15 427.939 325.72C428.049 325.3 428.159 324.87 428.309 324.47L428.739 323.24L429.289 322.08C430.109 320.55 431.099 319.08 432.179 317.7C434.329 314.92 436.869 312.39 439.749 310.33C439.749 310.33 439.789 310.26 439.769 310.23V310.24Z" fill="#263238"/>
<path d="M433.938 323.86C432.298 324.92 431.198 326.59 430.278 328.27C429.398 329.99 428.708 331.8 428.228 333.67C428.088 334.13 427.968 334.6 427.868 335.07L427.538 336.48C427.368 337.43 427.238 338.38 427.178 339.34C427.168 340.3 427.138 341.26 427.198 342.22C427.278 343.18 427.388 344.13 427.578 345.08C427.578 345.11 427.608 345.13 427.638 345.14C427.678 345.14 427.718 345.12 427.728 345.08C427.958 344.13 428.108 343.2 428.238 342.26C428.388 341.33 428.528 340.4 428.648 339.47C428.788 338.55 428.908 337.62 428.978 336.69C429.108 335.77 429.178 334.83 429.378 333.92C429.698 332.08 430.228 330.29 430.948 328.57C431.658 326.87 432.598 325.17 434.028 323.97H434.038C434.038 323.97 434.068 323.9 434.048 323.87C434.028 323.84 433.978 323.83 433.948 323.85L433.938 323.86Z" fill="#263238"/>
<path d="M417.029 334.479C416.629 329.769 415.859 325.119 415.119 320.459C414.379 315.799 413.569 311.159 412.719 306.529C411.839 301.899 410.919 297.279 409.919 292.679C409.919 292.639 409.869 292.619 409.839 292.619C409.799 292.619 409.769 292.669 409.779 292.709C410.589 297.349 411.309 301.999 411.999 306.659C412.709 311.309 413.369 315.969 413.959 320.639C414.539 325.309 414.979 329.989 415.569 334.649L417.289 348.659C417.289 348.659 417.319 348.719 417.359 348.729C417.399 348.729 417.429 348.699 417.439 348.659C417.489 347.479 417.499 346.299 417.519 345.119C417.529 343.939 417.469 342.759 417.449 341.579C417.409 339.219 417.199 336.859 417.029 334.509V334.479Z" fill="#263238"/>
<path d="M414.208 334.41C413.958 332.55 413.618 330.69 413.258 328.85L412.598 326.1C412.378 325.18 412.178 324.27 411.908 323.36C410.968 319.71 409.768 316.13 408.308 312.66L407.748 311.37L407.118 310.1C406.718 309.25 406.238 308.43 405.778 307.61C404.798 306.01 403.778 304.41 402.378 303.11C402.348 303.08 402.308 303.08 402.278 303.11C402.248 303.14 402.248 303.18 402.278 303.21C403.568 304.55 404.498 306.2 405.388 307.82C405.798 308.66 406.228 309.48 406.578 310.34L407.128 311.62L407.618 312.93C408.918 316.41 409.968 319.99 410.758 323.63C411.188 325.44 411.468 327.29 411.818 329.11L412.258 331.87C412.418 332.79 412.618 333.7 412.738 334.62C413.028 336.46 413.368 338.29 413.688 340.14C413.978 341.99 414.308 343.83 414.698 345.67C414.698 345.7 414.738 345.73 414.768 345.73C414.808 345.73 414.838 345.7 414.838 345.66C414.838 343.78 414.798 341.9 414.708 340.02C414.598 338.14 414.378 336.28 414.178 334.4L414.208 334.41Z" fill="#263238"/>
<path d="M410.319 334.651C409.449 332.181 408.439 329.761 407.339 327.391C406.209 325.031 404.989 322.721 403.589 320.521C403.569 320.491 403.519 320.481 403.489 320.501C403.459 320.521 403.439 320.571 403.459 320.601C404.679 322.891 405.719 325.271 406.659 327.691C407.619 330.101 408.479 332.541 409.199 335.021C409.939 337.501 410.459 340.021 411.119 342.511C411.809 345.001 412.369 347.511 413.139 350.031C413.139 350.061 413.179 350.081 413.209 350.081C413.249 350.081 413.279 350.051 413.289 350.011C413.329 347.381 413.069 344.751 412.559 342.181C412.099 339.591 411.189 337.111 410.319 334.651Z" fill="#263238"/>
<path d="M410.149 342.87C409.699 341.32 408.939 339.88 408.079 338.53C407.229 337.17 406.249 335.88 405.059 334.78C404.449 334.25 403.829 333.75 403.139 333.33C402.459 332.91 401.739 332.55 400.959 332.35C400.929 332.35 400.889 332.35 400.869 332.39C400.849 332.43 400.869 332.47 400.909 332.49C402.319 333.12 403.509 334.16 404.519 335.3C405.539 336.44 406.349 337.75 407.029 339.11C407.739 340.46 408.109 341.96 408.729 343.35C408.999 344.06 409.279 344.78 409.589 345.5C409.859 346.23 410.159 346.95 410.539 347.67C410.539 347.67 410.579 347.71 410.599 347.71C410.639 347.71 410.679 347.68 410.679 347.64C410.709 346.83 410.669 346.03 410.589 345.23C410.469 344.44 410.309 343.66 410.119 342.87H410.149Z" fill="#263238"/>
<path d="M410.44 299.4C410.44 299.4 402.73 297.62 400.95 289.32C399.17 281.02 404.9 284.57 399.76 271.53C394.62 258.48 395.81 255.51 397.59 251.76C399.37 248 400.36 249.19 401.94 254.13C403.52 259.07 409.26 266.78 411.43 281.22C413.6 295.65 410.44 299.41 410.44 299.41V299.4Z" fill="#F79236"/>
<path d="M425.67 285.37C425.67 285.37 420.53 283.59 420.33 273.9C420.13 264.21 424.09 266.19 424.68 254.13C425.27 242.07 426.06 233.57 428.24 233.37C430.41 233.17 436.15 239.3 438.13 252.75C440.11 266.19 435.56 275.09 431.61 279.05C427.66 283.01 425.68 285.38 425.68 285.38L425.67 285.37Z" fill="#F79236"/>
<path d="M407.68 311.07C407.68 311.07 406.49 303.95 404.12 300.59C401.75 297.23 396.61 294.26 393.25 287.74C389.89 281.22 386.13 278.05 386.33 287.34C386.53 296.63 390.68 301.38 395.82 304.54C400.96 307.7 407.68 311.06 407.68 311.06V311.07Z" fill="#F79236"/>
<path d="M405.5 323.331C405.5 323.331 400.75 314.241 393.83 307.511C386.91 300.791 381.37 297.431 383.35 300.791C385.33 304.151 387.7 303.951 391.06 309.891C394.42 315.821 393.43 320.171 398.18 323.531C402.93 326.891 405.5 323.331 405.5 323.331Z" fill="#F79236"/>
<path d="M404.91 334.989C404.71 334.399 404.51 330.049 397.79 326.489C391.07 322.929 384.74 324.319 385.53 326.089C386.32 327.869 390.47 330.839 394.63 332.609C398.78 334.389 404.91 334.979 404.91 334.979V334.989Z" fill="#F79236"/>
<path d="M425.27 311.46C425.27 311.46 422.3 307.7 423.89 299.79C425.47 291.88 429.03 293.86 432.99 289.71C436.94 285.56 436.15 284.96 440.11 280.61C444.06 276.26 447.62 273.89 449.21 275.67C450.79 277.45 448.42 282.99 446.05 286.15C443.68 289.31 439.92 290.9 438.14 294.85C436.36 298.8 437.15 305.13 432.6 308.1C428.05 311.07 425.28 311.46 425.28 311.46H425.27Z" fill="#F79236"/>
<path d="M435.16 313.64C435.16 313.64 442.28 305.53 447.42 299.6C452.56 293.67 454.54 289.12 454.74 293.08C454.94 297.03 456.52 300.2 452.37 305.34C448.22 310.48 435.17 313.64 435.17 313.64H435.16Z" fill="#F79236"/>
<path d="M431.399 326.69C431.399 326.69 431.199 323.53 442.469 316.21C453.739 308.89 458.489 307.51 457.299 310.48C456.109 313.45 451.169 316.41 445.829 321.75C440.489 327.09 431.399 326.69 431.399 326.69Z" fill="#F79236"/>
<path d="M410.909 298.56C410.909 298.56 408.259 284.38 405.499 274.29C402.729 264.21 400.949 258.08 400.949 258.08" stroke="#263238" stroke-linecap="round" stroke-linejoin="round"/>
<path d="M425.209 285.511C425.209 285.511 430.019 270.141 431.599 260.841C433.179 251.551 431.399 244.631 430.609 240.471" stroke="#263238" stroke-linecap="round" stroke-linejoin="round"/>
<path d="M407.05 310.769C407.05 310.769 404.11 305.529 399.76 300.389C395.41 295.249 392.05 292.479 390.07 287.539" stroke="#263238" stroke-linecap="round" stroke-linejoin="round"/>
<path d="M425.27 311.46C425.27 311.46 426.85 301.97 430.61 297.03C434.37 292.09 441.88 284.38 444.85 279.43" stroke="#263238" stroke-linecap="round" stroke-linejoin="round"/>
<path d="M404.439 334.78C404.439 334.78 397.789 330.45 393.039 328.08" stroke="#263238" stroke-linecap="round" stroke-linejoin="round"/>
<path d="M442.54 374.629C442.1 362.629 428.76 354.629 428.76 354.629H408.33C408.33 354.629 395 362.629 394.55 374.629C394.11 386.629 409.66 430.619 409.66 430.619H427.43C427.43 430.619 442.98 386.629 442.54 374.629Z" fill="#263238" stroke="#263238" stroke-linecap="round" stroke-linejoin="round"/>
<path d="M431.39 342.84H405.32L408.33 354.63H428.39L431.39 342.84Z" fill="#263238" stroke="#263238" stroke-linecap="round" stroke-linejoin="round"/>
<path d="M392.239 0.5H284.789V121.78H392.239V0.5Z" stroke="#263238" stroke-miterlimit="10"/>
<path d="M387.299 6.07031H289.719V116.2H387.299V6.07031Z" stroke="#263238" stroke-miterlimit="10"/>
<path d="M361.579 35.0996H315.449V87.1696H361.579V35.0996Z" stroke="#263238" stroke-miterlimit="10"/>
<path d="M461.26 76H401.6V143.33H461.26V76Z" stroke="#263238" stroke-miterlimit="10"/>
<path d="M458.52 79.0996H404.34V140.25H458.52V79.0996Z" stroke="#263238" stroke-miterlimit="10"/>
<path d="M444.229 95.2207H418.619V124.131H444.229V95.2207Z" stroke="#263238" stroke-miterlimit="10"/>
<path d="M131.571 83.8753C147.227 68.2191 147.227 42.8356 131.571 27.1794C115.915 11.5233 90.5314 11.5233 74.8753 27.1794C59.2191 42.8356 59.2191 68.2191 74.8753 83.8753C90.5314 99.5314 115.915 99.5314 131.571 83.8753Z" stroke="#263238" stroke-miterlimit="10"/>
<path d="M139.781 61.6478C143.164 41.456 129.537 22.3452 109.345 18.9626C89.1533 15.58 70.0424 29.2066 66.6599 49.3984C63.2773 69.5903 76.9039 88.7011 97.0957 92.0837C117.288 95.4663 136.398 81.8397 139.781 61.6478Z" stroke="#263238" stroke-miterlimit="10"/>
<path d="M106.399 55.5296C106.399 57.2896 104.979 58.7096 103.219 58.7096C101.459 58.7096 100.039 57.2896 100.039 55.5296C100.039 53.7696 101.459 52.3496 103.219 52.3496C104.979 52.3496 106.399 53.7696 106.399 55.5296Z" stroke="#263238" stroke-miterlimit="10"/>
<path d="M100.041 55.5293H89.2109" stroke="#263238" stroke-miterlimit="10"/>
<path d="M103.221 58.709V83.009" stroke="#263238" stroke-miterlimit="10"/>
<path d="M133.9 247.641H99.9297V250.621H133.9V247.641Z" fill="#263238" stroke="#263238" stroke-miterlimit="10"/>
<path d="M117.33 226.061H99.9297V250.621H117.33V226.061Z" fill="#263238" stroke="#263238" stroke-miterlimit="10"/>
<path d="M161.18 141.551H50.7402V227.701H161.18V141.551Z" fill="#263238" stroke="#263238" stroke-miterlimit="10"/>
<path d="M164.51 141.551H54.0703V227.701H164.51V141.551Z" fill="white" stroke="#263238" stroke-miterlimit="10"/>
<path d="M160.66 144.561H57.9199V224.701H160.66V144.561Z" fill="#C4C4C4" stroke="#263238" stroke-miterlimit="10"/>
<path d="M226.819 246.871H141.609V250.621H226.819V246.871Z" fill="white" stroke="#263238" stroke-miterlimit="10"/>
<path d="M59.1301 256.932L59.0001 263.322L55.6901 427.112C55.6501 429.062 54.0601 430.622 52.1101 430.622C50.1601 430.622 48.5601 429.062 48.5301 427.112L45.2101 263.322L45.0801 256.932H59.1301Z" fill="white" stroke="#263238" stroke-miterlimit="10"/>
<path d="M59.1301 256.932L59.0001 263.322H45.2101L45.0801 256.932H59.1301Z" fill="#263238" stroke="#263238" stroke-miterlimit="10"/>
<path d="M368.95 430.622C367 430.622 365.41 429.062 365.37 427.112L361.93 256.932H375.98L372.54 427.112C372.5 429.062 370.91 430.622 368.96 430.622H368.95Z" fill="white" stroke="#263238" stroke-miterlimit="10"/>
<path d="M362.06 263.322H375.85L375.98 256.932H361.93L362.06 263.322Z" fill="#263238" stroke="#263238" stroke-miterlimit="10"/>
<path d="M382.999 250.551H36.7793V258.851H382.999V250.551Z" fill="white" stroke="#263238" stroke-miterlimit="10"/>
<path d="M250.231 326.83H232.781V393.74H250.231V326.83Z" fill="#263238" stroke="#263238" stroke-miterlimit="10"/>
<path d="M168.82 289.68L176.02 315.68L179.36 310.79L170.87 289.42L168.82 289.68Z" fill="#263238" stroke="#263238" stroke-miterlimit="10"/>
<path d="M181.421 274.35H170.581C169.121 274.35 167.691 274.8 166.521 275.66C165.011 276.77 156.971 286.53 155.071 289.75C154.281 291.08 155.261 292.77 156.801 292.77H167.531C168.241 292.77 168.941 292.66 169.621 292.43C170.961 291.98 172.131 291.11 172.941 289.96L182.451 277.09C182.451 277.09 183.481 275.72 181.421 274.35Z" fill="#F79236" stroke="#263238" stroke-miterlimit="10"/>
<path d="M310.12 289.68L302.92 315.68L299.57 310.79L308.06 289.42L310.12 289.68Z" fill="#263238" stroke="#263238" stroke-miterlimit="10"/>
<path d="M297.51 274.35H308.35C309.81 274.35 311.24 274.8 312.41 275.66C313.92 276.77 321.96 286.53 323.86 289.75C324.65 291.08 323.67 292.77 322.13 292.77H311.4C310.69 292.77 309.99 292.66 309.31 292.43C307.97 291.98 306.8 291.11 305.99 289.96L296.48 277.09C296.48 277.09 295.45 275.72 297.51 274.35Z" fill="#F79236" stroke="#263238" stroke-miterlimit="10"/>
<path d="M208.471 223.16H270.951C284.471 223.16 295.451 234.14 295.451 247.66V309.41H183.971V247.66C183.971 234.14 194.951 223.16 208.471 223.16Z" fill="#F79236" stroke="#263238" stroke-miterlimit="10"/>
<path d="M298.74 322.28H180.86C176.75 322.28 174.08 317.97 175.9 314.29L184.12 307.45C185.14 305.39 187.24 304.08 189.54 304.08H290.09C292.39 304.08 294.49 305.39 295.51 307.45L303.7 314.29C305.52 317.97 302.84 322.28 298.74 322.28Z" fill="#F79236" stroke="#263238" stroke-miterlimit="10"/>
<path d="M184.24 321.901C184.24 321.901 206.24 328.351 239.99 329.481C273.74 330.621 298.74 322.271 298.74 322.271L184.24 321.891V321.901Z" fill="#263238" stroke="#263238" stroke-miterlimit="10"/>
<path d="M235.811 328.34L195.611 334.03" stroke="#263238" stroke-width="2" stroke-miterlimit="10"/>
<path d="M198.41 339.86H193.05C192.45 339.86 191.98 339.33 192.05 338.73L192.68 333.62C192.74 333.12 193.17 332.74 193.68 332.74H197.78C198.29 332.74 198.71 333.12 198.78 333.62L199.41 338.73C199.48 339.33 199.02 339.86 198.41 339.86Z" fill="#263238"/>
<path d="M198.41 340.631H193.05C192.54 340.631 192.06 340.411 191.72 340.031C191.38 339.651 191.23 339.141 191.29 338.641L191.92 333.531C192.03 332.641 192.79 331.971 193.68 331.971H197.78C198.67 331.971 199.43 332.641 199.54 333.531L200.17 338.641C200.23 339.151 200.08 339.651 199.74 340.041C199.4 340.421 198.92 340.641 198.41 340.641V340.631ZM193.68 333.511C193.56 333.511 193.46 333.601 193.45 333.711L192.82 338.821C192.81 338.911 192.85 338.971 192.88 339.001C192.91 339.031 192.96 339.081 193.05 339.081H198.41C198.5 339.081 198.56 339.031 198.58 339.001C198.61 338.971 198.65 338.911 198.64 338.821L198.01 333.711C198 333.591 197.9 333.511 197.78 333.511H193.68Z" fill="#263238"/>
<path d="M177.301 422.391H171.131V415.001C171.131 401.571 182.061 390.641 195.491 390.641H232.781V396.811H195.491C185.461 396.811 177.301 404.971 177.301 415.001V422.391Z" fill="#263238"/>
<path d="M304.011 422.391H310.181V415.001C310.181 401.571 299.251 390.641 285.821 390.641H248.531V396.811H285.821C295.851 396.811 304.011 404.971 304.011 415.001V422.391Z" fill="#263238"/>
<path d="M185.792 424.19C185.792 420.64 182.912 417.76 179.362 417.76C175.812 417.76 172.932 420.64 172.932 424.19C172.932 427.74 175.812 430.62 179.362 430.62C182.912 430.62 185.792 427.74 185.792 424.19Z" fill="#6E6E6E" stroke="#263238" stroke-miterlimit="10"/>
<path d="M308.7 424.19C308.7 420.64 305.82 417.76 302.27 417.76C298.72 417.76 295.84 420.64 295.84 424.19C295.84 427.74 298.72 430.62 302.27 430.62C305.82 430.62 308.7 427.74 308.7 424.19Z" fill="#6E6E6E" stroke="#263238" stroke-miterlimit="10"/>
<path d="M245.17 391.529H237.41V422.559H245.17V391.529Z" fill="#263238"/>
<path d="M240.04 418.18H242.89C244.34 418.18 245.51 419.36 245.51 420.8V427.7C245.51 429.15 244.33 430.32 242.89 430.32H240.04C238.59 430.32 237.42 429.14 237.42 427.7V420.8C237.42 419.35 238.6 418.18 240.04 418.18Z" fill="#6E6E6E" stroke="#263238" stroke-miterlimit="10"/>
<path d="M129.8 220.508C129.8 220.508 126.36 217.728 124.9 215.078C123.44 212.428 122.12 212.428 120.27 211.638C118.42 210.848 111.53 207.538 109.55 205.148C107.56 202.768 104.65 203.298 104.65 204.748C104.65 206.198 108.62 211.238 110.34 212.298C112.06 213.358 114.18 215.078 112.19 216.008C110.2 216.938 107.29 217.998 105.7 218.388C104.11 218.788 99.0804 217.598 97.6204 217.598C96.1604 217.598 97.2204 219.848 101.06 224.748C104.9 229.648 110.99 232.298 115.23 231.498C119.47 230.708 124.23 230.438 124.23 230.438L131.11 233.878L129.79 220.508H129.8Z" fill="white" stroke="#263238" stroke-miterlimit="10"/>
<path d="M106.239 224.349C106.239 224.349 106.369 218.789 106.369 216.799C106.369 214.809 107.689 208.859 107.159 207.929C106.629 206.999 104.379 207.929 104.379 207.929C104.379 207.929 105.569 203.559 105.169 203.299C104.769 203.039 103.049 203.699 102.259 204.089C101.469 204.489 99.8794 204.089 99.3494 204.749C98.8194 205.409 94.1895 213.359 94.1895 215.469C94.1895 217.579 96.9695 221.959 99.7495 223.939C102.529 225.929 105.839 228.439 106.239 224.339V224.349Z" fill="white" stroke="#263238" stroke-miterlimit="10"/>
<path d="M104.38 207.93C104.38 207.93 101.47 215.48 101.34 220.77L104.38 207.93Z" fill="white"/>
<path d="M104.38 207.93C104.38 207.93 101.47 215.48 101.34 220.77" stroke="#263238" stroke-miterlimit="10"/>
<path d="M102.259 204.09C102.259 204.09 96.4393 213.89 96.8293 217.46C97.2293 221.03 98.5493 221.83 98.5493 221.83" fill="white"/>
<path d="M102.259 204.09C102.259 204.09 96.4393 213.89 96.8293 217.46C97.2293 221.03 98.5493 221.83 98.5493 221.83" stroke="#263238" stroke-miterlimit="10"/>
<path d="M125.029 223.69C125.029 223.69 121.189 221.04 118.409 221.31C115.629 221.57 108.349 225.15 108.349 225.15C108.349 225.15 100.669 219.72 99.6092 219.33C98.5492 218.93 96.6992 218.27 96.6992 219.46C96.6992 220.65 99.6092 221.84 101.329 224.09C103.049 226.34 106.889 229.25 108.209 229.52C109.529 229.78 112.449 230.98 112.449 230.98" fill="white"/>
<path d="M125.029 223.69C125.029 223.69 121.189 221.04 118.409 221.31C115.629 221.57 108.349 225.15 108.349 225.15C108.349 225.15 100.669 219.72 99.6092 219.33C98.5492 218.93 96.6992 218.27 96.6992 219.46C96.6992 220.65 99.6092 221.84 101.329 224.09C103.049 226.34 106.889 229.25 108.209 229.52C109.529 229.78 112.449 230.98 112.449 230.98" stroke="#263238" stroke-miterlimit="10"/>
<path d="M133.679 220.729L128.359 219.289L128.929 234.969L132.959 236.119L133.679 220.729Z" fill="white" stroke="#263238" stroke-miterlimit="10"/>
<path d="M229.239 184.18L213.809 190.35V282.15C213.809 282.15 228.209 279.84 240.039 279.84C251.869 279.84 263.699 282.15 263.699 282.15L266.269 186.24L256.499 183.67L229.239 184.18Z" fill="#F79236" stroke="#263238" stroke-miterlimit="10"/>
<path d="M256.499 183.659C256.499 183.659 243.639 199.859 242.099 200.119C240.559 200.379 227.699 185.719 227.699 185.719L227.669 183.479L227.439 167.459L230.229 168.189L254.959 174.659L256.499 183.659Z" fill="#C4C4C4" stroke="#263238" stroke-miterlimit="10"/>
<path d="M240.719 181.679L227.669 183.479L227.439 167.459L230.229 168.189L240.719 181.679Z" fill="#263238" stroke="#263238" stroke-miterlimit="10"/>
<path d="M231.22 124.929C231.22 124.929 220.09 129.849 219.83 136.319C219.57 142.789 221.38 155.469 221.38 155.469C221.38 155.469 218.27 152.619 218.27 156.509C218.27 160.399 218.53 163.499 219.82 164.789C221.11 166.079 224.74 166.599 224.74 166.599C224.74 166.599 227.59 172.289 228.36 174.879C229.14 177.469 235.61 182.639 240.52 184.459C245.44 186.269 250.61 182.129 252.17 181.099C253.72 180.059 257.83 175.919 258.35 173.589C258.87 171.259 261.23 165.579 261.23 165.579C261.23 165.579 265.11 164.029 266.15 159.109C267.19 154.189 262.53 153.679 262.53 153.679C262.53 153.679 262.27 136.599 259.94 132.199C257.61 127.799 250.88 125.469 244.93 123.659C238.98 121.849 231.21 124.949 231.21 124.949L231.22 124.929Z" fill="white" stroke="#263238" stroke-miterlimit="10"/>
<path d="M235.879 168.411C235.879 168.411 242.089 174.101 250.109 167.891" stroke="#263238" stroke-linecap="round" stroke-linejoin="round"/>
<path d="M238.209 160.639C238.209 160.639 240.019 162.969 242.869 162.709C245.719 162.449 246.749 159.859 246.749 159.859" stroke="#263238" stroke-linecap="round" stroke-linejoin="round"/>
<path d="M228.119 152.1C228.119 152.1 231.999 149.25 234.849 151.32" stroke="#263238" stroke-linecap="round" stroke-linejoin="round"/>
<path d="M248.82 150.55C248.82 150.55 252.7 149 256.33 151.33" stroke="#263238" stroke-linecap="round" stroke-linejoin="round"/>
<path d="M244.94 123.63C238.99 121.82 231.22 124.92 231.22 124.92C231.22 124.92 220.09 129.84 219.83 136.31C219.57 142.78 221.38 155.46 221.38 155.46C221.38 155.46 223.97 154.42 223.71 151.32C223.45 148.21 221.9 141.49 223.71 136.31C225.52 131.13 228.89 127.77 231.99 127.77C235.09 127.77 239.75 128.55 243.38 128.81C247.01 129.07 248.04 127.52 251.92 127.77C255.8 128.03 257.61 134.5 257.35 137.35C257.09 140.2 257.35 141.49 258.39 144.08C259.43 146.67 260.98 152.36 260.98 153.4C260.98 154.44 262.53 153.66 262.53 153.66C262.53 153.66 262.27 136.58 259.94 132.18C257.61 127.78 250.88 125.45 244.93 123.64L244.94 123.63Z" fill="#263238" stroke="#263238" stroke-miterlimit="10"/>
<path d="M239.509 144.08C239.509 144.08 223.209 145.12 221.389 146.93C219.569 148.74 223.719 156.51 226.309 157.28C228.899 158.06 236.139 158.06 237.959 156.5C239.769 154.95 240.689 146.6 240.689 146.6H242.319L242.359 144.08H239.509Z" stroke="#263238" stroke-width="2" stroke-linecap="round" stroke-linejoin="round"/>
<path d="M243.729 144.08C243.729 144.08 260.029 145.12 261.849 146.93C263.669 148.74 259.519 156.51 256.929 157.28C254.339 158.06 247.099 158.06 245.279 156.5C243.469 154.95 242.549 146.6 242.549 146.6H240.919L240.879 144.08H243.729Z" stroke="#263238" stroke-width="2" stroke-linecap="round" stroke-linejoin="round"/>
<path d="M226.16 143.679C226.16 143.679 230.6 140.019 237.54 142.139" stroke="#263238" stroke-width="2" stroke-linecap="round" stroke-linejoin="round"/>
<path d="M254.89 143.679C254.89 143.679 250.45 140.019 243.51 142.139" stroke="#263238" stroke-width="2" stroke-linecap="round" stroke-linejoin="round"/>
<path d="M227.699 184.18C227.699 184.18 228.989 212.21 226.159 242.55C223.329 272.89 217.929 285.49 217.929 285.49C217.929 285.49 207.129 288.32 206.359 288.32C205.589 288.32 194.529 287.81 194.529 287.81L194.269 234.84C194.269 234.84 170.869 242.81 164.179 243.58C157.489 244.35 130.619 238.05 130.619 238.05L132.809 217.35C132.809 217.35 162.379 222.24 163.919 222.24C165.459 222.24 187.579 211.44 187.579 211.44C187.579 211.44 191.949 193.18 196.319 190.61C200.689 188.04 227.689 184.18 227.689 184.18H227.699Z" fill="#263238" stroke="#263238" stroke-miterlimit="10"/>
<path d="M345.07 220.508C345.07 220.508 348.51 217.728 349.97 215.078C351.43 212.428 352.75 212.428 354.6 211.638C356.45 210.848 363.34 207.538 365.32 205.148C367.31 202.768 370.22 203.298 370.22 204.748C370.22 206.198 366.25 211.238 364.53 212.298C362.81 213.358 360.69 215.078 362.68 216.008C364.67 216.938 367.58 217.998 369.17 218.388C370.76 218.788 375.79 217.598 377.25 217.598C378.71 217.598 377.65 219.848 373.81 224.748C369.97 229.648 363.88 232.298 359.64 231.498C355.4 230.708 350.64 230.438 350.64 230.438L343.76 233.878L345.08 220.508H345.07Z" fill="white" stroke="#263238" stroke-miterlimit="10"/>
<path d="M368.63 224.349C368.63 224.349 368.5 218.789 368.5 216.799C368.5 214.809 367.179 208.859 367.709 207.929C368.239 206.999 370.489 207.929 370.489 207.929C370.489 207.929 369.3 203.559 369.7 203.299C370.1 203.039 371.819 203.699 372.609 204.089C373.399 204.479 374.989 204.089 375.519 204.749C376.049 205.409 380.679 213.359 380.679 215.469C380.679 217.579 377.899 221.959 375.119 223.939C372.339 225.929 369.03 228.439 368.63 224.339V224.349Z" fill="white" stroke="#263238" stroke-miterlimit="10"/>
<path d="M370.48 207.93C370.48 207.93 373.39 215.48 373.52 220.77L370.48 207.93Z" fill="white"/>
<path d="M370.48 207.93C370.48 207.93 373.39 215.48 373.52 220.77" stroke="#263238" stroke-miterlimit="10"/>
<path d="M372.6 204.09C372.6 204.09 378.42 213.89 378.03 217.46C377.63 221.03 376.31 221.83 376.31 221.83" fill="white"/>
<path d="M372.6 204.09C372.6 204.09 378.42 213.89 378.03 217.46C377.63 221.03 376.31 221.83 376.31 221.83" stroke="#263238" stroke-miterlimit="10"/>
<path d="M349.83 223.69C349.83 223.69 353.67 221.04 356.45 221.31C359.23 221.57 366.51 225.15 366.51 225.15C366.51 225.15 374.19 219.72 375.25 219.33C376.31 218.93 378.16 218.27 378.16 219.46C378.16 220.65 375.25 221.84 373.53 224.09C371.81 226.34 367.97 229.25 366.65 229.52C365.33 229.78 362.41 230.98 362.41 230.98" fill="white"/>
<path d="M349.83 223.69C349.83 223.69 353.67 221.04 356.45 221.31C359.23 221.57 366.51 225.15 366.51 225.15C366.51 225.15 374.19 219.72 375.25 219.33C376.31 218.93 378.16 218.27 378.16 219.46C378.16 220.65 375.25 221.84 373.53 224.09C371.81 226.34 367.97 229.25 366.65 229.52C365.33 229.78 362.41 230.98 362.41 230.98" stroke="#263238" stroke-miterlimit="10"/>
<path d="M341.189 220.729L346.509 219.289L345.929 234.969L341.909 236.119L341.189 220.729Z" fill="white" stroke="#263238" stroke-miterlimit="10"/>
<path d="M256.539 184.18C256.539 184.18 255.249 212.21 258.079 242.55C260.909 272.89 266.309 285.49 266.309 285.49C266.309 285.49 277.109 288.32 277.879 288.32C278.649 288.32 289.709 287.81 289.709 287.81L289.969 234.84C289.969 234.84 313.369 242.81 320.059 243.58C326.749 244.35 343.049 236.79 343.049 236.79L343.169 219.66C343.169 219.66 321.859 222.23 320.319 222.23C318.779 222.23 296.659 211.43 296.659 211.43C296.659 211.43 292.289 193.17 287.919 190.6C283.549 188.03 256.549 184.17 256.549 184.17L256.539 184.18Z" fill="#263238" stroke="#263238" stroke-miterlimit="10"/>
<path d="M228.859 210.409L241.589 202.689L255.089 213.879" stroke="#263238" stroke-miterlimit="10"/>
<path d="M181.869 274.859C181.869 274.859 193.559 299.669 212.959 307.089C232.359 314.509 243.479 316.219 260.309 312.509C277.139 308.799 298.819 293.399 302.809 267.439C302.809 267.439 284.269 282.839 266.299 288.259C248.329 293.679 219.239 287.689 206.399 281.699C193.559 275.709 179.299 266.579 181.869 274.849V274.859Z" fill="#6E6E6E" stroke="#263238" stroke-miterlimit="10"/>
<path d="M272.439 280.61C272.439 280.61 254.309 277.14 239.269 276.75C224.229 276.36 204.939 288.32 204.939 288.32C204.939 288.32 237.339 307.99 243.129 309.53C248.919 311.07 267.039 295.64 271.289 291.02C275.529 286.39 275.529 280.61 272.449 280.61H272.439Z" fill="#6E6E6E" stroke="#263238" stroke-miterlimit="10"/>
<path d="M253.159 300.009C253.159 300.009 239.269 295.769 223.849 276.479C208.419 257.189 189.519 232.119 182.959 225.179C176.399 218.239 162.129 225.569 162.899 241.769C163.669 257.969 182.959 281.499 203.009 294.229C223.069 306.959 247.749 314.289 253.919 315.829C260.089 317.369 275.909 325.089 283.619 323.929C291.329 322.769 296.349 306.569 290.559 303.489C284.769 300.399 265.099 303.879 258.549 301.949C251.989 300.019 253.149 300.019 253.149 300.019L253.159 300.009Z" fill="#6E6E6E" stroke="#263238" stroke-miterlimit="10"/>
<path d="M290.568 303.479C284.778 300.389 265.108 303.869 258.558 301.939C258.268 301.859 258.008 301.779 257.748 301.699C256.028 303.629 254.318 306.599 254.318 310.809C254.318 312.739 254.798 314.589 255.558 316.299C262.538 318.529 276.528 324.999 283.638 323.929C291.348 322.769 296.368 306.569 290.578 303.489L290.568 303.479Z" fill="#263238" stroke="#263238" stroke-miterlimit="10"/>
<path d="M224.779 301.15C224.779 301.15 238.669 296.91 254.089 277.62C269.519 258.33 288.419 233.26 294.979 226.32C301.539 219.38 315.809 226.71 315.039 242.91C314.269 259.11 294.979 282.64 274.929 295.37C254.869 308.1 230.189 315.43 224.019 316.97C217.849 318.51 202.029 326.23 194.319 325.07C186.609 323.91 181.589 307.71 187.379 304.63C193.169 301.54 212.839 305.02 219.389 303.09C225.949 301.16 224.789 301.16 224.789 301.16L224.779 301.15Z" fill="#6E6E6E" stroke="#263238" stroke-miterlimit="10"/>
<path d="M187.37 304.62C193.16 301.53 212.83 305.01 219.38 303.08C219.67 303 219.93 302.92 220.19 302.84C221.91 304.77 223.62 307.74 223.62 311.95C223.62 313.88 223.14 315.73 222.38 317.44C215.4 319.67 201.41 326.14 194.3 325.07C186.59 323.91 181.57 307.71 187.36 304.63L187.37 304.62Z" fill="#263238" stroke="#263238" stroke-miterlimit="10"/>
<path d="M230.02 250.52L247.76 262.09" stroke="#263238" stroke-miterlimit="10"/>
<path d="M239.66 260.939L249.3 265.949" stroke="#263238" stroke-miterlimit="10"/>
<path d="M0 430.619H466.59" stroke="#263238" stroke-miterlimit="10"/>
</g>
<defs>
<clipPath id="clip0_2133_8015">
<rect width="466.59" height="446.15" fill="white"/>
</clipPath>
</defs>
</svg>
