<svg width="25" height="25" viewBox="0 0 25 25" fill="none" xmlns="http://www.w3.org/2000/svg">
<path d="M21.9583 8.93758V16.0625C21.9583 17.2292 21.3333 18.3126 20.3229 18.9063L14.1354 22.4792C13.125 23.0626 11.875 23.0626 10.8542 22.4792L4.66667 18.9063C3.65625 18.323 3.03125 17.2396 3.03125 16.0625V8.93758C3.03125 7.77091 3.65625 6.68753 4.66667 6.09378L10.8542 2.52087C11.8646 1.93754 13.1146 1.93754 14.1354 2.52087L20.3229 6.09378C21.3333 6.68753 21.9583 7.76049 21.9583 8.93758Z" stroke="white" stroke-width="1.5" stroke-linecap="round" stroke-linejoin="round"/>
<path d="M12.5001 11.4584C13.8405 11.4584 14.9272 10.3717 14.9272 9.03129C14.9272 7.69084 13.8405 6.60425 12.5001 6.60425C11.1596 6.60425 10.073 7.69084 10.073 9.03129C10.073 10.3717 11.1596 11.4584 12.5001 11.4584Z" stroke="white" stroke-width="1.5" stroke-linecap="round" stroke-linejoin="round"/>
<path d="M16.6667 17.3542C16.6667 15.4792 14.8021 13.9584 12.5 13.9584C10.198 13.9584 8.33337 15.4792 8.33337 17.3542" stroke="white" stroke-width="1.5" stroke-linecap="round" stroke-linejoin="round"/>
</svg>
