<svg  viewBox="0 0 30 30" fill="none" xmlns="http://www.w3.org/2000/svg">
<path fill-rule="evenodd" clip-rule="evenodd" d="M16.1021 2C16.6544 2 17.1021 1.55228 17.1021 1C17.1021 0.447715 16.6544 0 16.1021 0H5C2.23858 0 0 2.23858 0 5V25C0 27.7614 2.23858 30 5 30H16.1021C16.6544 30 17.1021 29.5523 17.1021 29C17.1021 28.4477 16.6544 28 16.1021 28H5C3.34315 28 2 26.6569 2 25V5C2 3.34315 3.34315 2 5 2H16.1021ZM29.567 14.2929L23.203 7.92893C22.8125 7.53841 22.1793 7.53841 21.7888 7.92893C21.3983 8.31946 21.3983 8.95262 21.7888 9.34315L26.4456 14H10.6888C10.1366 14 9.68884 14.4477 9.68884 15C9.68884 15.5523 10.1366 16 10.6888 16H26.4456L21.7888 20.6569C21.3983 21.0474 21.3983 21.6805 21.7888 22.0711C22.1793 22.4616 22.8125 22.4616 23.203 22.0711L29.567 15.7071C29.9575 15.3166 29.9575 14.6834 29.567 14.2929Z" fill="#fff"/>
</svg>
