<svg width="117" height="117" viewBox="0 0 117 117" fill="none" xmlns="http://www.w3.org/2000/svg">
<rect width="116.667" height="116.667" rx="23.3333" fill="#F79236"/>
<path fill-rule="evenodd" clip-rule="evenodd" d="M93.1154 35.4393C93.7012 34.8536 94.6509 34.8536 95.2367 35.4393C95.8225 36.0251 95.8225 36.9749 95.2367 37.5607L89.9595 42.8379L95.237 48.1154C95.8228 48.7012 95.8228 49.6509 95.237 50.2367C94.6512 50.8225 93.7015 50.8225 93.1157 50.2367L87.8382 44.9592L82.5607 50.2367C81.9749 50.8225 81.0251 50.8225 80.4393 50.2367C79.8536 49.6509 79.8536 48.7012 80.4393 48.1154L85.7168 42.8379L80.4396 37.5607C79.8538 36.9749 79.8538 36.0251 80.4396 35.4393C81.0254 34.8536 81.9751 34.8536 82.5609 35.4393L87.8382 40.7166L93.1154 35.4393Z" fill="#CD5322"/>
<path d="M31.7642 83.4755L33.6245 84.2098L31.7642 83.4755C31.7469 83.5192 31.7275 83.5612 31.7064 83.6014C33.104 79.9704 36.3345 75.5591 40.884 71.9202C45.8577 67.9419 52.1873 65.0646 59 65.0646C65.7447 65.0646 72.0159 67.8845 76.9676 71.8021C81.6977 75.5444 85.0332 80.1364 86.3906 83.8603C86.3741 83.8301 86.359 83.7976 86.3462 83.763C86.0152 82.8744 85.5587 81.8994 84.9578 80.855C83.5487 78.4061 81.4825 75.8186 78.9009 73.4579C73.7186 68.7189 66.6653 65.0727 59 65.0727C51.3347 65.0727 44.2814 68.7189 39.0991 73.4579C36.5175 75.8186 34.4513 78.4061 33.0422 80.855C32.5052 81.7883 32.0837 82.6658 31.7642 83.4755ZM72.0303 46.0303C72.0303 53.2267 66.1964 59.0606 59 59.0606C51.8036 59.0606 45.9697 53.2267 45.9697 46.0303C45.9697 38.8339 51.8036 33 59 33C66.1964 33 72.0303 38.8339 72.0303 46.0303Z" stroke="white" stroke-width="4"/>
</svg>
