<svg  viewBox="0 0 23 24" fill="none" xmlns="http://www.w3.org/2000/svg">
<path d="M2.27229 1.47328C1.73976 0.940748 0.91233 0.904771 0.424175 1.39293C-0.0639808 1.88108 -0.0280085 2.70852 0.504525 3.24105L9.18265 11.9192L0.343825 20.758C-0.144331 21.2462 -0.108357 22.0736 0.424176 22.6061C0.95671 23.1387 1.78414 23.1746 2.2723 22.6865L11.1111 13.8477L19.7893 22.5258C20.3218 23.0583 21.1492 23.0943 21.6374 22.6061C22.1255 22.118 22.0896 21.2905 21.557 20.758L12.8789 12.0799L21.7177 3.24105C22.2059 2.75289 22.1699 1.92546 21.6374 1.39293C21.1048 0.860391 20.2774 0.824421 19.7893 1.31258L10.9504 10.1514L2.27229 1.47328Z" fill="white"/>
</svg>
