<svg width="25" height="25" viewBox="0 0 25 25" fill="none" xmlns="http://www.w3.org/2000/svg">
<path d="M17.7084 10.4166H19.7917C21.875 10.4166 22.9167 9.37492 22.9167 7.29159V5.20825C22.9167 3.12492 21.875 2.08325 19.7917 2.08325H17.7084C15.625 2.08325 14.5834 3.12492 14.5834 5.20825V7.29159C14.5834 9.37492 15.625 10.4166 17.7084 10.4166Z" stroke="white" stroke-width="1.5" stroke-miterlimit="10" stroke-linecap="round" stroke-linejoin="round"/>
<path d="M5.20837 22.9166H7.29171C9.37504 22.9166 10.4167 21.8749 10.4167 19.7916V17.7083C10.4167 15.6249 9.37504 14.5833 7.29171 14.5833H5.20837C3.12504 14.5833 2.08337 15.6249 2.08337 17.7083V19.7916C2.08337 21.8749 3.12504 22.9166 5.20837 22.9166Z" stroke="white" stroke-width="1.5" stroke-miterlimit="10" stroke-linecap="round" stroke-linejoin="round"/>
<path d="M6.25004 10.4166C8.55123 10.4166 10.4167 8.55111 10.4167 6.24992C10.4167 3.94873 8.55123 2.08325 6.25004 2.08325C3.94885 2.08325 2.08337 3.94873 2.08337 6.24992C2.08337 8.55111 3.94885 10.4166 6.25004 10.4166Z" stroke="white" stroke-width="1.5" stroke-miterlimit="10" stroke-linecap="round" stroke-linejoin="round"/>
<path d="M18.75 22.9166C21.0512 22.9166 22.9167 21.0511 22.9167 18.7499C22.9167 16.4487 21.0512 14.5833 18.75 14.5833C16.4489 14.5833 14.5834 16.4487 14.5834 18.7499C14.5834 21.0511 16.4489 22.9166 18.75 22.9166Z" stroke="white" stroke-width="1.5" stroke-miterlimit="10" stroke-linecap="round" stroke-linejoin="round"/>
</svg>
