<svg width="11" height="11" viewBox="0 0 11 11" fill="none" xmlns="http://www.w3.org/2000/svg">
<path fill-rule="evenodd" clip-rule="evenodd" d="M4.87923 9.75846C7.57395 9.75846 9.75846 7.57395 9.75846 4.87923C9.75846 2.1845 7.57395 0 4.87923 0C2.1845 0 0 2.1845 0 4.87923C0 7.57395 2.1845 9.75846 4.87923 9.75846ZM4.87923 9.02657C2.58871 9.02657 0.731884 7.16974 0.731884 4.87923C0.731884 2.58871 2.58871 0.731884 4.87923 0.731884C7.16974 0.731884 9.02657 2.58871 9.02657 4.87923C9.02657 7.16974 7.16974 9.02657 4.87923 9.02657ZM4.42577 2.66124C4.42577 2.4216 4.60868 2.18945 4.87907 2.18945C5.14945 2.18945 5.33237 2.4216 5.33237 2.66124V4.40728H7.11538C7.38576 4.40728 7.56868 4.63943 7.56868 4.87907C7.56868 5.1187 7.38576 5.35085 7.11538 5.35085H5.33237V7.0969C5.33237 7.33654 5.14945 7.56868 4.87907 7.56868C4.60868 7.56868 4.42577 7.33654 4.42577 7.0969V5.35085H2.64275C2.37237 5.35085 2.18945 5.1187 2.18945 4.87907C2.18945 4.63943 2.37237 4.40728 2.64275 4.40728H4.42577V2.66124ZM8.9164 8.44783C9.10143 8.25192 9.41024 8.24309 9.60615 8.42812L10.8477 9.60069C11.0436 9.78571 11.0524 10.0945 10.8674 10.2904C10.6824 10.4863 10.3736 10.4952 10.1776 10.3101L8.93611 9.13757C8.7402 8.95255 8.73137 8.64374 8.9164 8.44783Z" fill="#738086"/>
</svg>
