<svg width="12" height="11" viewBox="0 0 12 11" fill="none" xmlns="http://www.w3.org/2000/svg">
<path fill-rule="evenodd" clip-rule="evenodd" d="M4.04492 0.635186C4.0154 0.494339 4.0974 0.354038 4.23461 0.310646L5.17562 0.013085C5.31283 -0.0303006 5.4606 0.0373395 5.51742 0.169554L5.80977 0.849744C5.99983 0.82619 6.19343 0.814057 6.38986 0.814057C6.61933 0.814057 6.84493 0.830613 7.06554 0.862595L7.37186 0.185402C7.43117 0.0542822 7.58018 -0.0105596 7.71655 0.0354075L8.65178 0.350658C8.78815 0.396631 8.8675 0.538454 8.83533 0.678715L8.66832 1.40686C9.03102 1.61005 9.36382 1.86025 9.65847 2.14922L10.3118 1.77663C10.4369 1.70535 10.5955 1.74038 10.6789 1.85768L11.2507 2.6621C11.3341 2.7794 11.315 2.94079 11.2066 3.03542L10.634 3.53514C10.7959 3.8872 10.9152 4.26286 10.9854 4.65553L11.7469 4.73167C11.8901 4.746 11.9991 4.86649 11.9991 5.0104V5.99733C11.9991 6.14124 11.8901 6.26173 11.7469 6.27605L10.9774 6.353C10.901 6.75809 10.7723 7.1447 10.5985 7.50553L11.1797 8.02414C11.2871 8.11996 11.3044 8.28154 11.2197 8.39792L10.6392 9.19603C10.5545 9.31241 10.3955 9.3457 10.2712 9.27305L9.59468 8.87734C9.30217 9.15357 8.97398 9.39242 8.61775 9.58623L8.78712 10.3511C8.81823 10.4916 8.73781 10.6328 8.6011 10.6777L7.66352 10.9859C7.52681 11.0309 7.37829 10.9649 7.31997 10.8334L7.00003 10.1116C6.80033 10.1377 6.59666 10.1511 6.38986 10.1511C6.18143 10.1511 5.97619 10.1374 5.77499 10.111L5.45718 10.8279C5.39887 10.9595 5.25035 11.0254 5.11364 10.9805L4.17606 10.6723C4.03935 10.6274 3.95893 10.4861 3.99004 10.3456L4.15861 9.5844C3.80058 9.38923 3.47092 9.14855 3.17743 8.87014L2.50832 9.25821C2.38383 9.33041 2.22489 9.29653 2.14067 9.17985L1.56302 8.37962C1.47879 8.26294 1.49669 8.10141 1.60441 8.00599L2.17767 7.4982C2.00033 7.12827 1.87029 6.73135 1.79538 6.31528L1.04111 6.23397C0.898026 6.21854 0.789913 6.09721 0.791024 5.95331L0.798644 4.96641C0.799755 4.8225 0.909732 4.70285 1.05303 4.68964L1.80073 4.62069C1.87742 4.20975 2.00796 3.81776 2.18473 3.4523L1.63103 2.95091C1.52436 2.85431 1.50823 2.6926 1.59373 2.57685L2.18011 1.783C2.26562 1.66724 2.42492 1.63511 2.54861 1.70867L3.18546 2.08742C3.48738 1.80236 3.82732 1.55713 4.19686 1.36014L4.04492 0.635186ZM6.38986 7.81684C5.10068 7.81684 4.0556 6.77176 4.0556 5.48258C4.0556 4.1934 5.10068 3.14832 6.38986 3.14832C7.67904 3.14832 8.72412 4.1934 8.72412 5.48258C8.72412 6.77176 7.67904 7.81684 6.38986 7.81684Z" fill="#979DA0"/>
</svg>
