<svg width="120" height="120" viewBox="0 0 120 120" fill="none" xmlns="http://www.w3.org/2000/svg">
<rect x="1" y="1" width="118" height="118" rx="22.3333" stroke="#F79236" stroke-width="2"/>
<rect x="33.5" y="36.5" width="57" height="57" rx="8.5" stroke="#F79236" stroke-width="3"/>
<mask id="path-3-inside-1_571_3283" fill="white">
<path d="M32 45C32 39.4772 36.4772 35 42 35H82C87.5228 35 92 39.4772 92 45V55H32V45Z"/>
</mask>
<path d="M32 45C32 39.4772 36.4772 35 42 35H82C87.5228 35 92 39.4772 92 45V55H32V45Z" fill="#F79236"/>
<path d="M32 35H92H32ZM92 56H32V54H92V56ZM32 55V35V55ZM92 35V55V35Z" fill="#F79236" mask="url(#path-3-inside-1_571_3283)"/>
<path d="M49.5 26C49.5 25.1716 48.8284 24.5 48 24.5C47.1716 24.5 46.5 25.1716 46.5 26H49.5ZM46.5 26V35H49.5V26H46.5Z" fill="#F79236"/>
<path d="M78.5 26C78.5 25.1716 77.8284 24.5 77 24.5C76.1716 24.5 75.5 25.1716 75.5 26H78.5ZM75.5 26V35H78.5V26H75.5Z" fill="#F79236"/>
<path d="M50.7508 75.05C50.1441 75.05 49.7074 74.92 49.4408 74.66C49.1808 74.4 49.0508 73.98 49.0508 73.4V70.94C49.0508 70.7743 48.9165 70.64 48.7508 70.64H48.6008C48.4351 70.64 48.3008 70.5057 48.3008 70.34V70C48.3008 69.8343 48.4351 69.7 48.6008 69.7H48.7508C48.9165 69.7 49.0508 69.5657 49.0508 69.4V68.8C49.0508 68.6343 49.1851 68.5 49.3508 68.5H49.8508C50.0165 68.5 50.1508 68.6343 50.1508 68.8V69.4C50.1508 69.5657 50.2851 69.7 50.4508 69.7H51.2008C51.3665 69.7 51.5008 69.8343 51.5008 70V70.34C51.5008 70.5057 51.3665 70.64 51.2008 70.64H50.4508C50.2851 70.64 50.1508 70.7743 50.1508 70.94V73.25C50.1508 73.5633 50.2074 73.7833 50.3208 73.91C50.4408 74.03 50.6674 74.09 51.0008 74.09C51.0906 74.09 51.1804 74.088 51.2702 74.084C51.4475 74.076 51.6008 74.214 51.6008 74.3915V74.7299C51.6008 74.8834 51.4849 75.0128 51.3317 75.023C51.2917 75.0256 51.2514 75.028 51.2108 75.03C51.0774 75.0433 50.9241 75.05 50.7508 75.05Z" fill="#F79236"/>
<path d="M54.9559 75.11C54.5892 75.11 54.2459 75.0533 53.9259 74.94C53.6125 74.82 53.3392 74.6467 53.1059 74.42C52.8725 74.1933 52.6892 73.9133 52.5559 73.58C52.4225 73.24 52.3559 72.8467 52.3559 72.4V72.2C52.3559 71.78 52.4225 71.41 52.5559 71.09C52.6892 70.7633 52.8725 70.49 53.1059 70.27C53.3392 70.0433 53.6125 69.8733 53.9259 69.76C54.2459 69.6467 54.5892 69.59 54.9559 69.59C55.3225 69.59 55.6625 69.6467 55.9759 69.76C56.2959 69.8733 56.5725 70.0433 56.8059 70.27C57.0392 70.49 57.2225 70.7633 57.3559 71.09C57.4892 71.41 57.5559 71.78 57.5559 72.2V72.4C57.5559 72.8467 57.4892 73.24 57.3559 73.58C57.2225 73.9133 57.0392 74.1933 56.8059 74.42C56.5725 74.6467 56.2959 74.82 55.9759 74.94C55.6625 75.0533 55.3225 75.11 54.9559 75.11ZM54.9559 74.15C55.1492 74.15 55.3325 74.1167 55.5059 74.05C55.6859 73.9833 55.8425 73.88 55.9759 73.74C56.1159 73.6 56.2259 73.42 56.3059 73.2C56.3925 72.98 56.4359 72.7133 56.4359 72.4V72.2C56.4359 71.9133 56.3925 71.6667 56.3059 71.46C56.2259 71.2533 56.1159 71.0833 55.9759 70.95C55.8425 70.8167 55.6859 70.7167 55.5059 70.65C55.3325 70.5833 55.1492 70.55 54.9559 70.55C54.7625 70.55 54.5759 70.5833 54.3959 70.65C54.2225 70.7167 54.0659 70.8167 53.9259 70.95C53.7925 71.0833 53.6825 71.2533 53.5959 71.46C53.5159 71.6667 53.4759 71.9133 53.4759 72.2V72.4C53.4759 72.7133 53.5159 72.98 53.5959 73.2C53.6825 73.42 53.7925 73.6 53.9259 73.74C54.0659 73.88 54.2225 73.9833 54.3959 74.05C54.5759 74.1167 54.7625 74.15 54.9559 74.15Z" fill="#F79236"/>
<path d="M60.592 75.11C60.252 75.11 59.9453 75.0533 59.672 74.94C59.3986 74.8267 59.162 74.66 58.962 74.44C58.7686 74.2133 58.6186 73.93 58.512 73.59C58.4053 73.25 58.352 72.8533 58.352 72.4V72.2C58.352 71.7733 58.4053 71.4 58.512 71.08C58.6186 70.7533 58.7686 70.48 58.962 70.26C59.162 70.04 59.3986 69.8733 59.672 69.76C59.9453 69.6467 60.2486 69.59 60.582 69.59C60.982 69.59 61.3253 69.68 61.612 69.86C61.8468 70.0041 62.302 69.8399 62.302 69.5644V68.3C62.302 68.1343 62.4363 68 62.602 68H63.102C63.2676 68 63.402 68.1343 63.402 68.3V74.7C63.402 74.8657 63.2676 75 63.102 75H62.5392C62.4524 75 62.382 74.9296 62.382 74.8427V74.5726C62.382 74.4656 62.1954 74.4122 62.122 74.49C62.0086 74.61 61.872 74.7167 61.712 74.81C61.5586 74.9033 61.3853 74.9767 61.192 75.03C61.0053 75.0833 60.8053 75.11 60.592 75.11ZM60.842 74.15C61.0353 74.15 61.2186 74.12 61.392 74.06C61.572 74 61.7286 73.9067 61.862 73.78C61.9953 73.6533 62.102 73.4967 62.182 73.31C62.262 73.1233 62.302 72.9033 62.302 72.65V71.94C62.302 71.7133 62.262 71.5133 62.182 71.34C62.102 71.1667 61.992 71.0233 61.852 70.91C61.7186 70.79 61.562 70.7 61.382 70.64C61.2086 70.58 61.0286 70.55 60.842 70.55C60.422 70.55 60.0886 70.6867 59.842 70.96C59.5953 71.2267 59.472 71.64 59.472 72.2V72.4C59.472 72.9867 59.5986 73.4267 59.852 73.72C60.1053 74.0067 60.4353 74.15 60.842 74.15Z" fill="#F79236"/>
<path d="M66.3543 75.11C66.0676 75.11 65.811 75.07 65.5843 74.99C65.3643 74.9033 65.1776 74.7867 65.0243 74.64C64.871 74.4867 64.7543 74.31 64.6743 74.11C64.5943 73.91 64.5543 73.69 64.5543 73.45C64.5543 72.9233 64.711 72.5333 65.0243 72.28C65.3376 72.02 65.7976 71.89 66.4043 71.89H67.7643C67.9245 71.89 68.0543 71.7602 68.0543 71.6C68.0543 71.2 67.9643 70.9267 67.7843 70.78C67.611 70.6267 67.3343 70.55 66.9543 70.55C66.6143 70.55 66.3643 70.6033 66.2043 70.71C66.122 70.7649 66.0573 70.8303 66.0103 70.9064C65.9318 71.0334 65.8134 71.15 65.6641 71.15H65.1725C64.9999 71.15 64.8594 71.0031 64.9038 70.8362C64.9323 70.7288 64.9725 70.6267 65.0243 70.53C65.131 70.3367 65.2743 70.17 65.4543 70.03C65.641 69.89 65.8643 69.7833 66.1243 69.71C66.3843 69.63 66.6776 69.59 67.0043 69.59C67.331 69.59 67.6243 69.6267 67.8843 69.7C68.151 69.7733 68.3776 69.89 68.5643 70.05C68.751 70.2033 68.8943 70.4033 68.9943 70.65C69.101 70.8967 69.1543 71.1933 69.1543 71.54V73.65C69.1543 73.93 69.1576 74.1767 69.1643 74.39C69.1672 74.4804 69.172 74.5701 69.1788 74.6592C69.1925 74.8402 69.0531 75 68.8716 75H68.4777C68.327 75 68.1996 74.8882 68.1806 74.7388C68.1747 74.6926 68.1693 74.6497 68.1643 74.61C68.158 74.5087 67.9896 74.459 67.9183 74.5312C67.8039 74.6471 67.6625 74.7534 67.4943 74.85C67.1876 75.0233 66.8076 75.11 66.3543 75.11ZM66.6543 74.15C66.841 74.15 67.0176 74.1267 67.1843 74.08C67.3576 74.0267 67.5076 73.9533 67.6343 73.86C67.761 73.76 67.861 73.64 67.9343 73.5C68.0143 73.3533 68.0543 73.1867 68.0543 73C68.0543 72.8398 67.9245 72.71 67.7643 72.71H66.6043C66.3243 72.71 66.0976 72.77 65.9243 72.89C65.7576 73.01 65.6743 73.1867 65.6743 73.42C65.6743 73.64 65.751 73.8167 65.9043 73.95C66.0643 74.0833 66.3143 74.15 66.6543 74.15Z" fill="#F79236"/>
<path d="M71.2109 77.11C71.1923 77.11 71.1736 77.1097 71.1549 77.109C71.012 77.1036 70.9109 76.9771 70.9109 76.8341V76.422C70.9109 76.2658 71.0547 76.15 71.2109 76.15C71.3243 76.15 71.4176 76.13 71.4909 76.09C71.5709 76.0567 71.6409 75.9933 71.7009 75.9C71.7676 75.8133 71.8309 75.6967 71.8909 75.55C71.9461 75.4287 72.0058 75.2823 72.07 75.1108C72.0967 75.0398 72.0944 74.9611 72.0648 74.8913L70.0381 70.1172C69.9541 69.9194 70.0993 69.7 70.3142 69.7H70.8569C70.98 69.7 71.0907 69.7752 71.1359 69.8898L72.3873 73.0569C72.4892 73.3146 72.856 73.3083 72.949 73.0473L74.0699 69.8994C74.1125 69.7798 74.2257 69.7 74.3526 69.7H74.8232C75.034 69.7 75.1791 69.9116 75.103 70.1082L73.2109 75C73.0643 75.3733 72.9276 75.6933 72.8009 75.96C72.6743 76.2267 72.5343 76.4433 72.3809 76.61C72.2343 76.7833 72.0676 76.91 71.8809 76.99C71.6943 77.07 71.4709 77.11 71.2109 77.11Z" fill="#F79236"/>
</svg>
