<svg  viewBox="0 0 16 14" fill="none" xmlns="http://www.w3.org/2000/svg">
<path d="M8.20673 12.3699C8.72959 12.3338 9.2481 12.2504 9.7559 12.1207C10.3821 12.3094 11.0432 12.3524 11.6886 12.2464L11.7644 12.2399C11.9951 12.2399 12.2974 12.372 12.7394 12.6505V12.1922C12.7392 12.1126 12.7604 12.0344 12.8008 11.9658C12.8412 11.8972 12.8993 11.8407 12.9691 11.8022C13.1612 11.6953 13.3388 11.5736 13.5021 11.4371C14.1434 10.9009 14.5063 10.1848 14.5063 9.42647C14.5063 9.1773 14.4662 8.92813 14.3882 8.6898C14.582 8.33322 14.7381 7.95745 14.8541 7.56855C15.2256 8.11672 15.425 8.76455 15.4282 9.42755C15.4282 10.4567 14.9418 11.4176 14.1011 12.1196C13.961 12.2366 13.8137 12.345 13.6591 12.4446V13.515C13.6591 13.8833 13.2291 14.0945 12.9246 13.8757C12.6372 13.6634 12.3404 13.4655 12.0341 13.282C11.9461 13.2301 11.8545 13.1845 11.7601 13.1455C11.5043 13.1827 11.2461 13.2016 10.9876 13.2019C9.99827 13.2093 9.02947 12.9194 8.20673 12.3699ZM2.66006 10.2281C1.33515 9.11988 0.570312 7.60863 0.570312 5.98905C0.570312 2.68055 3.73365 0.0361328 7.59573 0.0361328C11.4578 0.0361328 14.6211 2.67947 14.6211 5.98905C14.6211 9.29755 11.4578 11.942 7.59573 11.942C7.1659 11.9427 6.73667 11.9097 6.31198 11.8434C6.12998 11.8846 5.40198 12.3114 4.3544 13.0675C3.97523 13.3416 3.43681 13.0762 3.43681 12.6158V10.7882C3.16485 10.6208 2.90451 10.4336 2.66006 10.2281ZM6.33798 10.7156C6.37048 10.7156 6.40298 10.7185 6.43548 10.7243C6.81465 10.7871 7.20176 10.8185 7.59681 10.8185C10.8587 10.8185 13.4706 8.63563 13.4706 5.98905C13.4706 3.34247 10.8587 1.16063 7.59573 1.16063C4.3349 1.16063 1.7219 3.34355 1.7219 5.99013C1.7219 7.26955 2.33181 8.4753 3.41081 9.37663C3.68237 9.60413 3.97848 9.80744 4.29915 9.98655C4.38614 10.035 4.45874 10.1056 4.50956 10.1913C4.56037 10.2769 4.58757 10.3745 4.5884 10.4741V11.5271C5.41715 10.9778 5.96206 10.7178 6.3369 10.7178" fill="#979DA0"/>
<path d="M4.74873 6.9998C4.99496 6.9998 5.23111 6.90198 5.40522 6.72787C5.57933 6.55376 5.67715 6.31761 5.67715 6.07138C5.67715 5.82515 5.57933 5.589 5.40522 5.41489C5.23111 5.24078 4.99496 5.14297 4.74873 5.14297C4.5025 5.14297 4.26635 5.24078 4.09224 5.41489C3.91813 5.589 3.82031 5.82515 3.82031 6.07138C3.82031 6.31761 3.91813 6.55376 4.09224 6.72787C4.26635 6.90198 4.5025 6.9998 4.74873 6.9998ZM7.7669 6.9998C8.01313 6.9998 8.24927 6.90198 8.42339 6.72787C8.5975 6.55376 8.69531 6.31761 8.69531 6.07138C8.69531 5.82515 8.5975 5.589 8.42339 5.41489C8.24927 5.24078 8.01313 5.14297 7.7669 5.14297C7.52066 5.14297 7.28452 5.24078 7.11041 5.41489C6.93629 5.589 6.83848 5.82515 6.83848 6.07138C6.83848 6.31761 6.93629 6.55376 7.11041 6.72787C7.28452 6.90198 7.52066 6.9998 7.7669 6.9998ZM10.7851 7.00088C11.0313 7.00088 11.2674 6.90307 11.4416 6.72896C11.6157 6.55484 11.7135 6.3187 11.7135 6.07247C11.7135 5.82623 11.6157 5.59009 11.4416 5.41598C11.2674 5.24186 11.0313 5.14405 10.7851 5.14405C10.5388 5.14405 10.3027 5.24186 10.1286 5.41598C9.95446 5.59009 9.85665 5.82623 9.85665 6.07247C9.85665 6.3187 9.95446 6.55484 10.1286 6.72896C10.3027 6.90307 10.5388 7.00088 10.7851 7.00088Z" fill="#979DA0"/>
</svg>
