<svg width="33" height="30" viewBox="0 0 33 30" fill="none" xmlns="http://www.w3.org/2000/svg">
<path d="M31.391 29C31.3657 29 31.3263 28.9921 31.2748 28.9521C31.2201 28.9097 31.1661 28.8402 31.1335 28.7528C30.9553 28.2741 30.7089 27.7478 30.384 27.1831C29.6219 25.8586 28.5031 24.4571 27.104 23.1776C24.2944 20.6084 20.4753 18.6364 16.3307 18.6364C12.186 18.6364 8.36695 20.6084 5.55735 23.1776C4.15817 24.4571 3.03939 25.8586 2.2773 27.1831C1.98694 27.6877 1.75943 28.1615 1.5872 28.5979L2.51736 28.965L1.5872 28.5979C1.50616 28.8032 1.37441 28.9176 1.25924 28.9681C1.9415 26.908 3.77429 24.317 6.41369 22.2058C9.13256 20.0311 12.5971 18.4545 16.3307 18.4545C20.027 18.4545 23.4596 19.9997 26.1665 22.1413C28.8587 24.2713 30.7298 26.909 31.4121 28.9985C31.4059 28.9994 31.3989 29 31.391 29ZM23.5125 8.18182C23.5125 12.1482 20.2971 15.3636 16.3307 15.3636C12.3642 15.3636 9.14884 12.1482 9.14884 8.18182C9.14884 4.21541 12.3642 1 16.3307 1C20.2971 1 23.5125 4.21541 23.5125 8.18182Z" stroke="#738086" stroke-width="2"/>
</svg>
