<svg  viewBox="0 0 50 50" fill="none" xmlns="http://www.w3.org/2000/svg">
<path fill-rule="evenodd" clip-rule="evenodd" d="M25 50C38.8071 50 50 38.8071 50 25C50 11.1929 38.8071 0 25 0C11.1929 0 0 11.1929 0 25C0 38.8071 11.1929 50 25 50ZM24.7 7.90039C23.0035 7.90039 21.6493 9.31462 21.7229 11.0095L22.4964 28.8304C22.5476 30.0102 23.519 30.9404 24.7 30.9404C25.8809 30.9404 26.8523 30.0102 26.9035 28.8304L27.677 11.0095C27.7506 9.31462 26.3964 7.90039 24.7 7.90039ZM22.3 41.0204C22.972 41.6604 23.772 41.9804 24.7 41.9804C25.628 41.9804 26.412 41.6604 27.052 41.0204C27.724 40.3484 28.06 39.5484 28.06 38.6204C28.06 37.6604 27.724 36.8604 27.052 36.2204C26.412 35.5804 25.628 35.2604 24.7 35.2604C23.772 35.2604 22.972 35.5804 22.3 36.2204C21.66 36.8604 21.34 37.6604 21.34 38.6204C21.34 39.5484 21.66 40.3484 22.3 41.0204Z" fill="#F79236"/>
</svg>
