<?xml version="1.0" standalone="no"?>
<!DOCTYPE svg PUBLIC "-//W3C//DTD SVG 20010904//EN"
 "http://www.w3.org/TR/2001/REC-SVG-20010904/DTD/svg10.dtd">
<svg version="1.0" xmlns="http://www.w3.org/2000/svg"
 width="700.000000pt" height="700.000000pt" viewBox="0 0 700.000000 700.000000"
 preserveAspectRatio="xMidYMid meet">
<metadata>
Created by potrace 1.14, written by Peter Selinger 2001-2017
</metadata>
<g transform="translate(0.000000,700.000000) scale(0.100000,-0.100000)"
fill="#000000" stroke="none">
<path d="M3487 6994 c-1 -1 -60 -4 -132 -8 -71 -3 -139 -8 -150 -10 -11 -2
-51 -7 -90 -11 -58 -6 -175 -25 -306 -50 -15 -3 -80 -19 -145 -36 -896 -231
-1664 -794 -2144 -1572 -339 -550 -512 -1162 -512 -1812 0 -93 2 -197 6 -230
3 -33 8 -89 11 -125 7 -75 7 -76 35 -238 141 -832 611 -1607 1300 -2143 301
-234 616 -406 994 -544 190 -68 532 -153 688 -170 29 -3 60 -8 68 -10 8 -2 56
-7 105 -11 50 -3 99 -8 110 -11 30 -6 421 -5 490 1 135 13 231 24 275 31 14 2
57 9 95 15 226 35 596 143 790 230 250 113 385 186 580 315 294 194 592 465
802 727 100 125 296 410 308 448 4 11 36 34 80 55 111 53 165 134 165 250 0
159 -126 278 -292 277 -103 -1 -217 -84 -252 -182 -23 -65 -19 -160 11 -216
l21 -41 -20 -34 c-434 -721 -1140 -1253 -1957 -1470 -62 -17 -125 -33 -140
-35 -14 -3 -44 -9 -66 -14 -61 -14 -223 -38 -290 -45 -33 -3 -85 -7 -115 -10
-149 -14 -473 -6 -645 16 -134 17 -146 19 -275 46 -328 67 -641 184 -936 349
-601 336 -1087 864 -1367 1488 -111 244 -213 594 -242 821 -3 22 -7 56 -10 75
-26 182 -27 620 -1 780 2 14 7 46 10 71 41 299 146 630 296 934 317 641 850
1166 1502 1478 189 90 453 185 618 222 8 1 33 8 55 13 22 6 53 13 69 16 16 3
52 10 80 15 66 13 260 39 356 47 94 8 395 8 478 0 34 -3 90 -8 125 -12 54 -4
172 -22 272 -39 77 -14 283 -67 386 -101 837 -269 1519 -854 1913 -1639 l55
-110 -36 -33 c-19 -19 -46 -58 -60 -89 -46 -101 -22 -225 59 -304 178 -173
480 -49 480 196 0 76 -29 143 -85 199 -16 16 -41 56 -54 90 -40 98 -149 312
-218 426 -225 374 -530 716 -875 982 -442 340 -1019 595 -1545 683 -149 24
-146 24 -275 40 -76 10 -445 25 -453 19z m408 -57 c17 -2 57 -7 90 -11 33 -4
71 -9 85 -11 14 -2 45 -7 70 -10 137 -19 383 -80 566 -141 284 -94 598 -248
849 -417 250 -169 534 -424 715 -642 41 -49 78 -92 81 -95 17 -15 185 -258
232 -335 77 -129 168 -304 218 -420 27 -65 55 -113 80 -139 106 -108 84 -280
-45 -361 -44 -27 -58 -30 -125 -30 -84 0 -118 13 -171 67 -49 49 -69 102 -66
173 1 33 10 74 18 90 18 34 67 88 94 103 16 9 12 21 -39 127 -105 216 -234
420 -393 620 -109 136 -365 394 -499 500 -530 424 -1182 678 -1855 722 -739
49 -1435 -130 -2060 -532 -65 -42 -216 -150 -230 -165 -3 -3 -38 -31 -78 -64
-73 -57 -289 -267 -369 -357 -249 -280 -472 -658 -608 -1034 -37 -102 -99
-316 -108 -370 -3 -16 -12 -64 -20 -105 -16 -73 -19 -92 -32 -195 -4 -27 -9
-61 -12 -75 -9 -46 -11 -544 -3 -620 14 -115 20 -163 25 -190 2 -14 7 -41 9
-60 50 -331 204 -752 394 -1075 64 -111 226 -344 277 -401 6 -6 41 -48 79 -92
554 -643 1398 -1061 2261 -1119 177 -12 520 -6 625 11 14 3 46 7 72 10 74 10
270 46 303 56 17 5 41 11 55 14 166 31 466 144 707 265 535 268 1014 715 1327
1238 l36 61 -24 37 c-41 59 -46 158 -12 223 27 52 88 102 144 118 153 45 293
-47 309 -202 11 -105 -58 -207 -160 -240 -51 -16 -53 -18 -116 -125 -214 -360
-536 -714 -894 -983 -337 -253 -741 -454 -1135 -566 -101 -28 -290 -73 -357
-84 -252 -43 -354 -51 -630 -51 -205 0 -331 6 -433 20 -211 28 -191 25 -292
46 -1147 232 -2107 1023 -2549 2099 -101 244 -188 562 -216 789 -4 30 -8 62
-10 72 -30 157 -25 711 8 904 3 17 8 48 12 70 3 22 7 47 10 55 2 8 6 31 9 50
3 19 19 90 36 158 216 879 787 1647 1583 2126 130 79 301 167 407 210 36 15
79 33 95 41 93 41 439 149 550 171 99 19 239 44 280 50 88 11 99 12 175 19 41
4 77 9 79 11 5 5 539 -3 576 -9z"/>
<path d="M3467 6214 c-1 -1 -49 -4 -107 -8 -226 -13 -464 -61 -693 -137 -597
-199 -1109 -592 -1453 -1114 -184 -279 -313 -588 -383 -915 -26 -119 -32 -155
-48 -295 -10 -89 -10 -482 0 -555 4 -30 10 -75 13 -100 3 -25 14 -89 25 -142
17 -87 18 -102 5 -151 -44 -167 82 -334 258 -342 195 -9 338 170 286 357 -22
78 -115 168 -190 184 -19 4 -38 7 -42 6 -21 -5 -40 84 -55 263 -13 149 -6 438
12 530 3 11 7 37 10 58 29 208 119 486 225 697 166 332 382 590 715 858 64 51
244 163 358 222 223 116 491 208 717 245 52 9 106 18 119 20 198 33 594 19
826 -29 666 -139 1241 -529 1602 -1088 330 -509 458 -1138 352 -1718 -6 -30
-13 -68 -15 -85 -17 -103 -93 -337 -153 -473 -303 -686 -921 -1207 -1660
-1397 -85 -22 -258 -53 -334 -61 -34 -3 -78 -7 -97 -10 -52 -6 -358 -5 -410 1
-308 38 -538 94 -741 179 l-37 15 0 67 c-1 111 -58 200 -162 251 -56 28 -175
27 -236 -1 -58 -28 -107 -75 -137 -130 -31 -58 -31 -184 0 -241 51 -96 162
-164 257 -157 10 0 39 -10 65 -22 121 -62 439 -171 553 -191 17 -3 34 -8 38
-10 10 -6 189 -36 305 -50 102 -13 537 -14 620 -2 17 2 55 8 85 11 520 69
1053 312 1464 670 82 71 242 236 321 331 229 275 431 671 524 1027 64 244 86
425 86 698 -1 196 -7 280 -31 425 -8 50 -17 104 -20 120 -7 39 -39 159 -70
259 -125 401 -360 790 -664 1096 -375 378 -827 632 -1342 754 -79 19 -161 37
-183 40 -22 3 -71 10 -110 15 -105 15 -217 23 -348 25 -65 1 -119 1 -120 0z
m418 -59 c22 -3 65 -10 95 -15 30 -5 73 -12 95 -15 22 -3 94 -20 160 -36 794
-199 1444 -715 1799 -1430 105 -211 207 -504 230 -661 3 -21 10 -57 15 -80 10
-43 16 -94 30 -237 9 -90 7 -370 -4 -466 -34 -330 -121 -628 -270 -931 -301
-611 -840 -1092 -1505 -1342 -155 -59 -323 -103 -520 -136 -135 -24 -243 -31
-445 -31 -160 0 -360 11 -375 20 -3 2 -30 6 -60 10 -203 24 -528 124 -756 231
-28 13 -63 24 -78 24 -67 0 -121 23 -172 75 -64 64 -85 132 -65 211 30 117
124 185 248 180 139 -6 233 -117 220 -260 l-6 -64 102 -39 c85 -33 191 -69
267 -89 52 -14 297 -63 337 -68 206 -24 527 -25 663 -2 14 3 46 7 72 11 81 10
267 54 382 92 781 250 1388 849 1635 1614 81 251 116 477 116 754 -1 237 -17
369 -75 603 -210 842 -885 1532 -1736 1776 -104 30 -97 29 -224 55 -233 47
-557 61 -795 32 -915 -110 -1708 -705 -2048 -1536 -48 -116 -107 -302 -126
-395 -6 -30 -14 -66 -17 -80 -2 -14 -7 -43 -10 -65 -2 -22 -6 -45 -9 -52 -19
-54 -27 -455 -12 -583 18 -154 33 -249 41 -257 2 -2 20 -6 41 -9 80 -10 151
-58 188 -128 32 -62 30 -158 -6 -219 -47 -79 -122 -121 -214 -119 -163 3 -274
164 -219 318 8 23 10 48 5 60 -4 12 -10 39 -13 60 -4 21 -8 46 -11 54 -4 15
-9 47 -21 135 -3 27 -8 61 -10 75 -9 53 -11 409 -4 480 15 141 20 185 25 210
3 14 10 52 16 85 29 165 107 414 177 569 192 425 446 748 828 1054 16 12 85
60 154 106 368 246 763 391 1225 451 100 12 554 13 640 0z"/>
<path d="M3604 5526 c-23 -7 -47 -17 -55 -21 -7 -5 -35 -10 -61 -11 -122 -5
-222 -18 -383 -49 -75 -15 -272 -79 -365 -119 -658 -286 -1109 -867 -1216
-1567 -28 -182 -23 -477 11 -647 129 -639 518 -1151 1095 -1441 172 -87 431
-171 603 -196 18 -3 59 -9 92 -14 65 -10 447 -8 505 3 19 4 84 16 145 27 219
41 510 156 698 276 174 111 370 280 472 408 22 27 48 59 58 70 34 38 145 210
191 297 112 210 196 486 222 723 10 93 11 306 3 375 -4 30 -10 78 -13 105 -3
28 -8 61 -10 75 -67 332 -179 589 -371 850 -42 57 -65 97 -68 122 -12 94 -95
192 -188 223 -117 39 -258 -7 -323 -105 -144 -218 50 -485 309 -426 29 7 32 4
82 -72 115 -176 192 -356 242 -572 31 -131 36 -190 35 -390 0 -153 -4 -204
-23 -295 -73 -350 -227 -640 -466 -880 -110 -110 -142 -137 -271 -224 -196
-133 -466 -241 -684 -276 -25 -4 -54 -10 -65 -12 -38 -10 -400 -12 -445 -4
-25 5 -67 12 -94 16 -143 18 -322 77 -491 160 -504 247 -851 714 -944 1266
-28 166 -29 385 -2 534 5 33 12 72 15 86 18 107 94 317 159 439 236 446 645
763 1137 883 103 26 132 31 228 43 47 5 48 5 60 -28 19 -54 77 -114 139 -144
44 -22 70 -28 122 -28 215 1 345 208 251 399 -60 122 -204 182 -336 141z m184
-51 c114 -46 172 -192 121 -305 -38 -84 -100 -129 -190 -137 -119 -11 -210 42
-252 148 -21 52 -25 55 -52 52 -31 -3 -196 -26 -205 -28 -3 -1 -32 -7 -65 -14
-104 -23 -286 -90 -399 -148 -348 -175 -621 -447 -795 -789 -67 -133 -129
-312 -151 -437 -6 -34 -13 -73 -16 -87 -26 -149 -23 -385 6 -550 16 -89 18
-95 40 -177 149 -531 543 -962 1072 -1172 150 -59 327 -102 492 -117 644 -61
1272 225 1645 749 324 454 410 1028 235 1557 -68 204 -244 517 -289 514 -11
-1 -41 -6 -66 -11 -57 -12 -139 7 -186 43 -112 85 -124 248 -27 348 48 49 96
69 174 69 124 1 217 -80 236 -205 5 -31 25 -67 74 -133 199 -268 315 -547 374
-900 17 -103 23 -333 11 -450 -69 -680 -478 -1277 -1083 -1580 -183 -92 -324
-141 -517 -180 -160 -32 -232 -40 -405 -40 -283 0 -504 41 -758 141 -515 204
-915 599 -1125 1109 -50 123 -108 336 -121 448 -3 26 -9 68 -12 93 -16 121 -4
402 21 520 3 12 7 38 11 60 17 106 98 340 162 469 235 472 640 826 1145 1004
175 61 404 106 567 110 58 2 94 9 132 25 60 27 131 27 196 1z"/>
</g>
</svg>
